<svg width="135" height="37" viewBox="0 0 135 37" fill="none" xmlns="http://www.w3.org/2000/svg">
<path d="M127.828 1.86719H135V0.460938H119.18V1.86719H126.352V22.4688H127.828V1.86719ZM104.098 1.86719H109.477C111.633 1.86719 113.484 2.37109 115.031 3.37891C116.602 4.38672 117.387 5.99219 117.387 8.19531C117.387 10.4219 116.602 12.0391 115.031 13.0469C113.484 14.0312 111.633 14.5234 109.477 14.5234H104.098V1.86719ZM102.586 0.460938V22.4688H104.098V15.9297H109.617C110.836 15.9297 111.832 16.1289 112.605 16.5273C113.402 16.9258 114.281 17.875 115.242 19.375L117.246 22.4688H118.969L116.613 18.8828C115.934 17.8281 115.289 17.043 114.68 16.5273C114.094 15.9883 113.484 15.6016 112.852 15.3672C114.586 14.9219 116.016 14.1133 117.141 12.9414C118.289 11.7461 118.863 10.1641 118.863 8.19531C118.863 6.92969 118.617 5.81641 118.125 4.85547C117.656 3.89453 116.988 3.09766 116.121 2.46484C115.277 1.80859 114.281 1.31641 113.133 0.988281C111.984 0.660156 110.742 0.496094 109.406 0.496094H102.586V0.460938ZM86.6953 10.6211V1.86719H98.6836V0.460938H85.1836V22.4688H98.6836V21.0625H86.6953V11.9922H98.0859V10.6211H86.6953ZM73.7227 0.25C71.8477 0.25 70.1719 0.789063 68.6953 1.86719C67.2188 2.92188 66.4805 4.36328 66.4805 6.19141C66.4805 7.69141 67.0078 8.86328 68.0625 9.70703C69.1406 10.5508 70.8047 11.1133 73.0547 11.3945L75.7266 11.7812C77.5078 12.0156 78.832 12.4961 79.6992 13.2227C80.5898 13.9492 81.0352 15.0156 81.0352 16.4219C81.0352 17.9453 80.4023 19.1406 79.1367 20.0078C77.8711 20.8516 76.3945 21.2734 74.707 21.2734H74.5312C72.5391 21.2734 70.8984 20.8633 69.6094 20.043C68.3203 19.2227 67.418 18.1445 66.9023 16.8086L65.918 17.7227C66.5273 19.2227 67.5703 20.4297 69.0469 21.3438C70.5234 22.2344 72.3516 22.6797 74.5312 22.6797H74.707C75.7617 22.6797 76.7578 22.5391 77.6953 22.2578C78.6328 21.9531 79.4648 21.5312 80.1914 20.9922C80.918 20.4531 81.4922 19.7969 81.9141 19.0234C82.3359 18.25 82.5469 17.3828 82.5469 16.4219C82.5469 14.5469 81.9844 13.1406 80.8594 12.2031C79.7344 11.2656 78.0703 10.6562 75.8672 10.375L73.1953 9.98828C71.2969 9.73047 69.9492 9.29688 69.1523 8.6875C68.3789 8.07812 67.9922 7.23437 67.9922 6.15625C67.9922 4.70312 68.6016 3.58984 69.8203 2.81641C71.0391 2.04297 72.3516 1.65625 73.7578 1.65625H74.1094C75.4453 1.65625 76.7109 1.92578 77.9062 2.46484C79.1016 3.00391 80.0625 3.80078 80.7891 4.85547L81.7734 3.94141C80.9531 2.74609 79.8633 1.83203 78.5039 1.19922C77.1445 0.566406 75.6797 0.25 74.1094 0.25H73.7227ZM56.707 30.4844H55.9688V35.3711H56.3906L58.957 31.9258V35.3711H59.7305V30.4844H59.2734L56.707 33.9297V30.4844ZM55.3008 30.4844H51.75V31.1875H53.1562V35.3711H53.8945V31.1875H55.3008V30.4844ZM48.4805 31.1875H49.3594C49.7109 31.1875 50.0273 31.2812 50.3086 31.4688C50.5898 31.6562 50.7305 31.9375 50.7305 32.3125C50.7305 32.7109 50.5898 33.0039 50.3086 33.1914C50.0273 33.3555 49.7109 33.4375 49.3594 33.4375H48.4805V31.1875ZM49.2891 30.4844H47.7422V35.3711H48.4805V34.1406H49.2891C49.9453 34.1406 50.4609 33.9766 50.8359 33.6484C51.2344 33.3203 51.4336 32.875 51.4336 32.3125C51.4336 31.7734 51.2344 31.3398 50.8359 31.0117C50.4609 30.6602 49.9453 30.4844 49.2891 30.4844ZM32.9766 32.2773C32.9766 31.9023 33.1055 31.6328 33.3633 31.4688C33.6445 31.2812 33.9609 31.1875 34.3125 31.1875H35.2266V33.3672H34.3125C33.9609 33.3672 33.6445 33.2852 33.3633 33.1211C33.1055 32.957 32.9766 32.6758 32.9766 32.2773ZM32.6602 34.668L32.2383 35.3711H33.082L33.4336 34.8086C33.6211 34.5039 33.7734 34.3047 33.8906 34.2109C34.0312 34.1172 34.2305 34.0703 34.4883 34.0703H35.2266V35.3711H36V30.4844H34.3828C33.7266 30.4844 33.2109 30.6484 32.8359 30.9766C32.4844 31.3047 32.3086 31.7383 32.3086 32.2773C32.3086 32.6758 32.4023 33.0039 32.5898 33.2617C32.8008 33.5195 33.082 33.707 33.4336 33.8242C33.3164 33.8945 33.1992 33.9883 33.082 34.1055C32.9648 34.2461 32.8242 34.4336 32.6602 34.668ZM29.0742 33.543L29.7422 31.8555L30.4453 33.543H29.0742ZM29.5312 30.4844L27.5273 35.3711H28.3359L28.793 34.2812H30.6914L31.1133 35.3711H31.957L29.9531 30.4844H29.5312ZM24.6094 31.1875H25.4883C25.8398 31.1875 26.1562 31.2812 26.4375 31.4688C26.7188 31.6562 26.8594 31.9375 26.8594 32.3125C26.8594 32.7109 26.7188 33.0039 26.4375 33.1914C26.1562 33.3555 25.8398 33.4375 25.4883 33.4375H24.6094V31.1875ZM25.418 30.4844H23.8359V35.3711H24.6094V34.1406H25.418C26.0742 34.1406 26.5898 33.9766 26.9648 33.6484C27.3633 33.3203 27.5625 32.875 27.5625 32.3125C27.5625 31.7734 27.3633 31.3398 26.9648 31.0117C26.5898 30.6602 26.0742 30.4844 25.418 30.4844ZM23.1328 30.4844H19.5469V31.1875H20.9531V35.3711H21.7266V31.1875H23.1328V30.4844ZM14.9414 32.9102C14.9414 33.6133 15.1758 34.1992 15.6445 34.668C16.1367 35.1602 16.7227 35.4062 17.4023 35.4062C17.7539 35.4062 18.082 35.3359 18.3867 35.1953C18.7148 35.0547 18.9961 34.8555 19.2305 34.5977L18.7383 34.1406C18.5508 34.3281 18.3398 34.4688 18.1055 34.5625C17.8945 34.6562 17.6484 34.7031 17.3672 34.7031C16.8984 34.7031 16.5 34.5391 16.1719 34.2109C15.8438 33.8828 15.6797 33.4609 15.6797 32.9453C15.6797 32.4297 15.8438 32.0078 16.1719 31.6797C16.5 31.3281 16.8984 31.1523 17.3672 31.1523C17.6484 31.1523 17.8945 31.1992 18.1055 31.293C18.3398 31.3867 18.5508 31.5273 18.7383 31.7148L19.2305 31.2578C18.9961 31.0234 18.7148 30.8359 18.3867 30.6953C18.082 30.5312 17.7539 30.4492 17.4023 30.4492C16.7227 30.4492 16.1367 30.6953 15.6445 31.1875C15.1758 31.6562 14.9414 32.2305 14.9414 32.9102ZM14.0977 30.4844H13.3242V35.3711H14.0977V30.4844ZM9.84375 33.0508H11.1445C11.4492 33.0508 11.6719 33.1211 11.8125 33.2617C11.9766 33.4023 12.0586 33.6016 12.0586 33.8594C12.0586 34.1172 11.9883 34.3047 11.8477 34.4219C11.707 34.5625 11.4727 34.6328 11.1445 34.6328H9.84375V33.0508ZM9.84375 30.4844H9.10547V35.3711H11.1094C11.6953 35.3711 12.1172 35.2305 12.375 34.9492C12.6328 34.668 12.7617 34.3047 12.7617 33.8594C12.7617 33.3906 12.6211 33.0273 12.3398 32.7695C12.082 32.4883 11.6719 32.3477 11.1094 32.3477H9.84375V30.4844ZM5.41406 33.0508H6.71484C7.04297 33.0508 7.27734 33.1211 7.41797 33.2617C7.55859 33.4023 7.62891 33.6016 7.62891 33.8594C7.62891 34.1172 7.55859 34.3047 7.41797 34.4219C7.30078 34.5625 7.06641 34.6328 6.71484 34.6328H5.41406V33.0508ZM7.80469 30.4844H4.67578V35.3711H6.71484C7.30078 35.3711 7.72266 35.2305 7.98047 34.9492C8.23828 34.668 8.36719 34.3047 8.36719 33.8594C8.36719 33.3906 8.22656 33.0273 7.94531 32.7695C7.6875 32.4883 7.27734 32.3477 6.71484 32.3477H5.41406V31.1875H7.80469V30.4844ZM12.832 15.1914L20.3555 0.460938H14.3438L10.1602 8.58203L6.04688 0.460938H0L7.48828 15.1914V22.4688H12.832V15.1914ZM35.9297 11.4648C35.9297 13.3633 35.3555 14.8633 34.207 15.9648C33.082 17.0664 31.6992 17.6172 30.0586 17.6172C28.4414 17.6172 27.0703 17.0664 25.9453 15.9648C24.8203 14.8633 24.2578 13.3633 24.2578 11.4648C24.2578 9.58984 24.8203 8.08984 25.9453 6.96484C27.0703 5.83984 28.4414 5.27734 30.0586 5.27734C31.6992 5.27734 33.082 5.83984 34.207 6.96484C35.3555 8.08984 35.9297 9.58984 35.9297 11.4648ZM41.2383 11.4648C41.2383 9.91797 40.9453 8.46484 40.3594 7.10547C39.7734 5.74609 38.9766 4.5625 37.9688 3.55469C36.9609 2.52344 35.7773 1.71484 34.418 1.12891C33.0586 0.542969 31.6055 0.25 30.0586 0.25C28.5117 0.25 27.0703 0.542969 25.7344 1.12891C24.375 1.71484 23.1914 2.52344 22.1836 3.55469C21.1758 4.5625 20.3789 5.74609 19.793 7.10547C19.207 8.46484 18.9141 9.91797 18.9141 11.4648C18.9141 13.0117 19.207 14.4766 19.793 15.8594C20.3789 17.2188 21.1758 18.4023 22.1836 19.4102C23.1914 20.418 24.375 21.2148 25.7344 21.8008C27.0938 22.3867 28.5352 22.6797 30.0586 22.6797C31.6055 22.6797 33.0586 22.3867 34.418 21.8008C35.7773 21.2148 36.9609 20.418 37.9688 19.4102C38.9766 18.4023 39.7734 17.2188 40.3594 15.8594C40.9453 14.4766 41.2383 13.0117 41.2383 11.4648ZM39.4102 32.9102C39.4102 32.3945 39.5742 31.9727 39.9023 31.6445C40.2539 31.3164 40.6641 31.1523 41.1328 31.1523C41.3906 31.1523 41.6367 31.1992 41.8711 31.293C42.1055 31.3867 42.3047 31.5273 42.4688 31.7148L42.9609 31.2578C42.7266 31 42.457 30.8008 42.1523 30.6602C41.8477 30.5195 41.5078 30.4492 41.1328 30.4492C40.4531 30.4492 39.8672 30.6953 39.375 31.1875C38.9062 31.6562 38.6719 32.2422 38.6719 32.9453C38.6719 33.625 38.9062 34.1992 39.375 34.668C39.8672 35.1602 40.4531 35.4062 41.1328 35.4062C41.5078 35.4062 41.8477 35.3359 42.1523 35.1953C42.457 35.0547 42.7266 34.8672 42.9609 34.6328L42.4688 34.1758C42.3047 34.3398 42.1055 34.4688 41.8711 34.5625C41.6367 34.6562 41.3906 34.7031 41.1328 34.7031C40.6406 34.7031 40.2305 34.5391 39.9023 34.2109C39.5742 33.8828 39.4102 33.4492 39.4102 32.9102ZM46.8984 30.4844H43.7344V35.3711H46.8984V34.6328H44.5078V33.2617H46.7227V32.5234H44.5078V31.1875H46.8984V30.4844ZM61.5234 13.3984V0.460938H56.2148V13.2227C56.2148 15.1211 55.793 16.3281 54.9492 16.8438C54.1289 17.3594 53.3672 17.6172 52.6641 17.6172C51.9609 17.6172 51.1992 17.3594 50.3789 16.8438C49.5586 16.3281 49.1484 15.1211 49.1484 13.2227V0.460938H43.8398V13.3984C43.8398 15.0156 44.0977 16.4102 44.6133 17.582C45.1289 18.7539 45.8086 19.7266 46.6523 20.5C47.4961 21.25 48.4453 21.8008 49.5 22.1523C50.5547 22.5039 51.6094 22.6797 52.6641 22.6797C53.7422 22.6797 54.8086 22.5039 55.8633 22.1523C56.918 21.8008 57.8672 21.25 58.7109 20.5C59.5547 19.7266 60.2344 18.7539 60.75 17.582C61.2656 16.4102 61.5234 15.0156 61.5234 13.3984ZM67.043 32.6641C67.043 33.0391 66.9141 33.3555 66.6562 33.6133C66.4219 33.8477 66.1289 33.9648 65.7773 33.9648C65.4258 33.9648 65.1211 33.8477 64.8633 33.6133C64.6289 33.3555 64.5117 33.0391 64.5117 32.6641C64.5117 32.2891 64.6289 31.9844 64.8633 31.75C65.1211 31.4922 65.4258 31.3633 65.7773 31.3633C66.1289 31.3633 66.4219 31.4922 66.6562 31.75C66.9141 31.9844 67.043 32.2891 67.043 32.6641ZM63.7734 32.6641C63.7734 33.0391 63.6445 33.3555 63.3867 33.6133C63.1523 33.8477 62.8594 33.9648 62.5078 33.9648C62.1562 33.9648 61.8516 33.8477 61.5938 33.6133C61.3594 33.3555 61.2422 33.0391 61.2422 32.6641C61.2422 32.2891 61.3594 31.9844 61.5938 31.75C61.8516 31.4922 62.1562 31.3633 62.5078 31.3633C62.8594 31.3633 63.1523 31.4922 63.3867 31.75C63.6445 31.9844 63.7734 32.2891 63.7734 32.6641ZM67.7812 32.6641C67.7812 32.1016 67.6055 31.6328 67.2539 31.2578C66.9023 30.8594 66.4336 30.6602 65.8477 30.6602C65.5664 30.6602 65.3086 30.7305 65.0742 30.8711C64.8398 31.0117 64.6523 31.1875 64.5117 31.3984V30.4844H63.7734V31.3984C63.6328 31.1875 63.4453 31.0117 63.2109 30.8711C62.9766 30.7305 62.7188 30.6602 62.4375 30.6602C61.8516 30.6602 61.3828 30.8594 61.0312 31.2578C60.6797 31.6328 60.5039 32.1016 60.5039 32.6641C60.5039 33.2266 60.6797 33.6953 61.0312 34.0703C61.3828 34.4688 61.8516 34.668 62.4375 34.668C62.7188 34.668 62.9766 34.5977 63.2109 34.457C63.4453 34.3398 63.6328 34.1758 63.7734 33.9648V35.3711H64.5117V33.9648C64.6523 34.1758 64.8398 34.3398 65.0742 34.457C65.3086 34.5977 65.5664 34.668 65.8477 34.668C66.4102 34.668 66.8672 34.4688 67.2188 34.0703C67.5938 33.6953 67.7812 33.2266 67.7812 32.6641ZM71.543 35.3711H72.3164V30.4844H71.8594L69.293 33.9297V30.4844H68.5547V35.3711H68.9766L71.543 31.9258V35.3711ZM75.5859 32.875C75.6797 32.8281 75.7734 32.7578 75.8672 32.6641C75.9609 32.5703 76.0781 32.418 76.2188 32.207L77.3086 30.4844H76.4648L75.5156 31.9961C75.375 32.1836 75.2578 32.3242 75.1641 32.418C75.0703 32.4883 74.918 32.5234 74.707 32.5234H74.1445V30.5195H73.4062V35.3711H74.1445V33.2617H74.7773C74.9883 33.2617 75.1406 33.3086 75.2344 33.4023C75.3281 33.4727 75.4453 33.6133 75.5859 33.8242L76.5703 35.3711H77.4141L76.2891 33.5781C76.125 33.3438 75.9961 33.1797 75.9023 33.0859C75.8086 32.9688 75.7031 32.8984 75.5859 32.875ZM80.5781 33.543H79.207L79.9102 31.8555L80.5781 33.543ZM81.2461 35.3711H82.0898L80.1211 30.4844H79.6641L77.6602 35.3711H78.5039L78.9258 34.2812H80.8242L81.2461 35.3711ZM86.3438 36.25H87.082V34.6328H86.4492V30.4844H85.6758V34.6328H83.4961V30.4844H82.7227V35.3711H86.3438V36.25ZM90.7383 35.3711H91.4766V30.4844H91.0195L88.4531 33.9297V30.4844H87.7148V35.3711H88.1719L90.7383 31.9258V35.3711ZM95.1328 33.3672H94.2188C93.8672 33.3672 93.5508 33.2852 93.2695 33.1211C93.0117 32.9336 92.8828 32.6523 92.8828 32.2773C92.8828 31.9023 93.0117 31.6328 93.2695 31.4688C93.5508 31.2812 93.8672 31.1875 94.2188 31.1875H95.1328V33.3672ZM95.1328 35.3711H95.9062V30.4844H94.2891C93.6328 30.4844 93.1172 30.6484 92.7422 30.9766C92.3906 31.3047 92.2148 31.7383 92.2148 32.2773C92.2148 32.6758 92.3086 33.0039 92.4961 33.2617C92.707 33.5195 92.9883 33.707 93.3398 33.8242C93.2227 33.8945 93.1055 33.9883 92.9883 34.1055C92.8711 34.2461 92.7305 34.4336 92.5664 34.668L92.1445 35.3359H92.9883L93.3398 34.7734C93.5273 34.4922 93.6797 34.3047 93.7969 34.2109C93.9375 34.1172 94.1367 34.0703 94.3945 34.0703H95.1328V35.3711ZM100.617 31.1875H102.023V30.4844H98.4375V31.1875H99.8438V35.3711H100.617V31.1875ZM106.523 32.9102C106.523 33.4258 106.348 33.8477 105.996 34.1758C105.668 34.5273 105.258 34.7031 104.766 34.7031C104.297 34.7031 103.898 34.5273 103.57 34.1758C103.242 33.8477 103.078 33.4258 103.078 32.9102C103.078 32.3945 103.242 31.9727 103.57 31.6445C103.898 31.3164 104.297 31.1523 104.766 31.1523C105.258 31.1523 105.668 31.3164 105.996 31.6445C106.348 31.9727 106.523 32.3945 106.523 32.9102ZM107.262 32.9102C107.262 32.2305 107.016 31.6562 106.523 31.1875C106.055 30.6953 105.469 30.4492 104.766 30.4492C104.086 30.4492 103.5 30.6953 103.008 31.1875C102.539 31.6562 102.305 32.2305 102.305 32.9102C102.305 33.6133 102.539 34.1992 103.008 34.668C103.5 35.1602 104.086 35.4062 104.766 35.4062C105.469 35.4062 106.055 35.1602 106.523 34.668C107.016 34.1992 107.262 33.6133 107.262 32.9102ZM111.059 33.9297C111.059 34.1172 110.988 34.2812 110.848 34.4219C110.73 34.5859 110.508 34.668 110.18 34.668H108.879V33.1562H110.18C110.484 33.1562 110.707 33.2383 110.848 33.4023C110.988 33.543 111.059 33.7188 111.059 33.9297ZM110.848 31.8555C110.848 32.0195 110.789 32.1719 110.672 32.3125C110.555 32.4531 110.332 32.5234 110.004 32.5234H108.879V31.1875H110.004C110.355 31.1875 110.578 31.2578 110.672 31.3984C110.789 31.5391 110.848 31.6914 110.848 31.8555ZM110.848 32.8047C111.082 32.7344 111.258 32.6055 111.375 32.418C111.492 32.2305 111.551 32.0078 111.551 31.75C111.551 31.4922 111.445 31.2227 111.234 30.9414C111.047 30.6367 110.613 30.4844 109.934 30.4844H108.105V35.3711H110.039C110.672 35.3711 111.117 35.2305 111.375 34.9492C111.633 34.6914 111.762 34.375 111.762 34C111.762 33.6953 111.68 33.4375 111.516 33.2266C111.352 33.0156 111.129 32.875 110.848 32.8047ZM114.926 33.543H113.555L114.258 31.8555L114.926 33.543ZM115.629 35.3711H116.438L114.469 30.4844H114.047L112.043 35.3711H112.852L113.309 34.2812H115.207L115.629 35.3711ZM120.023 32.3125C120.023 32.7109 119.883 33.0039 119.602 33.1914C119.344 33.3555 119.027 33.4375 118.652 33.4375H117.809V31.1875H118.652C119.027 31.1875 119.344 31.2812 119.602 31.4688C119.883 31.6562 120.023 31.9375 120.023 32.3125ZM120.727 32.3125C120.727 31.7734 120.527 31.3398 120.129 31.0117C119.754 30.6602 119.25 30.4844 118.617 30.4844H117.035V35.3711H117.773V34.1406H118.617C119.25 34.1406 119.754 33.9766 120.129 33.6484C120.527 33.3203 120.727 32.875 120.727 32.3125ZM125.473 32.9102C125.473 33.4258 125.297 33.8477 124.945 34.1758C124.617 34.5273 124.219 34.7031 123.75 34.7031C123.258 34.7031 122.848 34.5273 122.52 34.1758C122.191 33.8477 122.027 33.4258 122.027 32.9102C122.027 32.3945 122.191 31.9727 122.52 31.6445C122.848 31.3164 123.258 31.1523 123.75 31.1523C124.219 31.1523 124.617 31.3164 124.945 31.6445C125.297 31.9727 125.473 32.3945 125.473 32.9102ZM126.211 32.9102C126.211 32.2305 125.965 31.6562 125.473 31.1875C125.004 30.6953 124.43 30.4492 123.75 30.4492C123.047 30.4492 122.449 30.6953 121.957 31.1875C121.488 31.6562 121.254 32.2305 121.254 32.9102C121.254 33.6133 121.488 34.1992 121.957 34.668C122.449 35.1602 123.047 35.4062 123.75 35.4062C124.43 35.4062 125.004 35.1602 125.473 34.668C125.965 34.1992 126.211 33.6133 126.211 32.9102ZM130.008 33.9297C130.008 34.1172 129.938 34.2812 129.797 34.4219C129.68 34.5859 129.457 34.668 129.129 34.668H127.793V33.1562H129.129C129.457 33.1562 129.68 33.2383 129.797 33.4023C129.938 33.543 130.008 33.7188 130.008 33.9297ZM129.797 31.8555C129.797 32.0195 129.738 32.1719 129.621 32.3125C129.504 32.4531 129.281 32.5234 128.953 32.5234H127.793V31.1875H128.953C129.305 31.1875 129.527 31.2578 129.621 31.3984C129.738 31.5391 129.797 31.6914 129.797 31.8555ZM130.5 31.75C130.5 31.4922 130.395 31.2227 130.184 30.9414C129.996 30.6367 129.562 30.4844 128.883 30.4844H127.055V35.3711H128.988C129.621 35.3711 130.066 35.2305 130.324 34.9492C130.582 34.6914 130.711 34.375 130.711 34C130.711 33.6953 130.629 33.4375 130.465 33.2266C130.301 33.0156 130.078 32.875 129.797 32.8047C130.031 32.7344 130.207 32.6055 130.324 32.418C130.441 32.2305 130.5 32.0078 130.5 31.75Z" fill="url(#paint0_linear_1403_15131)"/>
<defs>
<linearGradient id="paint0_linear_1403_15131" x1="74.0116" y1="29.2945" x2="40.7072" y2="-24.2638" gradientUnits="userSpaceOnUse">
<stop stop-color="#26B5C5"/>
<stop offset="1" stop-color="#5DD6A1"/>
</linearGradient>
</defs>
</svg>
