<svg fill="none" height="37" viewBox="0 0 135 37" width="135" xmlns="http://www.w3.org/2000/svg" xmlns:xlink="http://www.w3.org/1999/xlink"><linearGradient id="a" gradientUnits="userSpaceOnUse" x1="74.0116" x2="40.7072" y1="29.2945" y2="-24.2638"><stop offset="0" stop-color="#26b5c5"/><stop offset="1" stop-color="#5dd6a1"/></linearGradient><path d="m127.828 1.86719h7.172v-1.406252h-15.82v1.406252h7.172v20.60161h1.476zm-23.73 0h5.379c2.156 0 4.007.5039 5.554 1.51172 1.571 1.00781 2.356 2.61328 2.356 4.8164 0 2.22659-.785 3.84379-2.356 4.85159-1.547.9843-3.398 1.4765-5.554 1.4765h-5.379zm-1.512-1.406252v22.007862h1.512v-6.5391h5.519c1.219 0 2.215.1992 2.988.5976.797.3985 1.676 1.3477 2.637 2.8477l2.004 3.0938h1.723l-2.356-3.586c-.679-1.0547-1.324-1.8398-1.933-2.3555-.586-.539-1.196-.9257-1.828-1.1601 1.734-.4453 3.164-1.2539 4.289-2.4258 1.148-1.1953 1.722-2.7773 1.722-4.74609 0-1.26562-.246-2.3789-.738-3.33984-.469-.96094-1.137-1.75781-2.004-2.39063-.844-.65625-1.84-1.14843-2.988-1.476559-1.149-.328125-2.391-.492187-3.727-.492187h-6.82zm-15.8907 10.160162v-8.75391h11.9883v-1.406252h-13.5v22.007862h13.5v-1.4063h-11.9883v-9.0703h11.3906v-1.3711zm-12.9726-10.3711c-1.875 0-3.5508.539063-5.0274 1.61719-1.4765 1.05469-2.2148 2.49609-2.2148 4.32422 0 1.5.5273 2.67187 1.582 3.51562 1.0781.84377 2.7422 1.40627 4.9922 1.68747l2.6719.3867c1.7812.2344 3.1054.7149 3.9726 1.4415.8906.7265 1.336 1.7929 1.336 3.1992 0 1.5234-.6329 2.7187-1.8985 3.5859-1.2656.8438-2.7422 1.2656-4.4297 1.2656h-.1758c-1.9921 0-3.6328-.4101-4.9218-1.2304-1.2891-.8203-2.1914-1.8985-2.7071-3.2344l-.9843.9141c.6093 1.5 1.6523 2.707 3.1289 3.6211 1.4765.8906 3.3047 1.3359 5.4843 1.3359h.1758c1.0547 0 2.0508-.1406 2.9883-.4219.9375-.3047 1.7695-.7266 2.4961-1.2656.7266-.5391 1.3008-1.1953 1.7227-1.9688.4218-.7734.6328-1.6406.6328-2.6015 0-1.875-.5625-3.2813-1.6875-4.2188s-2.7891-1.5469-4.9922-1.8281l-2.6719-.38672c-1.8984-.25781-3.2461-.6914-4.043-1.30078-.7734-.60938-1.1601-1.45313-1.1601-2.53125 0-1.45313.6094-2.56641 1.8281-3.33984 1.2188-.77344 2.5313-1.16016 3.9375-1.16016h.3516c1.3359 0 2.6015.26953 3.7968.80859 1.1954.53907 2.1563 1.33594 2.8829 2.39063l.9843-.91406c-.8203-1.19532-1.9101-2.10938-3.2695-2.74219-1.3594-.632814-2.8242-.94922-4.3945-.94922zm-17.0157 30.2344h-.7382v4.8867h.4218l2.5664-3.4453v3.4453h.7735v-4.8867h-.4571l-2.5664 3.4453zm-1.4062 0h-3.5508v.7031h1.4062v4.1836h.7383v-4.1836h1.4063zm-6.8203.7031h.8789c.3515 0 .6679.0937.9492.2813.2812.1874.4219.4687.4219.8437 0 .3984-.1407.6914-.4219.8789-.2813.1641-.5977.2461-.9492.2461h-.8789zm.8086-.7031h-1.5469v4.8867h.7383v-1.2305h.8086c.6562 0 1.1718-.164 1.5468-.4922.3985-.3281.5977-.7734.5977-1.3359 0-.5391-.1992-.9727-.5977-1.3008-.375-.3515-.8906-.5273-1.5468-.5273zm-16.3125 1.7929c0-.375.1289-.6445.3867-.8085.2812-.1876.5976-.2813.9492-.2813h.9141v2.1797h-.9141c-.3516 0-.668-.082-.9492-.2461-.2578-.1641-.3867-.4453-.3867-.8438zm-.3164 2.3907-.4219.7031h.8437l.3516-.5625c.1875-.3047.3398-.5039.457-.5977.1406-.0937.3399-.1406.5977-.1406h.7383v1.3008h.7734v-4.8867h-1.6172c-.6562 0-1.1719.164-1.5469.4922-.3515.3281-.5273.7617-.5273 1.3007 0 .3985.0937.7266.2812.9844.211.2578.4922.4453.8438.5625-.1172.0703-.2344.1641-.3516.2813-.1172.1406-.2578.3281-.4218.5625zm-3.586-1.125.668-1.6875.7031 1.6875zm.457-3.0586-2.0039 4.8867h.8086l.4571-1.0899h1.8984l.4219 1.0899h.8437l-2.0039-4.8867zm-4.9218.7031h.8789c.3515 0 .6679.0937.9492.2813.2813.1874.4219.4687.4219.8437 0 .3984-.1406.6914-.4219.8789-.2813.1641-.5977.2461-.9492.2461h-.8789zm.8086-.7031h-1.5821v4.8867h.7735v-1.2305h.8086c.6562 0 1.1718-.164 1.5468-.4922.3985-.3281.5977-.7734.5977-1.3359 0-.5391-.1992-.9727-.5977-1.3008-.375-.3515-.8906-.5273-1.5468-.5273zm-2.2852 0h-3.5859v.7031h1.4062v4.1836h.7735v-4.1836h1.4062zm-8.1914 2.4258c0 .7031.2344 1.289.7031 1.7578.4922.4922 1.0782.7382 1.7578.7382.3516 0 .6797-.0703.9844-.2109.3281-.1406.6094-.3398.8438-.5976l-.4922-.4571c-.1875.1875-.3985.3282-.6328.4219-.211.0937-.4571.1406-.7383.1406-.4688 0-.8672-.164-1.1953-.4922-.3281-.3281-.4922-.75-.4922-1.2656s.1641-.9375.4922-1.2656c.3281-.3516.7265-.5274 1.1953-.5274.2812 0 .5273.0469.7383.1407.2343.0937.4453.2343.6328.4218l.4922-.457c-.2344-.2344-.5157-.4219-.8438-.5625-.3047-.1641-.6328-.2461-.9844-.2461-.6796 0-1.2656.2461-1.7578.7383-.4687.4687-.7031 1.043-.7031 1.7227zm-.8437-2.4258h-.7735v4.8867h.7735zm-4.25395 2.5664h1.30075c.3047 0 .5274.0703.668.2109.1641.1406.2461.3399.2461.5977s-.0703.4453-.2109.5625c-.1407.1406-.375.2109-.7032.2109h-1.30075zm0-2.5664h-.73828v4.8867h2.00393c.5859 0 1.0078-.1406 1.2656-.4219.2578-.2812.3867-.6445.3867-1.0898 0-.4688-.1406-.8321-.4219-1.0899-.2578-.2812-.6679-.4218-1.2304-.4218h-1.26565zm-4.42969 2.5664h1.30078c.32813 0 .5625.0703.70313.2109.14062.1406.21094.3399.21094.5977s-.07032.4453-.21094.5625c-.11719.1406-.35156.2109-.70313.2109h-1.30078zm2.39063-2.5664h-3.12891v4.8867h2.03906c.58594 0 1.00782-.1406 1.26563-.4219.25781-.2812.38672-.6445.38672-1.0898 0-.4688-.14063-.8321-.42188-1.0899-.25781-.2812-.66797-.4218-1.23047-.4218h-1.30078v-1.1602h2.39063zm5.02731-15.293 7.5235-14.730462h-6.0117l-4.1836 8.121092-4.11332-8.121092h-6.04688l7.48828 14.730462v7.2774h5.34372zm23.0977-3.7266c0 1.8985-.5742 3.3985-1.7227 4.5-1.125 1.1016-2.5078 1.6524-4.1484 1.6524-1.6172 0-2.9883-.5508-4.1133-1.6524-1.125-1.1015-1.6875-2.6015-1.6875-4.5 0-1.87496.5625-3.37496 1.6875-4.49996s2.4961-1.6875 4.1133-1.6875c1.6406 0 3.0234.5625 4.1484 1.6875 1.1485 1.125 1.7227 2.625 1.7227 4.49996zm5.3086 0c0-1.54683-.293-2.99996-.8789-4.35933-.586-1.35938-1.3828-2.54297-2.3906-3.55078-1.0079-1.03125-2.1915-1.83985-3.5508-2.42578-1.3594-.585941-2.8125-.87891-4.3594-.87891s-2.9883.292969-4.3242.87891c-1.3594.58593-2.543 1.39453-3.5508 2.42578-1.0078 1.00781-1.8047 2.1914-2.3906 3.55078-.586 1.35937-.8789 2.8125-.8789 4.35933 0 1.5469.2929 3.0118.8789 4.3946.5859 1.3594 1.3828 2.5429 2.3906 3.5508 1.0078 1.0078 2.1914 1.8046 3.5508 2.3906 1.3594.5859 2.8008.8789 4.3242.8789 1.5469 0 3-.293 4.3594-.8789 1.3593-.586 2.5429-1.3828 3.5508-2.3906 1.0078-1.0079 1.8046-2.1914 2.3906-3.5508.5859-1.3828.8789-2.8477.8789-4.3946zm-1.8281 21.4454c0-.5157.164-.9375.4921-1.2657.3516-.3281.7618-.4922 1.2305-.4922.2578 0 .5039.0469.7383.1407.2344.0937.4336.2343.5977.4218l.4921-.457c-.2343-.2578-.5039-.457-.8086-.5976-.3046-.1407-.6445-.211-1.0195-.211-.6797 0-1.2656.2461-1.7578.7383-.4688.4687-.7031 1.0547-.7031 1.7578 0 .6797.2343 1.2539.7031 1.7227.4922.4922 1.0781.7382 1.7578.7382.375 0 .7149-.0703 1.0195-.2109.3047-.1406.5743-.3281.8086-.5625l-.4921-.457c-.1641.164-.3633.293-.5977.3867s-.4805.1406-.7383.1406c-.4922 0-.9023-.164-1.2305-.4922-.3281-.3281-.4921-.7617-.4921-1.3007zm7.4882-2.4258h-3.164v4.8867h3.164v-.7383h-2.3906v-1.3711h2.2149v-.7383h-2.2149v-1.3359h2.3906zm14.625-17.086v-12.937462h-5.3086v12.761762c0 1.8984-.4218 3.1054-1.2656 3.6211-.8203.5156-1.582.7734-2.2851.7734-.7032 0-1.4649-.2578-2.2852-.7734-.8203-.5157-1.2305-1.7227-1.2305-3.6211v-12.761762h-5.3086v12.937462c0 1.6172.2579 3.0118.7735 4.1836.5156 1.1719 1.1953 2.1446 2.039 2.918.8438.75 1.793 1.3008 2.8477 1.6523 1.0547.3516 2.1094.5274 3.1641.5274 1.0781 0 2.1445-.1758 3.1992-.5274 1.0547-.3515 2.0039-.9023 2.8476-1.6523.8438-.7734 1.5235-1.7461 2.0391-2.918.5156-1.1718.7734-2.5664.7734-4.1836zm5.5196 19.2657c0 .375-.1289.6914-.3868.9492-.2343.2344-.5273.3515-.8789.3515-.3515 0-.6562-.1171-.914-.3515-.2344-.2578-.3516-.5742-.3516-.9492s.1172-.6797.3516-.9141c.2578-.2578.5625-.3867.914-.3867.3516 0 .6446.1289.8789.3867.2579.2344.3868.5391.3868.9141zm-3.2696 0c0 .375-.1289.6914-.3867.9492-.2344.2344-.5273.3515-.8789.3515s-.6562-.1171-.914-.3515c-.2344-.2578-.3516-.5742-.3516-.9492s.1172-.6797.3516-.9141c.2578-.2578.5624-.3867.914-.3867s.6445.1289.8789.3867c.2578.2344.3867.5391.3867.9141zm4.0078 0c0-.5625-.1757-1.0313-.5273-1.4063-.3516-.3984-.8203-.5976-1.4062-.5976-.2813 0-.5391.0703-.7735.2109s-.4219.3164-.5625.5273v-.914h-.7383v.914c-.1406-.2109-.3281-.3867-.5625-.5273-.2343-.1406-.4921-.2109-.7734-.2109-.5859 0-1.0547.1992-1.4063.5976-.3515.375-.5273.8438-.5273 1.4063s.1758 1.0312.5273 1.4062c.3516.3985.8204.5977 1.4063.5977.2813 0 .5391-.0703.7734-.211.2344-.1172.4219-.2812.5625-.4922v1.4063h.7383v-1.4063c.1406.211.3281.375.5625.4922.2344.1407.4922.211.7735.211.5625 0 1.0195-.1992 1.3711-.5977.375-.375.5624-.8437.5624-1.4062zm3.7618 2.707h.7734v-4.8867h-.457l-2.5664 3.4453v-3.4453h-.7383v4.8867h.4219l2.5664-3.4453zm4.0429-2.4961c.0938-.0469.1875-.1172.2813-.2109.0937-.0938.2109-.2461.3516-.4571l1.0898-1.7226h-.8438l-.9492 1.5117c-.1406.1875-.2578.3281-.3515.4219-.0938.0703-.2461.1054-.4571.1054h-.5625v-2.0039h-.7383v4.8516h.7383v-2.1094h.6328c.211 0 .3633.0469.4571.1406.0937.0704.2109.211.3515.4219l.9844 1.5469h.8438l-1.125-1.793c-.1641-.2343-.293-.3984-.3868-.4922-.0937-.1171-.1992-.1875-.3164-.2109zm4.9922.668h-1.3711l.7032-1.6875zm.668 1.8281h.8437l-1.9687-4.8867h-.457l-2.0039 4.8867h.8437l.4219-1.0899h1.8984zm5.0977.8789h.7382v-1.6172h-.6328v-4.1484h-.7734v4.1484h-2.1797v-4.1484h-.7734v4.8867h3.6211zm4.3945-.8789h.7383v-4.8867h-.4571l-2.5664 3.4453v-3.4453h-.7383v4.8867h.4571l2.5664-3.4453zm4.3945-2.0039h-.914c-.3516 0-.668-.082-.9493-.2461-.2578-.1875-.3867-.4688-.3867-.8438s.1289-.6445.3867-.8085c.2813-.1876.5977-.2813.9493-.2813h.914zm0 2.0039h.7734v-4.8867h-1.6171c-.6563 0-1.1719.164-1.5469.4922-.3516.3281-.5274.7617-.5274 1.3007 0 .3985.0938.7266.2813.9844.2109.2578.4922.4453.8437.5625-.1171.0703-.2343.1641-.3515.2813-.1172.1406-.2578.3281-.4219.5625l-.4219.6679h.8438l.3515-.5625c.1875-.2812.3399-.4687.4571-.5625.1406-.0937.3398-.1406.5976-.1406h.7383zm5.4842-4.1836h1.406v-.7031h-3.5855v.7031h1.4063v4.1836h.7732zm5.906 1.7227c0 .5156-.175.9375-.527 1.2656-.328.3515-.738.5273-1.23.5273-.469 0-.868-.1758-1.196-.5273-.328-.3281-.492-.75-.492-1.2656 0-.5157.164-.9375.492-1.2657.328-.3281.727-.4922 1.196-.4922.492 0 .902.1641 1.23.4922.352.3282.527.75.527 1.2657zm.739 0c0-.6797-.246-1.254-.739-1.7227-.468-.4922-1.054-.7383-1.757-.7383-.68 0-1.266.2461-1.758.7383-.469.4687-.703 1.043-.703 1.7227 0 .7031.234 1.289.703 1.7578.492.4922 1.078.7382 1.758.7382.703 0 1.289-.246 1.757-.7382.493-.4688.739-1.0547.739-1.7578zm3.797 1.0195c0 .1875-.071.3515-.211.4922-.118.164-.34.2461-.668.2461h-1.301v-1.5118h1.301c.304 0 .527.0821.668.2461.14.1407.211.3165.211.5274zm-.211-2.0742c0 .164-.059.3164-.176.457s-.34.2109-.668.2109h-1.125v-1.3359h1.125c.351 0 .574.0703.668.2109.117.1407.176.293.176.4571zm0 .9492c.234-.0703.41-.1992.527-.3867s.176-.4102.176-.668-.106-.5273-.317-.8086c-.187-.3047-.621-.457-1.3-.457h-1.829v4.8867h1.934c.633 0 1.078-.1406 1.336-.4219.258-.2578.387-.5742.387-.9492 0-.3047-.082-.5625-.246-.7734-.164-.211-.387-.3516-.668-.4219zm4.078.7383h-1.371l.703-1.6875zm.703 1.8281h.809l-1.969-4.8867h-.422l-2.004 4.8867h.809l.457-1.0899h1.898zm4.394-3.0586c0 .3984-.14.6914-.421.8789-.258.1641-.575.2461-.95.2461h-.843v-2.25h.843c.375 0 .692.0937.95.2813.281.1874.421.4687.421.8437zm.704 0c0-.5391-.2-.9727-.598-1.3008-.375-.3515-.879-.5273-1.512-.5273h-1.582v4.8867h.738v-1.2305h.844c.633 0 1.137-.164 1.512-.4922.398-.3281.598-.7734.598-1.3359zm4.746.5977c0 .5156-.176.9375-.528 1.2656-.328.3515-.726.5273-1.195.5273-.492 0-.902-.1758-1.23-.5273-.329-.3281-.493-.75-.493-1.2656 0-.5157.164-.9375.493-1.2657.328-.3281.738-.4922 1.23-.4922.469 0 .867.1641 1.195.4922.352.3282.528.75.528 1.2657zm.738 0c0-.6797-.246-1.254-.738-1.7227-.469-.4922-1.043-.7383-1.723-.7383-.703 0-1.301.2461-1.793.7383-.469.4687-.703 1.043-.703 1.7227 0 .7031.234 1.289.703 1.7578.492.4922 1.09.7382 1.793.7382.68 0 1.254-.246 1.723-.7382.492-.4688.738-1.0547.738-1.7578zm3.797 1.0195c0 .1875-.07.3515-.211.4922-.117.164-.34.2461-.668.2461h-1.336v-1.5118h1.336c.328 0 .551.0821.668.2461.141.1407.211.3165.211.5274zm-.211-2.0742c0 .164-.059.3164-.176.457s-.34.2109-.668.2109h-1.16v-1.3359h1.16c.352 0 .574.0703.668.2109.117.1407.176.293.176.4571zm.703-.1055c0-.2578-.105-.5273-.316-.8086-.188-.3047-.622-.457-1.301-.457h-1.828v4.8867h1.933c.633 0 1.078-.1406 1.336-.4219.258-.2578.387-.5742.387-.9492 0-.3047-.082-.5625-.246-.7734-.164-.211-.387-.3516-.668-.4219.234-.0703.41-.1992.527-.3867s.176-.4102.176-.668z" fill="url(#a)"/></svg>