<svg fill="none" height="70" viewBox="0 0 264 70" width="264" xmlns="http://www.w3.org/2000/svg" xmlns:xlink="http://www.w3.org/1999/xlink"><linearGradient id="a" gradientUnits="userSpaceOnUse" x1="148.498" x2="82.8495" y1="56.9615" y2="-45.3067"><stop offset="0" stop-color="#26b5c5"/><stop offset="1" stop-color="#5dd6a1"/></linearGradient><path d="m249.396 3.17738h13.979v-2.748543h-30.878v2.748543h13.979v40.03902h2.94v-40.03902zm-46.336 0h10.552c8.372 0 15.381 3.72321 15.381 12.28072 0 8.616-7.028 12.2807-15.381 12.2807h-10.552zm-2.92-2.748543v42.787563h2.94v-12.7096h10.747c4.769 0 7.261.8577 10.98 6.6667l3.913 6.0429h3.368l-4.575-6.9591c-2.628-4.0936-4.886-5.9844-7.378-6.8421 6.833-1.7739 11.778-6.3548 11.778-13.9376 0-9.84408-8.118-15.029265-18.437-15.029265h-13.336zm-31.014 19.746563v-16.99802h23.382v-2.748543h-26.302v42.787563h26.302v-2.7486h-23.382v-17.6023h22.214v-2.6901zm-25.271-20.1754c-7.32 0-14.153 4.46394-14.153 11.5595 0 5.8674 4.03 8.9863 12.81 10.1364l5.257.7407c6.95.9162 10.318 3.5478 10.318 8.9864 0 5.9259-5.743 9.4737-12.324 9.4737h-.37c-7.748 0-12.888-3.4893-14.893-8.6745l-1.889 1.7739c2.375 5.809 8.294 9.6491 16.782 9.6491h.37c8.119 0 15.264-4.7563 15.264-12.2222 0-7.271-4.458-10.6433-13.005-11.7349l-5.257-.7407c-7.32-.9747-10.124-3.2359-10.124-7.4659 0-5.69203 5.802-8.73297 11.234-8.73297h.74c5.198 0 10.143 2.14425 13.005 6.17934l1.888-1.77388c-3.173-4.58089-8.78-7.15399-14.893-7.15399z" fill="url(#a)"/><path d="m110.642 58.7914h-1.461v9.4737h.857l5.003-6.6862v6.6862h1.461v-9.4737h-.857l-5.003 6.6862zm-2.726 0h-6.989v1.384h2.745v8.0897h1.46v-8.0897h2.764v-1.384zm-13.3363 1.384h1.6938c1.4212 0 2.6867.6823 2.6867 2.1833 0 1.5594-1.2655 2.1832-2.6867 2.1832h-1.6938zm1.5964-1.384h-3.0566v9.4737h1.4602v-2.3587h1.5964c2.531 0 4.1659-1.423 4.1659-3.5477 0-2.1248-1.6349-3.5673-4.1659-3.5673zm-31.8121 3.4893c0-1.4425 1.1681-2.1053 2.5893-2.1053h1.7912v4.23h-1.7912c-1.4212 0-2.5893-.6237-2.5893-2.1247zm-.6231 4.6394-.8761 1.345h1.6549l.6814-1.0916c.7788-1.1696 1.1097-1.384 2.0637-1.4035h1.4797v2.4951h1.4601v-9.4737h-3.115c-2.531 0-4.0885 1.423-4.0885 3.4893 0 1.501.8567 2.5536 2.2195 3.0215-.4673.2339-.9151.7017-1.4797 1.6179zm-7.0477-2.1638 1.3434-3.2943 1.3433 3.2943zm.9151-5.9649-3.8938 9.4737h1.5964l.8566-2.1247h3.6797l.8566 2.1247h1.6159l-3.8548-9.4737zm-9.5982 1.384h1.6938c1.4212 0 2.6867.6823 2.6867 2.1833 0 1.5594-1.2655 2.1832-2.6867 2.1832h-1.6938zm1.577-1.384h-3.0566v9.4737h1.4601v-2.3587h1.5965c2.5309 0 4.1663-1.423 4.1663-3.5477 0-2.1248-1.6354-3.5673-4.1663-3.5673zm-4.4584 0h-6.9893v1.384h2.7645v8.0897h1.4602v-8.0897h2.7646zm-16.0034 4.7369c0 2.6705 2.1415 4.8343 4.8088 4.8343 1.4017 0 2.6672-.6043 3.5628-1.5595l-.954-.8772c-.6814.6823-1.5964 1.0721-2.6283 1.0721-1.869 0-3.3486-1.4424-3.3486-3.4502s1.4796-3.4503 3.3486-3.4503c1.0319 0 1.9469.3898 2.6283 1.0721l.954-.8772c-.8956-.9552-2.1611-1.5595-3.5628-1.5595-2.6673-.0194-4.8088 2.1443-4.8088 4.7954zm-1.6549-4.7369h-1.4601v9.4737h1.4601zm-8.2548 4.9903h2.5115c1.246 0 1.7911.5653 1.7911 1.5594 0 .9747-.4672 1.54-1.7911 1.54h-2.5115zm0-4.9903h-1.4602v9.4737h3.9328c2.2389 0 3.1929-1.1696 3.1929-2.924 0-1.7738-1.0514-2.9239-3.1929-2.9239h-2.492v-3.6258zm-8.6831 4.9903h2.5699c1.246 0 1.7911.5653 1.7911 1.5594 0 .9747-.4672 1.54-1.7911 1.54h-2.5699zm4.7115-4.9903h-6.1522v9.4737h4.0106c2.2389 0 3.1929-1.1696 3.1929-2.924 0-1.7738-1.0319-2.9239-3.1929-2.9239h-2.5504v-2.2418h4.692zm61.6579 4.7369c0-2.0078 1.4797-3.4503 3.3487-3.4503 1.0318 0 1.9469.3898 2.6283 1.0721l.9539-.8772c-.8955-.9552-2.161-1.5595-3.5628-1.5595-2.6672 0-4.8088 2.1638-4.8088 4.8344 0 2.6705 2.1416 4.8343 4.8088 4.8343 1.4018 0 2.6673-.6043 3.5628-1.5595l-.9539-.8772c-.6814.6823-1.5965 1.0721-2.6283 1.0721-1.8885-.0389-3.3487-1.4619-3.3487-3.4892zm14.6017-4.7369h-6.1522v9.4737h6.1522v-1.384h-4.692v-2.7096h4.361v-1.384h-4.361v-2.6315h4.692zm39.2884 4.2495c0 1.462-1.09 2.5147-2.453 2.5147-1.383 0-2.453-1.0527-2.453-2.5147s1.09-2.5341 2.453-2.5341 2.453 1.0721 2.453 2.5341zm-6.405 0c0 1.462-1.091 2.5147-2.454 2.5147-1.382 0-2.453-1.0527-2.453-2.5147s1.091-2.5341 2.453-2.5341c1.383 0 2.454 1.0721 2.454 2.5341zm7.845 0c0-2.1832-1.518-3.8986-3.757-3.8986-1.129 0-2.103.5848-2.609 1.4035v-1.7349h-1.46v1.7544c-.506-.8382-1.48-1.423-2.609-1.423-2.258 0-3.777 1.7349-3.777 3.8986 0 2.1833 1.519 3.8987 3.777 3.8987 1.129 0 2.103-.5653 2.609-1.384v2.7095h1.46v-2.7095c.506.8187 1.48 1.384 2.609 1.384 2.219 0 3.757-1.7154 3.757-3.8987zm7.36 5.2242h1.46v-9.4737h-.857l-5.003 6.6862v-6.6862h-1.46v9.4737h.856l5.004-6.6862zm7.885-4.8343c.331-.1754.642-.4873 1.187-1.2866l2.142-3.3333h-1.655l-1.83 2.885c-.526.7992-.759 1.0916-1.558 1.0916h-1.09v-3.9571h-1.46v9.4737h1.46v-4.0936h1.207c.818 0 1.032.2729 1.558 1.0917l1.947 3.0214h1.654l-2.238-3.4893c-.604-.9552-.916-1.2865-1.324-1.4035zm9.715 1.3255h-2.668l1.344-3.2943zm1.343 3.5088h1.596l-3.854-9.4737h-.857l-3.894 9.4737h1.616l.857-2.1247h3.679zm9.89 1.7349h1.46v-3.1189h-1.246v-8.0897h-1.46v8.0897h-4.302v-8.0897h-1.461v9.4737h7.009zm8.566-1.7349h1.461v-9.4737h-.857l-5.004 6.6862v-6.6862h-1.46v9.4737h.857l5.003-6.6862zm8.625-3.8597h-1.791c-1.421 0-2.589-.6432-2.589-2.1247 0-1.4425 1.168-2.1053 2.589-2.1053h1.791zm0 3.8597h1.46v-9.4737h-3.115c-2.531 0-4.088 1.423-4.088 3.4893 0 1.501.856 2.5536 2.219 3.0215-.467.2339-.895.7017-1.479 1.5984l-.876 1.345h1.654l.682-1.0916c.759-1.1696 1.11-1.384 2.064-1.4035h1.479zm10.65-8.0897h2.764v-1.384h-6.989v1.384h2.764v8.0897h1.461zm11.525 3.3529c0 2.0078-1.479 3.4503-3.368 3.4503-1.869 0-3.349-1.4425-3.349-3.4503s1.48-3.4503 3.349-3.4503c1.889 0 3.368 1.4425 3.368 3.4503zm1.46 0c0-2.6706-2.161-4.8343-4.828-4.8343s-4.809 2.1637-4.809 4.8343c0 2.6705 2.142 4.8343 4.809 4.8343s4.828-2.1638 4.828-4.8343zm7.418 1.9298c0 .7992-.428 1.4425-1.713 1.4425h-2.57v-2.885h2.57c1.207-.0195 1.713.6238 1.713 1.4425zm-.428-3.9961c0 .6238-.312 1.2865-1.636 1.2865h-2.219v-2.5731h2.219c1.402 0 1.636.6823 1.636 1.2866zm.039 1.8518c.856-.3119 1.343-1.0331 1.343-2.0467 0-1.0137-.467-2.4757-3.173-2.4757h-3.544v9.4737h3.738c2.551 0 3.407-1.1696 3.407-2.6706 0-1.1696-.662-2.0467-1.771-2.2807zm7.943 1.4425h-2.667l1.343-3.2943zm1.343 3.5088h1.616l-3.855-9.4737h-.856l-3.894 9.4737h1.616l.857-2.1247h3.679zm8.625-5.9064c0 1.5594-1.265 2.1832-2.687 2.1832h-1.693v-4.3665h1.693c1.402 0 2.687.6823 2.687 2.1833zm1.363 0c0-2.1248-1.636-3.5478-4.166-3.5478h-3.057v9.4737h1.46v-2.3587h1.597c2.53-.0195 4.166-1.423 4.166-3.5672zm9.209 1.1696c0 2.0078-1.48 3.4503-3.368 3.4503-1.869 0-3.349-1.4425-3.349-3.4503s1.48-3.4503 3.349-3.4503c1.888 0 3.368 1.4425 3.368 3.4503zm1.46 0c0-2.6706-2.161-4.8343-4.828-4.8343-2.668 0-4.809 2.1637-4.809 4.8343 0 2.6705 2.141 4.8343 4.809 4.8343 2.667 0 4.828-2.1638 4.828-4.8343zm7.417 1.9298c0 .7992-.428 1.4425-1.713 1.4425h-2.589v-2.885h2.589c1.227-.0195 1.713.6238 1.713 1.4425zm-.428-3.9961c0 .6238-.311 1.2865-1.635 1.2865h-2.239v-2.5731h2.239c1.402 0 1.635.6823 1.635 1.2866zm1.382-.1949c0-1.0137-.467-2.4757-3.173-2.4757h-3.543v9.4737h3.738c2.55 0 3.407-1.1696 3.407-2.6706 0-1.1696-.662-2.0662-1.791-2.2807.876-.3119 1.362-1.0331 1.362-2.0467z" fill="url(#a)"/><g fill="#243444"><path d="m39.736.428837-14.7185 28.654963v14.1131h-10.3769v-14.1131l-14.6406-28.654963h11.7787l8.0601 15.769963 8.1185-15.769963z"/><path d="m120.045.428837v25.126763c0 12.5926-8.897 18.0896-17.269 18.0896-8.3519 0-17.2687-5.497-17.2687-18.0896v-25.126763h10.377v24.814863c0 7.3294 4.1467 8.5575 6.8917 8.5575s6.892-1.2281 6.892-8.5575v-24.814863z"/><path clip-rule="evenodd" d="m80.4454 21.8129c0-12.04683-9.7734-21.8129-21.7857-21.8129-12.0317 0-21.7272 9.78557-21.7272 21.8129 0 12.1052 9.7149 21.8128 21.7272 21.8128 12.0123.0195 21.7857-9.7076 21.7857-21.8128zm-21.7857 11.9883c6.4053 0 11.4088-4.6004 11.4088-11.9883 0-7.3295-5.0035-12.02733-11.4088-12.04683-6.3468 0-11.3503 4.71733-11.3503 12.04683 0 7.4074 5.0035 11.9883 11.3503 11.9883z" fill-rule="evenodd"/></g></svg>