<svg fill="none" height="36" viewBox="0 0 135 36" width="135" xmlns="http://www.w3.org/2000/svg"><g fill="#fff"><path d="m127.835 1.63408h7.165v-1.413535h-15.827v1.413535h7.165v20.59152h1.507v-20.59152zm-23.751 0h5.409c4.291 0 7.884 1.91479 7.884 6.3158 0 4.43112-3.603 6.31582-7.884 6.31582h-5.409zm-1.497-1.413535v22.005055h1.507v-6.5364h5.509c2.445 0 3.722.4411 5.628 3.4286l2.006 3.1078h1.726l-2.345-3.579c-1.347-2.1052-2.505-3.0777-3.782-3.5188 3.503-.9123 6.037-3.2682 6.037-7.1679 0-5.06266-4.161-7.729328-9.45-7.729328h-6.836zm-15.8968 10.155355v-8.74182h11.9851v-1.413535h-13.482v22.005055h13.482v-1.4136h-11.9851v-9.0526h11.3864v-1.3835zm-12.9531-10.3759c-3.7522 0-7.255 2.29574-7.255 5.94486 0 3.01755 2.0657 4.62154 6.5664 5.21304l2.6944.3809c3.5626.4712 5.289 1.8246 5.289 4.6216 0 3.0476-2.9439 4.8722-6.3169 4.8722h-.1896c-3.9717 0-6.6063-1.7945-7.6341-4.4612l-.968.9123c1.2175 2.9875 4.2512 4.9624 8.6021 4.9624h.1896c4.1614 0 7.8238-2.4461 7.8238-6.2857 0-3.7394-2.2852-5.4737-6.6662-6.0351l-2.6944-.38094c-3.7522-.50126-5.1892-1.66416-5.1892-3.8396 0-2.92732 2.9738-4.49123 5.758-4.49123h.3793c2.6644 0 5.1992 1.10276 6.6661 3.17794l.968-.91227c-1.6266-2.35589-4.5006-3.6792-7.6341-3.6792z"/><path d="m56.7124 30.2356h-.7485v4.8722h.4391l2.5647-3.4386v3.4386h.7484v-4.8722h-.439l-2.5647 3.4386zm-1.3971 0h-3.5826v.7118h1.4071v4.1604h.7484v-4.1604h1.4171v-.7118zm-6.8358.7118h.8682c.7284 0 1.3771.3508 1.3771 1.1228 0 .802-.6487 1.1228-1.3771 1.1228h-.8682zm.8183-.7118h-1.5668v4.8722h.7485v-1.2131h.8183c1.2973 0 2.1355-.7318 2.1355-1.8245 0-1.0928-.8382-1.8346-2.1355-1.8346zm-16.3062 1.7945c0-.7419.5987-1.0827 1.3272-1.0827h.9181v2.1754h-.9181c-.7285 0-1.3272-.3208-1.3272-1.0927zm-.3194 2.3859-.449.6918h.8482l.3493-.5614c.3992-.6015.5688-.7118 1.0578-.7218h.7584v1.2832h.7485v-4.8722h-1.5967c-1.2973 0-2.0957.7318-2.0957 1.7945 0 .7719.4391 1.3133 1.1377 1.5539-.2395.1203-.4691.3609-.7585.832zm-3.6125-1.1127.6886-1.6943.6886 1.6943zm.4691-3.0677-1.9959 4.8722h.8183l.4391-1.0928h1.8861l.4391 1.0928h.8282l-1.9759-4.8722zm-4.9198.7118h.8682c.7284 0 1.3771.3508 1.3771 1.1228 0 .802-.6487 1.1228-1.3771 1.1228h-.8682zm.8083-.7118h-1.5668v4.8722h.7485v-1.2131h.8183c1.2973 0 2.1356-.7318 2.1356-1.8245 0-1.0928-.8383-1.8346-2.1356-1.8346zm-2.2853 0h-3.5825v.7118h1.417v4.1604h.7485v-4.1604h1.417zm-8.203 2.4361c0 1.3734 1.0978 2.4862 2.4649 2.4862.7185 0 1.3672-.3108 1.8262-.802l-.489-.4511c-.3492.3508-.8183.5513-1.3472.5513-.958 0-1.7164-.7418-1.7164-1.7744s.7584-1.7744 1.7164-1.7744c.5289 0 .998.2005 1.3472.5513l.489-.4511c-.459-.4912-1.1077-.802-1.8262-.802-1.3671-.01-2.4649 1.1028-2.4649 2.4662zm-.8482-2.4361h-.7485v4.8722h.7485zm-4.23123 2.5664h1.28733c.6387 0 .9181.2907.9181.802 0 .5013-.2395.792-.9181.792h-1.28733zm0-2.5664h-.74845v4.8722h2.01578c1.1477 0 1.6366-.6015 1.6366-1.5038 0-.9123-.5388-1.5037-1.6366-1.5037h-1.27731v-1.8647zm-4.45078 2.5664h1.31728c.63867 0 .91809.2907.91809.802 0 .5013-.2395.792-.91809.792h-1.31728zm2.41501-2.5664h-3.15347v4.8722h2.05574c1.14762 0 1.6366-.6015 1.6366-1.5038 0-.9123-.5289-1.5037-1.6366-1.5037h-1.30729v-1.1529h2.40502zm5.0096-15.2782 7.5443-14.736855h-6.0374l-4.1614 8.110285-4.13143-8.110285h-6.03747l7.50443 14.736855v7.2581h5.31897zm23.0921-3.7394c0 3.7995-2.5647 6.1655-5.8479 6.1655-3.2532 0-5.8179-2.3559-5.8179-6.1655 0-3.76938 2.5647-6.19545 5.8179-6.19545 3.2832.01003 5.8479 2.42607 5.8479 6.19545zm5.319 0c0-6.19545-5.0096-11.218-11.1669-11.218-6.1672 0-11.1369 5.03258-11.1369 11.218 0 6.2256 4.9797 11.2181 11.1369 11.2181 6.1573.01 11.1669-4.9925 11.1669-11.2181zm-1.8163 21.4537c0-1.0326.7585-1.7745 1.7165-1.7745.5289 0 .9979.2005 1.3472.5514l.489-.4511c-.4591-.4912-1.1077-.802-1.8262-.802-1.3672 0-2.4649 1.1128-2.4649 2.4862s1.0977 2.4862 2.4649 2.4862c.7185 0 1.3671-.3108 1.8262-.802l-.489-.4511c-.3493.3509-.8183.5514-1.3472.5514-.968-.0201-1.7165-.7519-1.7165-1.7945zm7.4845-2.4361h-3.1534v4.8722h3.1534v-.7118h-2.405v-1.3935h2.2354v-.7118h-2.2354v-1.3534h2.405zm14.6297-17.0927v-12.922355h-5.319v12.761955c0 3.7694-2.1256 4.401-3.5327 4.401-1.407 0-3.5326-.6316-3.5326-4.401v-12.761955h-5.319v12.922355c0 6.4761 4.5705 9.3032 8.8516 9.3032 4.2911 0 8.8517-2.8271 8.8517-9.3032zm5.5086 19.2782c0 .7518-.5589 1.2932-1.2574 1.2932-.7086 0-1.2574-.5414-1.2574-1.2932 0-.7519.5588-1.3033 1.2574-1.3033.6985 0 1.2574.5514 1.2574 1.3033zm-3.2832 0c0 .7518-.5589 1.2932-1.2574 1.2932-.7086 0-1.2574-.5414-1.2574-1.2932 0-.7519.5588-1.3033 1.2574-1.3033.7085 0 1.2574.5514 1.2574 1.3033zm4.0216 0c0-1.1229-.7784-2.0051-1.926-2.0051-.5788 0-1.0777.3008-1.3372.7218v-.8922h-.7485v.9023c-.2594-.4311-.7584-.7319-1.3372-.7319-1.1576 0-1.936.8923-1.936 2.0051 0 1.1228.7784 2.005 1.936 2.005.5788 0 1.0778-.2908 1.3372-.7118v1.3935h.7485v-1.3935c.2595.421.7584.7118 1.3372.7118 1.1377 0 1.926-.8822 1.926-2.005zm3.7722 2.6867h.7484v-4.8722h-.439l-2.5647 3.4386v-3.4386h-.7485v4.8722h.4391l2.5647-3.4386zm4.0416-2.4862c.1697-.0903.3293-.2507.6088-.6617l1.0977-1.7143h-.8483l-.938 1.4837c-.2695.411-.3892.5614-.7984.5614h-.5588v-2.0351h-.7484v4.8722h.7484v-2.1052h.6187c.4191 0 .5289.1403.7984.5614l.9979 1.5538h.8482l-1.1476-1.7944c-.3093-.4913-.469-.6617-.6786-.7218zm4.9797.6817h-1.3672l.6886-1.6943zm.6886 1.8045h.8183l-1.9759-4.8722h-.4391l-1.9959 4.8722h.8283l.4391-1.0928h1.8861zm5.0694.8922h.7485v-1.604h-.6387v-4.1604h-.7484v4.1604h-2.2055v-4.1604h-.7484v4.8722h3.5925zm4.3909-.8922h.7485v-4.8722h-.4391l-2.5647 3.4386v-3.4386h-.7484v4.8722h.4391l2.5646-3.4386zm4.4209-1.985h-.9181c-.7285 0-1.3273-.3308-1.3273-1.0927 0-.7419.5988-1.0827 1.3273-1.0827h.9181zm0 1.985h.7484v-4.8722h-1.5967c-1.2973 0-2.0956.7318-2.0956 1.7945 0 .7719.4391 1.3133 1.1376 1.5539-.2395.1203-.459.3609-.7584.822l-.4491.6917h.8483l.3493-.5614c.3891-.6015.5688-.7117 1.0578-.7218h.7584zm5.4583-4.1604h1.417v-.7118h-3.5821v.7118h1.417v4.1604h.7481zm5.908 1.7243c0 1.0326-.758 1.7744-1.726 1.7744-.958 0-1.717-.7418-1.717-1.7744s.759-1.7745 1.717-1.7745c.968 0 1.726.7419 1.726 1.7745zm.749 0c0-1.3735-1.108-2.4862-2.475-2.4862s-2.465 1.1127-2.465 2.4862c0 1.3734 1.098 2.4862 2.465 2.4862s2.475-1.1128 2.475-2.4862zm3.802.9925c0 .411-.22.7418-.879.7418h-1.317v-1.4837h1.317c.619-.01.879.3208.879.7419zm-.22-2.0552c0 .3208-.16.6617-.838.6617h-1.138v-1.3233h1.138c.718 0 .838.3508.838.6616zm.02.9524c.439-.1604.689-.5313.689-1.0526s-.24-1.2732-1.627-1.2732h-1.816v4.8722h1.916c1.307 0 1.746-.6015 1.746-1.3735 0-.6015-.339-1.0526-.908-1.1729zm4.072.7419h-1.368l.689-1.6943zm.688 1.8045h.828l-1.975-4.8722h-.439l-1.996 4.8722h.828l.439-1.0928h1.886zm4.421-3.0376c0 .802-.649 1.1228-1.377 1.1228h-.868v-2.2456h.868c.718 0 1.377.3508 1.377 1.1228zm.699 0c0-1.0928-.839-1.8246-2.136-1.8246h-1.567v4.8722h.749v-1.213h.818c1.297-.0101 2.136-.7319 2.136-1.8346zm4.72.6015c0 1.0326-.759 1.7744-1.727 1.7744-.958 0-1.716-.7418-1.716-1.7744s.758-1.7745 1.716-1.7745c.968 0 1.727.7419 1.727 1.7745zm.748 0c0-1.3735-1.107-2.4862-2.475-2.4862-1.367 0-2.464 1.1127-2.464 2.4862 0 1.3734 1.097 2.4862 2.464 2.4862 1.368 0 2.475-1.1128 2.475-2.4862zm3.802.9925c0 .411-.219.7418-.878.7418h-1.327v-1.4837h1.327c.629-.01.878.3208.878.7419zm-.219-2.0552c0 .3208-.16.6617-.838.6617h-1.148v-1.3233h1.148c.718 0 .838.3508.838.6616zm.708-.1002c0-.5213-.239-1.2732-1.626-1.2732h-1.817v4.8722h1.917c1.307 0 1.746-.6015 1.746-1.3735 0-.6015-.339-1.0626-.918-1.1729.449-.1604.698-.5313.698-1.0526z"/></g></svg>