<svg width="371" height="137" viewBox="0 0 371 137" fill="none" xmlns="http://www.w3.org/2000/svg">
<ellipse cx="253.5" cy="63" rx="35" ry="33" fill="#91CEEB"/>
<g clip-path="url(#clip0_1063_13910)">
<path d="M156.494 35.0028C156.382 35.371 156.246 35.731 156.085 36.0804C155.925 36.4186 155.698 36.7204 155.416 36.967C155.084 37.2461 154.699 37.4549 154.284 37.5808C153.695 37.7486 153.083 37.8268 152.47 37.8126C151.862 37.8279 151.255 37.7497 150.67 37.5808C150.253 37.4582 149.868 37.249 149.538 36.967C149.252 36.7217 149.019 36.4198 148.856 36.0804C148.701 35.7285 148.564 35.3689 148.446 35.0028L145.227 24.9229C145.169 24.7422 145.1 24.5646 145.023 24.391C145.023 24.2546 144.886 24.1727 144.805 24.1727C144.723 24.1727 144.586 24.2682 144.586 24.4455C144.586 24.6229 144.586 24.7593 144.586 24.8547L144.791 37.5671H137.971V20.1217C137.923 19.3564 138.156 18.5998 138.626 17.9939C139.04 17.5184 139.558 17.1449 140.14 16.9027C140.696 16.6972 141.28 16.5776 141.872 16.548C142.431 16.548 142.854 16.548 143.141 16.548C143.596 16.5515 144.052 16.5788 144.505 16.6299C145.03 16.6907 145.541 16.8382 146.019 17.0663C146.533 17.319 146.996 17.666 147.383 18.0893C147.85 18.652 148.202 19.3007 148.419 19.9989L151.884 30.0515C151.884 30.0515 151.884 30.1879 151.979 30.2971C152.021 30.401 152.071 30.5014 152.129 30.5971C152.178 30.7016 152.243 30.7981 152.32 30.8836C152.342 30.916 152.37 30.9436 152.403 30.9647C152.436 30.9858 152.473 31 152.511 31.0063C152.511 31.0063 152.634 31.0063 152.702 30.8836C152.78 30.7953 152.848 30.6993 152.907 30.5971L153.057 30.2971C153.057 30.1879 153.057 30.1061 153.139 30.0515L156.508 19.9034C156.708 19.1984 157.062 18.5463 157.544 17.9939C157.931 17.5706 158.394 17.2235 158.908 16.9709C159.378 16.7519 159.88 16.6092 160.395 16.548C160.875 16.4947 161.358 16.4674 161.841 16.4662C162.793 16.429 163.743 16.5583 164.651 16.8481C165.227 17.0433 165.75 17.3702 166.178 17.8029C166.527 18.1251 166.774 18.5424 166.888 19.0032C166.974 19.3698 167.02 19.745 167.024 20.1217V37.5671H160.204L160.436 24.8547C160.457 24.6675 160.424 24.4781 160.34 24.3091C160.34 24.2137 160.231 24.1727 160.163 24.1727C160.095 24.1727 160.054 24.1727 159.986 24.3364C159.895 24.5265 159.818 24.7224 159.754 24.9229L156.494 35.0028Z" fill="#282E3D"/>
<path d="M183.528 21.7584C184.363 21.7274 185.196 21.8762 185.969 22.1949C186.513 22.4177 187.012 22.7365 187.442 23.1361C187.752 23.4461 188.014 23.8 188.22 24.1863C188.407 24.5589 188.562 24.9468 188.684 25.3457C188.791 25.7288 188.86 26.1218 188.888 26.5188C188.888 26.9007 188.888 27.2553 188.888 27.569V34.198C188.887 34.6328 188.846 35.0665 188.765 35.4938C188.684 35.9664 188.455 36.4011 188.111 36.735C187.779 37.1131 187.325 37.3638 186.829 37.4443C186.378 37.5229 185.922 37.564 185.465 37.5671H176.162C175.66 37.5669 175.158 37.5258 174.662 37.4443C174.143 37.3609 173.664 37.1122 173.298 36.735C172.993 36.4596 172.747 36.1256 172.575 35.753C172.401 35.374 172.273 34.9756 172.193 34.5663C172.109 34.1711 172.059 33.7696 172.043 33.366C172.043 32.9704 172.043 32.6022 172.043 32.2884C172.043 31.9747 172.043 31.5928 172.043 31.2245C172.072 30.8754 172.127 30.5289 172.207 30.1879C172.3 29.8313 172.438 29.4877 172.616 29.1649C172.802 28.84 173.052 28.5567 173.352 28.3329C173.746 28.016 174.217 27.8089 174.716 27.7327C175.169 27.681 175.625 27.6537 176.08 27.6509H182.996V27.4053C183.007 27.2419 183.007 27.0778 182.996 26.9143C182.963 26.7141 182.878 26.526 182.75 26.3687C182.548 26.0857 182.246 25.8905 181.905 25.8231C181.589 25.77 181.27 25.7426 180.95 25.7413H173.052V21.7584H183.528ZM178.931 31.3064C178.8 31.2908 178.667 31.2908 178.536 31.3064C178.362 31.3302 178.201 31.4064 178.072 31.5246C177.977 31.6181 177.911 31.7363 177.881 31.8656C177.867 32.0016 177.867 32.1388 177.881 32.2748C177.869 32.3927 177.869 32.5115 177.881 32.6294C177.912 32.7547 177.978 32.8684 178.072 32.9568C178.174 33.0565 178.301 33.1271 178.44 33.1614C178.585 33.1801 178.732 33.1801 178.877 33.1614H181.891C182.049 33.1815 182.21 33.1815 182.368 33.1614C182.512 33.1405 182.648 33.0843 182.764 32.9977C182.889 32.916 182.977 32.7888 183.009 32.6431C183.024 32.5025 183.024 32.3608 183.009 32.2202V31.2382L178.931 31.3064Z" fill="#282E3D"/>
<path d="M193.703 28.4147C193.703 28.0328 193.703 27.6236 193.703 27.1735C193.742 26.7121 193.824 26.2554 193.949 25.8095C194.075 25.3303 194.268 24.8711 194.522 24.4455C194.788 23.9871 195.134 23.5805 195.545 23.2452C195.956 22.9024 196.415 22.6221 196.909 22.4132C197.454 22.2251 198.015 22.0881 198.586 22.004C199.087 21.9136 199.592 21.8543 200.1 21.8267H201.464H205.338V25.9186H203.306C202.759 25.917 202.214 25.9811 201.682 26.1096C201.127 26.2446 200.642 26.5797 200.318 27.0507C199.982 27.4887 199.761 28.0049 199.677 28.5511C199.588 29.0509 199.543 29.5575 199.541 30.0652V37.608H193.703V28.4147Z" fill="#282E3D"/>
<path d="M209.171 37.567V16.6843H215.022V37.567H209.171ZM221.079 37.567L216.782 31.9065C216.415 31.4631 216.145 30.9471 215.991 30.3924C215.915 30.0561 215.87 29.7138 215.854 29.3694C215.837 28.8982 215.936 28.43 216.141 28.0054C216.345 27.6305 216.568 27.2663 216.809 26.9143L220.424 21.7857H226.753L221.951 28.0736C221.825 28.2494 221.724 28.4423 221.651 28.6465C221.577 28.8287 221.535 29.0227 221.529 29.2194C221.534 29.4661 221.595 29.7085 221.706 29.9287C221.822 30.1832 221.964 30.4254 222.129 30.6516L227.585 37.5943L221.079 37.567Z" fill="#282E3D"/>
<path d="M237.174 37.5671C236.573 37.5671 236.014 37.5671 235.482 37.5671C234.966 37.5524 234.454 37.4792 233.955 37.3489C233.468 37.223 233.007 37.0154 232.591 36.7351C232.155 36.4104 231.789 36.0024 231.513 35.5347C231.144 34.8615 230.921 34.1178 230.858 33.3524C230.748 32.1963 230.698 31.0354 230.708 29.8742V27.7873C230.701 27.1717 230.738 26.5564 230.817 25.9459C230.879 25.4105 231.003 24.8841 231.186 24.3773C231.36 23.9099 231.635 23.4862 231.99 23.1361C232.369 22.7369 232.836 22.433 233.354 22.2495C233.942 22.0326 234.549 21.8772 235.169 21.7857C235.855 21.6831 236.548 21.6239 237.242 21.6084H239.465C241.075 21.6084 242.411 21.6084 243.462 21.7584C244.381 21.8074 245.265 22.1304 245.999 22.686C246.381 22.9773 246.693 23.35 246.913 23.7771C247.13 24.2134 247.304 24.6703 247.431 25.1411C247.551 25.6147 247.624 26.099 247.649 26.587C247.649 27.078 247.649 27.5418 247.649 27.951C247.644 28.4765 247.598 29.0009 247.513 29.5195C247.424 30.0619 247.131 30.5499 246.694 30.8835C246.482 31.0821 246.217 31.2148 245.93 31.2655C245.669 31.3096 245.404 31.3324 245.139 31.3337H236.519C236.479 31.5592 236.479 31.7901 236.519 32.0156C236.56 32.2259 236.633 32.4284 236.737 32.6158C236.857 32.8077 237.022 32.9684 237.216 33.0845C237.41 33.2007 237.63 33.2691 237.856 33.2842C238.358 33.3395 238.864 33.3668 239.37 33.366H247.035V37.5944L237.174 37.5671ZM240.938 27.61C241.347 27.61 241.62 27.5008 241.729 27.3099C241.828 27.1442 241.884 26.9568 241.893 26.7643C241.891 26.5369 241.814 26.3164 241.675 26.1368C241.451 25.8916 241.146 25.7364 240.815 25.7004C240.584 25.7004 240.297 25.6322 239.983 25.6049H239.261H238.156C237.838 25.6142 237.526 25.6934 237.242 25.8368C237.101 25.9029 236.976 25.9997 236.877 26.12C236.778 26.2403 236.707 26.3812 236.669 26.5324C236.605 26.8842 236.605 27.2446 236.669 27.5963L240.938 27.61Z" fill="#282E3D"/>
<path d="M260.334 37.567H259.297C258.423 37.5356 257.556 37.3889 256.719 37.1305C256.259 36.9981 255.825 36.7858 255.437 36.5031C254.796 36.0693 254.282 35.471 253.951 34.7708C253.617 34.1057 253.44 33.3733 253.432 32.6294V25.8094H251.195V21.7175H253.432V16.6843H259.284V21.7584H263.73V25.8503H259.229V29.4649C259.228 30.0424 259.287 30.6185 259.407 31.1835C259.526 31.7405 259.817 32.2461 260.239 32.6294C260.617 32.977 261.093 33.2007 261.603 33.2705C262.022 33.3372 262.446 33.3737 262.871 33.3796H263.73V37.6079L260.334 37.567Z" fill="#282E3D"/>
<path d="M158.294 63.442C158.331 64.0047 158.198 64.5655 157.912 65.0515C157.736 65.3477 157.52 65.6184 157.271 65.8563C156.635 66.3559 155.842 66.6122 155.034 66.5792H145.159C144.234 66.5614 143.315 66.4144 142.431 66.1427C141.507 65.8798 140.655 65.4138 139.935 64.7787C139.359 64.2803 138.895 63.667 138.571 62.9783C138.24 62.2717 137.988 61.5306 137.821 60.7686C137.657 59.9997 137.548 59.2203 137.493 58.4362C137.493 57.6451 137.493 56.9085 137.493 56.2129C137.493 55.5172 137.493 54.5215 137.575 53.6622C137.63 52.8108 137.763 51.9663 137.971 51.1388C138.155 50.3451 138.454 49.5824 138.857 48.8746C139.262 48.1721 139.81 47.5631 140.467 47.0878C140.933 46.7254 141.459 46.4484 142.022 46.2694C142.536 46.0845 143.066 45.9431 143.604 45.8465C144.053 45.7562 144.51 45.7014 144.968 45.6829C145.363 45.6829 145.623 45.6829 145.759 45.6829H157.939V50.6478H148.801C148.079 50.5638 147.347 50.6812 146.688 50.9869C146.028 51.2926 145.466 51.7748 145.063 52.3801C144.704 52.9429 144.484 53.5836 144.422 54.2487C144.422 54.9307 144.313 55.6127 144.313 56.131C144.318 56.7599 144.354 57.3881 144.422 58.0133C144.483 58.6999 144.702 59.363 145.063 59.9502C145.38 60.4744 145.859 60.8813 146.427 61.1096C146.944 61.2917 147.489 61.384 148.037 61.3824H150.069H150.656C150.865 61.3519 151.057 61.2508 151.201 61.096C151.36 60.9479 151.466 60.7512 151.501 60.5367C151.522 60.319 151.522 60.0998 151.501 59.882V55.5445H158.321L158.294 63.442Z" fill="#933FA1"/>
<path d="M179.354 45.6964V57.6859C179.362 58.1984 179.412 58.7094 179.505 59.2136C179.631 59.7614 179.951 60.2455 180.405 60.5775C180.745 60.8366 181.135 61.0223 181.551 61.1231C181.994 61.2493 182.453 61.3136 182.914 61.3141C183.376 61.3127 183.835 61.2485 184.278 61.1231C184.693 61.0195 185.082 60.834 185.424 60.5775C185.667 60.3865 185.871 60.1503 186.024 59.8819C186.155 59.6291 186.26 59.3641 186.338 59.0908C186.408 58.8374 186.444 58.5761 186.447 58.3133C186.447 58.0678 186.447 57.8359 186.447 57.6177V45.6964H193.199V58.2178C193.199 58.7599 193.172 59.3017 193.117 59.841C193.071 60.3872 192.966 60.9268 192.803 61.4505C192.642 61.9973 192.417 62.5236 192.135 63.0191C191.829 63.549 191.453 64.0354 191.017 64.4649C190.505 64.9825 189.91 65.4112 189.257 65.7334C188.611 66.0361 187.934 66.2693 187.238 66.4291C186.525 66.5898 185.8 66.6947 185.07 66.7428C184.319 66.7428 183.583 66.811 182.846 66.811C182.11 66.811 181.346 66.811 180.609 66.7428C179.879 66.6938 179.154 66.5889 178.441 66.4291C177.745 66.2693 177.068 66.0361 176.422 65.7334C175.773 65.4044 175.18 64.9765 174.662 64.4649C174.287 64.023 173.967 63.5376 173.708 63.0191C173.431 62.5209 173.207 61.9952 173.039 61.4505C172.884 60.9252 172.779 60.3863 172.725 59.841C172.698 59.3003 172.698 58.7586 172.725 58.2178V45.6964H179.354Z" fill="#933FA1"/>
<path d="M208.23 49.6929C208.233 49.1768 208.274 48.6616 208.353 48.1516C208.431 47.6124 208.668 47.1088 209.035 46.7058C209.396 46.2985 209.871 46.0087 210.399 45.8737C210.846 45.7663 211.303 45.7068 211.763 45.6964H223.125C223.452 45.6964 223.834 45.6964 224.27 45.6964C224.732 45.7158 225.19 45.789 225.634 45.9146C226.116 46.0543 226.575 46.2609 226.998 46.5284C227.464 46.8313 227.863 47.2258 228.171 47.6878C228.632 48.3811 228.93 49.1689 229.044 49.993C229.177 50.8093 229.246 51.6348 229.249 52.4618C229.249 52.7073 229.249 53.0347 229.249 53.4439C229.243 53.9 229.211 54.3554 229.154 54.8079C229.085 55.2853 229.017 55.7763 228.908 56.2673C228.82 56.735 228.682 57.1922 228.499 57.6313C228.182 58.4541 227.608 59.1526 226.862 59.6228C226.179 60.0211 225.402 60.2284 224.611 60.2229H223.725V60.3457L229.631 66.5791H221.447L217.355 61.1231C217.014 60.6594 216.687 60.2093 216.387 59.7592C216.084 59.3329 215.922 58.8226 215.923 58.2997V57.8496C215.919 57.5187 215.993 57.1915 216.14 56.8951C216.287 56.5986 216.502 56.3414 216.769 56.1446C217.398 55.6904 218.162 55.46 218.937 55.4899H220.015C220.344 55.4878 220.673 55.4558 220.997 55.3944C221.347 55.33 221.662 55.141 221.883 54.8624C222.055 54.616 222.176 54.3378 222.238 54.044C222.301 53.748 222.333 53.4464 222.334 53.1438C222.358 52.7168 222.293 52.2894 222.143 51.8889C222.059 51.7045 221.953 51.5305 221.829 51.3706C221.597 51.1113 221.275 50.9503 220.929 50.9205C220.602 50.9005 220.274 50.9005 219.947 50.9205H216.223C216.037 50.899 215.849 50.899 215.664 50.9205C215.477 50.9624 215.307 51.0571 215.173 51.1933C214.981 51.3457 214.854 51.565 214.818 51.8071C214.804 52.0433 214.804 52.2802 214.818 52.5164V66.5655H207.998L208.23 49.6929Z" fill="#933FA1"/>
<path d="M250.459 45.6964V57.6859C250.459 58.1988 250.509 58.7104 250.609 59.2136C250.735 59.758 251.049 60.2407 251.495 60.5775C251.837 60.834 252.226 61.0195 252.641 61.1231C253.085 61.2485 253.544 61.3127 254.005 61.3141C254.466 61.3136 254.925 61.2493 255.369 61.1231C255.783 61.0195 256.173 60.834 256.515 60.5775C256.761 60.3903 256.966 60.1533 257.115 59.8819C257.251 59.6318 257.356 59.3661 257.429 59.0908C257.496 58.8365 257.537 58.576 257.551 58.3133C257.551 58.0678 257.551 57.8359 257.551 57.6177V45.6964H264.289V58.2178C264.289 58.7634 264.289 59.2954 264.221 59.841C264.162 60.3853 264.057 60.9237 263.907 61.4505C263.74 61.9952 263.516 62.5209 263.239 63.0191C262.924 63.5433 262.549 64.0286 262.121 64.4649C261.603 64.9765 261.01 65.4044 260.361 65.7334C259.715 66.0361 259.038 66.2693 258.342 66.4291C257.624 66.5898 256.894 66.6947 256.16 66.7428C255.423 66.7428 254.673 66.811 253.937 66.811C253.2 66.811 252.436 66.811 251.7 66.7428C250.974 66.6947 250.254 66.5898 249.545 66.4291C248.849 66.2693 248.172 66.0361 247.526 65.7334C246.873 65.4112 246.278 64.9825 245.766 64.4649C245.33 64.0354 244.954 63.549 244.648 63.0191C244.366 62.5236 244.141 61.9973 243.98 61.4505C243.817 60.9268 243.712 60.3872 243.666 59.841C243.611 59.3017 243.584 58.7599 243.584 58.2178V45.6964H250.459Z" fill="#933FA1"/>
<path d="M102.098 77.0001C116.32 77.0001 127.85 76.3772 127.85 75.6088C127.85 74.8404 116.32 74.2175 102.098 74.2175C87.8753 74.2175 76.3457 74.8404 76.3457 75.6088C76.3457 76.3772 87.8753 77.0001 102.098 77.0001Z" fill="url(#paint0_radial_1063_13910)"/>
<path d="M66.5243 50.3885C66.6154 50.469 66.7162 50.5377 66.8244 50.5931C68.1645 51.1033 69.5921 51.3443 71.0254 51.3024C71.1608 51.3086 71.2943 51.3362 71.421 51.3842C72.769 51.9818 74.255 52.1987 75.7176 52.0117C76.4413 51.8788 77.1291 51.5954 77.7363 51.1796C77.8785 51.0605 78.0467 50.9765 78.2273 50.9341C80.8293 50.2101 83.4984 49.7531 86.193 49.5701H86.5067C86.9429 49.543 87.3646 49.403 87.7304 49.1639C88.0962 48.9248 88.3937 48.5947 88.5936 48.2061L89.2074 47.0467L88.9619 44.6325C88.9552 44.5873 88.9552 44.5413 88.9619 44.4961V44.3051C88.9783 44.1409 89.0537 43.9882 89.1741 43.8754C89.2945 43.7625 89.4517 43.6971 89.6166 43.6913H91.0898L94.3224 38.5082C94.3224 38.5082 94.3906 38.3854 94.4179 38.3854C94.4452 38.3854 94.4179 38.4945 94.4179 38.5218C94.4861 38.7673 94.5406 39.0128 94.5952 39.2584C94.9503 40.6985 95.2056 42.1615 95.359 43.6368H108.235C108.315 42.4169 108.507 41.2069 108.808 40.0222C108.907 39.6449 109.035 39.2756 109.19 38.9174V38.8355C109.218 38.7546 109.255 38.6769 109.299 38.6036L109.367 38.4945L110.595 40.1177L113.009 43.6368H114.591C114.677 43.6366 114.763 43.6533 114.842 43.6861C114.922 43.7188 114.994 43.767 115.055 43.8277C115.169 43.9429 115.246 44.0906 115.273 44.2506V44.3733V44.4824C115.273 44.4824 115.273 44.4824 115.273 44.6461L115.123 46.5557C115.655 47.0642 116.215 47.5424 116.801 47.9879C117.026 48.169 117.288 48.2994 117.568 48.37C117.848 48.4406 118.14 48.4499 118.424 48.3971C118.628 48.3588 118.829 48.304 119.024 48.2334C122.939 46.8149 121.875 38.9583 123.239 36.1212C123.258 36.0861 123.283 36.055 123.314 36.0298C123.344 36.0045 123.38 35.9857 123.418 35.9742C123.456 35.9628 123.496 35.9591 123.535 35.9632C123.575 35.9674 123.613 35.9793 123.648 35.9984C123.859 36.1244 124.094 36.2058 124.338 36.2375C124.582 36.2692 124.83 36.2507 125.066 36.1829C125.303 36.1152 125.523 35.9997 125.713 35.8437C125.903 35.6876 126.059 35.4942 126.172 35.2755C127.216 33.9978 128.066 32.573 128.695 31.0471C128.874 30.6163 128.94 30.1467 128.886 29.6831C128.79 29.083 128.531 28.7693 128.095 28.7556C128.004 28.7545 127.915 28.725 127.842 28.6712C127.769 28.6174 127.714 28.542 127.686 28.4556C127.386 27.6781 126.922 27.2962 126.322 27.5417C126.224 27.5729 126.119 27.5711 126.023 27.5366C125.927 27.5021 125.845 27.4367 125.79 27.3507C125.616 27.0179 125.331 26.7558 124.986 26.6091C124.64 26.4624 124.254 26.44 123.894 26.546C123.863 26.5526 123.831 26.5509 123.801 26.541C123.771 26.5312 123.744 26.5135 123.724 26.4899C123.703 26.4663 123.689 26.4376 123.682 26.4067C123.676 26.3758 123.679 26.3438 123.689 26.3141C124.085 25.2855 124.302 24.1968 124.33 23.0951C124.349 22.3967 124.127 21.7131 123.703 21.1582C123.089 20.3535 122.448 19.9715 121.766 20.4489C121.543 20.6131 121.368 20.8334 121.257 21.0873C121.147 21.3413 121.106 21.6198 121.138 21.8948C121.297 23.6266 121.205 25.3723 120.866 27.0779C120.184 27.0779 119.72 27.6372 119.502 28.6874C119.458 28.9122 119.435 29.1405 119.433 29.3694V32.3293C119.407 32.8876 119.587 33.4361 119.938 33.8706C119.998 33.952 120.037 34.0469 120.051 34.1468C120.065 34.2467 120.055 34.3486 120.02 34.4435C119.32 36.6342 118.454 38.7682 117.428 40.827L113.173 33.4614C113.001 33.0255 112.74 32.6304 112.406 32.3016C112.073 31.9727 111.674 31.7173 111.236 31.5518L110.827 31.3881L110.322 31.1972C110.008 31.5518 109.667 31.9201 109.299 32.2884L108.672 32.8612L108.344 33.1477L108.017 33.4341L107.676 33.7206L107.089 34.1843C106.803 34.4298 106.489 34.6617 106.189 34.9072L105.534 35.4119L104.784 35.9711L103.679 36.8168L102.766 37.5261L102.547 37.758C102.255 38.0275 102.063 38.3881 102.002 38.781C101.982 38.9075 101.982 39.0364 102.002 39.1629V39.2311C102.002 39.2311 102.002 39.2993 102.002 39.3402C101.995 39.3809 101.995 39.4223 102.002 39.463V39.6266V39.7221V39.7903L102.097 39.8994L102.206 40.0086C102.315 40.078 102.435 40.1287 102.561 40.1586C102.73 40.2064 102.91 40.2064 103.079 40.1586C103.148 40.1343 103.209 40.0919 103.257 40.0358C103.584 39.7221 103.407 39.1083 102.916 38.74C103.13 38.7083 103.349 38.7281 103.555 38.798C103.76 38.8679 103.946 38.9857 104.096 39.1418C104.247 39.2978 104.358 39.4875 104.421 39.6952C104.484 39.9029 104.496 40.1226 104.457 40.3359C104.443 40.4612 104.415 40.5847 104.375 40.7042C104.306 40.9508 104.169 41.1729 103.979 41.3453C103.807 41.4776 103.608 41.5716 103.397 41.621C103.185 41.6704 102.965 41.674 102.752 41.6317C101.674 41.463 100.699 40.893 100.024 40.0358C99.4647 39.3948 98.9463 38.5764 98.2507 37.5943C97.9643 37.1851 97.6505 36.7486 97.2823 36.2303C97.1595 36.0666 94.8544 33.7069 94.7043 33.5023C94.187 32.9715 93.6954 32.4162 93.2312 31.8383L93.0675 31.6473C92.8585 31.747 92.6617 31.8706 92.481 32.0156C92.0678 32.3467 91.7403 32.7725 91.5262 33.2568L84.6108 44.0323C83.0695 44.2642 81.7601 45.2463 78.9093 47.7424C78.8695 47.7764 78.8219 47.7999 78.7707 47.8107C78.7195 47.8216 78.6664 47.8194 78.6162 47.8045C78.566 47.7896 78.5204 47.7624 78.4835 47.7253C78.4465 47.6883 78.4194 47.6425 78.4046 47.5923C78.3052 47.1976 78.0973 46.8385 77.8045 46.5557C77.2497 47.5412 76.4586 48.3733 75.5024 48.977C74.5461 49.5808 73.4547 49.9373 72.3265 50.0144C71.1982 50.0915 70.0684 49.8868 69.0389 49.4188C68.0094 48.9507 67.1125 48.234 66.4288 47.3332H66.1424C64.792 48.0561 65.0239 49.0791 66.5243 50.3885Z" fill="#F2C494" stroke="#282E3D" stroke-width="1.26851" stroke-miterlimit="10" stroke-linecap="square"/>
<path d="M113.772 59.8C116.064 58.3133 118.014 57.0038 119.679 56.0081L119.992 55.8172C120.456 55.5444 120.906 55.2852 121.356 55.067L121.656 54.9033L122.011 54.7396L122.188 54.6578L122.366 54.5759C122.798 54.3817 123.258 54.2574 123.73 54.2076C122.366 54.3168 117.114 54.726 114.864 55.1761L114.182 56.2809L113.772 59.8Z" fill="#F2C494" stroke="#282E3D" stroke-width="1.26851" stroke-miterlimit="10" stroke-linecap="square"/>
<path d="M93.5449 61.6551L94.7452 62.4053L95.059 62.5827L95.6045 62.91L95.9183 63.101C97.5687 64.0831 99.3828 65.1197 101.511 66.2382C101.667 66.3227 101.832 66.3912 102.002 66.4428H102.124C102.542 66.2968 102.948 66.119 103.338 65.9108L103.925 65.5971L104.511 65.2697L105.084 64.956L107.021 63.8375L107.226 63.7284L109.231 62.5281L109.558 62.3371L109.967 62.078L110.745 61.6006L93.5449 61.6551Z" fill="#282E3D" stroke="#282E3D" stroke-width="1.26851" stroke-miterlimit="10" stroke-linecap="square"/>
<path d="M79.5918 54.2077H79.9328C80.7588 54.1992 81.5756 54.3812 82.3198 54.7396C82.5107 54.8351 82.7017 54.9306 82.879 55.0397L83.4383 55.3398L84.5158 55.9536L85.0478 56.2537L85.1978 56.3355L85.7434 56.6629L86.2754 56.9902L87.0801 57.4813L87.8576 57.9587L90.5856 59.6909L90.2173 56.1718L89.9036 54.7396C86.6982 54.3032 82.1697 53.6484 79.5918 54.2077Z" fill="#F2C494" stroke="#282E3D" stroke-width="1.26851" stroke-miterlimit="10" stroke-linecap="square"/>
<path d="M114.128 56.2537L114.223 55.449L115.301 44.4143" stroke="#282E3D" stroke-width="1.26851" stroke-miterlimit="10" stroke-linecap="square"/>
<path d="M113.363 67.9704C113.231 68.6695 112.905 69.3173 112.423 69.8405C111.941 70.3637 111.321 70.7412 110.636 70.9303C110.372 70.9987 110.103 71.0399 109.831 71.053C107.416 71.1894 106.98 70.6438 104.129 70.1937L103.12 70.0573L102.506 69.9482H102.206C103.011 69.8118 105.152 69.4162 105.439 69.3344C108.098 68.5706 110.704 67.8613 113.173 67.1111C113.336 67.366 113.403 67.6704 113.363 67.9704Z" fill="#F2C494" stroke="#282E3D" stroke-width="1.26851" stroke-miterlimit="10" stroke-linecap="square"/>
<path d="M101.865 66.5382C101.592 66.62 101.633 66.6746 101.347 66.7019H100.842C100.32 66.7292 99.7959 66.7292 99.2734 66.7019C98.153 66.6301 97.0496 66.391 95.9999 65.9926C95.5529 65.8042 95.0785 65.689 94.595 65.6516C93.9578 65.5423 93.3031 65.6034 92.6971 65.8285C92.0911 66.0537 91.5553 66.435 91.1441 66.9337C85.047 65.0105 80.5459 62.9236 77.9543 60.6867C77.3121 60.1356 76.8607 59.3955 76.6647 58.5723C76.4687 57.7491 76.5381 56.885 76.8631 56.1036C77.4265 55.1964 78.3223 54.5453 79.3592 54.2895C79.6633 54.2188 79.9744 54.1822 80.2867 54.1804H80.7095C81.1808 54.2302 81.6412 54.3545 82.0735 54.5487L82.2508 54.6305L82.319 54.7397L82.701 54.9306L83.001 55.0943C83.4239 55.3125 83.874 55.5717 84.365 55.8445L84.6787 56.0354C86.3428 57.0312 88.307 58.3406 90.5848 59.8273H90.6939L91.0213 60.0319L91.3623 60.2502L91.8806 60.5912L92.0034 60.673L92.3716 60.9049L92.7399 61.1368L93.5038 61.6142L94.2812 62.0916L95.0178 62.5417L97.0229 63.742L97.2275 63.8511L99.1643 64.9696L99.7372 65.2833L100.324 65.6107L100.91 65.9244C101.204 66.1651 101.524 66.3711 101.865 66.5382Z" fill="#F2C494" stroke="#282E3D" stroke-width="1.26851" stroke-miterlimit="10" stroke-linecap="square"/>
<path d="M126.513 60.5911C123.239 63.5374 118.629 65.3515 113.459 67.0155H113.146C110.663 67.7657 108.072 68.475 105.398 69.2388C105.125 69.3207 102.984 69.7162 102.179 69.8526H101.906L100.856 70.0027C98.7556 70.33 97.3098 70.7938 95.1956 70.9438C94.4848 71.0178 93.7671 70.9044 93.1138 70.6148C92.4605 70.3253 91.8944 69.8697 91.4719 69.2934C91.1868 68.8532 91.0049 68.3543 90.9399 67.8339C90.8804 67.4986 90.9485 67.1531 91.1309 66.8655C91.5509 66.3767 92.0922 66.0072 92.7004 65.7941C93.3086 65.581 93.9622 65.5318 94.5954 65.6515C95.0658 65.6976 95.5261 65.8173 95.9594 66.0062C97.0091 66.4046 98.1125 66.6437 99.233 66.7154C99.7555 66.7428 100.279 66.7428 100.802 66.7154H101.415C101.702 66.6886 101.985 66.6337 102.261 66.5518H102.384C102.554 66.5002 102.718 66.4317 102.875 66.3472C105.003 65.2287 106.817 64.1921 108.467 63.21L108.795 63.019L109.327 62.6917L109.627 62.5144L110.827 61.7642C111.372 61.4368 111.891 61.1094 112.395 60.7821L112.586 60.6593L112.764 60.5366H112.859L113.514 60.1137L113.869 59.8819L116.597 58.1496L117.374 57.6722L118.179 57.1812L118.711 56.8538L119.256 56.5264L119.406 56.4446L119.938 56.1445L121.016 55.5307L121.575 55.2306C121.752 55.1215 121.943 55.026 122.134 54.9306C122.865 54.5506 123.671 54.3407 124.494 54.3168H124.835C127.672 54.7396 129.459 57.9586 126.513 60.5911Z" fill="#F2C494" stroke="#282E3D" stroke-width="1.26851" stroke-miterlimit="10" stroke-linecap="square"/>
<path d="M104.853 41.5907C105.139 41.5907 105.384 41.5907 105.644 41.5907C105.885 41.5587 106.122 41.5039 106.353 41.4271C106.801 41.27 107.21 41.0188 107.553 40.6905C108.261 40.0216 108.783 39.1802 109.067 38.249C109.182 37.9371 109.369 37.6567 109.613 37.4306C109.854 37.2322 110.148 37.1089 110.459 37.0759C110.224 37.2284 110.025 37.4282 109.872 37.6624C109.768 37.8929 109.695 38.136 109.654 38.3854C109.529 39.5348 108.955 40.5886 108.058 41.3179C107.595 41.6883 107.037 41.92 106.448 41.9863C105.888 42.0292 105.328 41.8905 104.853 41.5907Z" fill="#282E3D"/>
<path d="M98.9605 41.5908C98.4842 41.902 97.918 42.0459 97.351 42C96.7663 41.9334 96.2127 41.7016 95.7551 41.3317C95.3037 40.971 94.9298 40.5229 94.6556 40.0143C94.3814 39.5058 94.2125 38.9471 94.1592 38.3718C94.1131 38.1219 94.0352 37.879 93.9273 37.6489C93.7786 37.4116 93.5781 37.2111 93.3408 37.0624C93.6555 37.0951 93.954 37.2182 94.2001 37.417C94.4398 37.6465 94.626 37.9259 94.7457 38.2354C95.0303 39.1667 95.5521 40.008 96.2598 40.677C96.6027 41.0053 97.012 41.2564 97.4601 41.4135C97.6955 41.4903 97.9375 41.5451 98.183 41.5772C98.4285 41.6181 98.6877 41.5772 98.9605 41.5908Z" fill="#282E3D"/>
<path d="M105.943 40.7178H106.762C106.584 40.4723 106.312 40.4723 105.943 40.7178Z" stroke="#282E3D" stroke-width="1.26851" stroke-miterlimit="10" stroke-linecap="square"/>
<path d="M96.9414 40.6905H97.7598C97.4052 40.4723 97.1324 40.4723 96.9414 40.6905Z" stroke="#282E3D" stroke-width="1.26851" stroke-miterlimit="10" stroke-linecap="square"/>
<path d="M90.1348 56.1855L90.0393 55.3126L88.9072 44.4143" stroke="#282E3D" stroke-width="1.26851" stroke-miterlimit="10" stroke-linecap="square"/>
<path d="M121.384 29.574C121.858 30.2637 122.573 30.7505 123.389 30.938C123.791 30.9427 124.18 30.7967 124.48 30.5288C124.821 30.3106 125.039 29.9696 124.917 29.6695C124.852 29.5346 124.741 29.4279 124.603 29.3694L124.03 29.1103L122.857 28.5647C122.08 28.1964 121.302 27.8281 120.552 27.378L120.184 27.1598L120.661 26.4232L121.002 26.6687C121.684 27.1461 122.366 27.5826 123.157 28.0327L124.276 28.6602L124.835 28.9875C125.069 29.1267 125.241 29.3518 125.312 29.615C125.354 29.8684 125.311 30.1285 125.19 30.3552C125.069 30.5819 124.877 30.7627 124.644 30.8698C124.268 31.1378 123.808 31.2634 123.348 31.2245C122.508 30.9423 121.807 30.3526 121.384 29.574Z" fill="#282E3D"/>
<path d="M121.725 33.7343C122.147 33.5712 122.536 33.3306 122.87 33.025C123.093 32.6811 123.198 32.2743 123.17 31.8656V31.4427L124.125 31.6337L123.975 32.0293C123.846 32.5657 123.544 33.0448 123.116 33.3933C122.676 33.5895 122.205 33.705 121.725 33.7343Z" fill="#282E3D"/>
<path d="M123.648 31.3882C123.553 32.2475 123.416 32.8885 124.112 33.1341C124.485 33.2174 124.876 33.1539 125.203 32.9567C125.925 32.5307 126.527 31.9278 126.952 31.2047C127.377 30.4816 127.61 29.6622 127.631 28.8239" stroke="#282E3D" stroke-width="1.26851" stroke-miterlimit="10" stroke-linecap="square"/>
<path d="M125.203 29.4103C125.466 29.168 125.654 28.8558 125.746 28.5104C125.838 28.165 125.829 27.8006 125.721 27.4598" stroke="#282E3D" stroke-width="1.26851" stroke-miterlimit="10" stroke-linecap="square"/>
<path d="M122.966 28.0055C123.239 27.52 123.419 26.9882 123.498 26.4369" stroke="#282E3D" stroke-width="1.26851" stroke-miterlimit="10" stroke-linecap="square"/>
<path d="M125.421 33.0795C125.421 33.9115 126.553 34.1025 127.276 33.4614" stroke="#282E3D" stroke-width="1.26851" stroke-miterlimit="10" stroke-linecap="square"/>
<path d="M84.6521 43.5959C85.6653 43.8781 86.5481 44.5053 87.1482 45.3691C86.421 44.7729 85.5107 44.4453 84.5703 44.4415H84.1475L84.2293 43.4595L84.6521 43.5959Z" fill="#282E3D"/>
<path d="M117.783 40.9224C117.469 41.4953 117.101 41.959 116.814 42.4773C116.501 42.9757 116.335 43.5527 116.337 44.1414C116.187 43.5371 116.215 42.9022 116.419 42.3136C116.583 41.7135 116.828 41.1406 116.978 40.6087L117.087 40.1995L117.974 40.5541L117.783 40.9224Z" fill="#282E3D"/>
<path d="M88.9764 44.4689C89.0047 44.4052 89.0414 44.3456 89.0856 44.2916C89.144 44.2791 89.2044 44.2791 89.2629 44.2916H114.865C114.983 44.294 115.096 44.343 115.179 44.428C115.232 44.4695 115.27 44.5269 115.288 44.5917C115.309 44.6537 115.309 44.7207 115.288 44.7827L114.197 55.5855L114.101 56.3902L113.747 59.9366H113.637L113.31 60.1412L112.969 60.3594L112.451 60.7004L112.328 60.7823L111.919 61.0414L111.591 61.246L110.828 61.7234H93.5458L91.9772 60.7414L91.7863 60.6186L91.6089 60.4958H91.5135L90.8588 60.073L90.5041 59.7184L90.1358 56.1993L90.054 55.3263L88.9628 44.6735C88.9463 44.6056 88.951 44.5341 88.9764 44.4689ZM102.139 54.5352C102.457 54.5352 102.768 54.4408 103.033 54.2639C103.298 54.0871 103.504 53.8357 103.626 53.5416C103.748 53.2475 103.78 52.9239 103.718 52.6117C103.655 52.2995 103.502 52.0127 103.277 51.7876C103.052 51.5625 102.765 51.4092 102.453 51.3471C102.141 51.285 101.817 51.3169 101.523 51.4387C101.229 51.5605 100.978 51.7668 100.801 52.0315C100.624 52.2962 100.529 52.6074 100.529 52.9257C100.529 53.3526 100.699 53.7619 101.001 54.0638C101.303 54.3656 101.712 54.5352 102.139 54.5352Z" fill="#F7F7F7" stroke="#282E3D" stroke-width="1.26851" stroke-miterlimit="10"/>
<path d="M93.5459 61.6552L94.7462 62.4053L95.0599 62.5963H109.341L109.668 62.3917L110.077 62.1325L110.855 61.6552H93.5459Z" stroke="#282E3D" stroke-width="1.26851" stroke-miterlimit="10"/>
<path d="M93.5459 61.6552L94.7462 62.4053L95.0599 62.5827H109.286L110.023 62.1325L110.8 61.6552H93.5459Z" fill="#F7F7F7" stroke="#282E3D" stroke-width="0.654715" stroke-miterlimit="10"/>
<path d="M100.529 52.9257C100.529 53.244 100.624 53.5552 100.801 53.8199C100.977 54.0845 101.229 54.2908 101.523 54.4127C101.817 54.5345 102.141 54.5664 102.453 54.5043C102.765 54.4421 103.052 54.2889 103.277 54.0638C103.502 53.8387 103.655 53.5519 103.717 53.2397C103.779 52.9275 103.748 52.6038 103.626 52.3097C103.504 52.0156 103.298 51.7643 103.033 51.5874C102.768 51.4106 102.457 51.3162 102.139 51.3162C101.712 51.3162 101.303 51.4857 101.001 51.7876C100.699 52.0894 100.529 52.4988 100.529 52.9257Z" fill="#282E3D"/>
<path d="M88.9767 44.4553C88.9674 44.4057 88.9674 44.3548 88.9767 44.3052L89.0449 44.1688H114.865C114.924 44.1685 114.982 44.1804 115.036 44.2039C115.091 44.2274 115.139 44.2619 115.179 44.3052C115.24 44.3822 115.287 44.4701 115.315 44.5644V44.2779C115.282 44.103 115.191 43.9444 115.056 43.8278C114.938 43.7166 114.782 43.6534 114.62 43.6505H89.6587C89.4937 43.6563 89.3365 43.7217 89.2161 43.8345C89.0957 43.9474 89.0203 44.1001 89.0039 44.2643L88.9767 44.4553Z" stroke="#282E3D" stroke-width="1.26851" stroke-miterlimit="10"/>
<path d="M91.1313 28.6057C91.6185 29.5662 92.1939 30.4795 92.8499 31.3337L93.0682 31.6201L93.2319 31.8111C93.7899 32.4947 94.3864 33.1459 95.0187 33.7616C95.1687 33.9116 97.4739 36.2713 97.5966 36.4896C97.9649 36.9533 98.2786 37.3898 98.5651 37.8535C99.2607 38.8356 99.779 39.654 100.338 40.2951C101.014 41.1522 101.988 41.7223 103.066 41.891C103.279 41.9333 103.499 41.9297 103.711 41.8803C103.923 41.8309 104.121 41.7369 104.294 41.6045C104.483 41.4322 104.62 41.21 104.689 40.9634C104.73 40.8439 104.757 40.7205 104.771 40.5952C104.81 40.3818 104.798 40.1622 104.736 39.9545C104.673 39.7468 104.562 39.557 104.411 39.401C104.26 39.245 104.074 39.1271 103.869 39.0573C103.664 38.9874 103.445 38.9675 103.23 38.9993C103.721 39.3676 103.898 39.9814 103.571 40.2951C103.524 40.3511 103.463 40.3935 103.394 40.4178C103.224 40.4656 103.045 40.4656 102.875 40.4178C102.752 40.3821 102.632 40.3317 102.521 40.2678L102.412 40.1587L102.316 40.0496V39.9814V39.8859V39.7222C102.31 39.6815 102.31 39.6401 102.316 39.5994C102.323 39.5634 102.323 39.5264 102.316 39.4903V39.4221C102.296 39.3002 102.296 39.1758 102.316 39.0539C102.399 38.549 102.673 38.0952 103.08 37.7853L103.994 37.0761L105.099 36.2304L105.849 35.6712L106.503 35.1665C106.804 34.921 107.117 34.6891 107.404 34.4436L107.99 33.9798L108.331 33.6934L108.659 33.4069L108.986 33.1205L109.613 32.5476C109.968 32.1793 110.323 31.8111 110.636 31.4564L110.718 31.3609C111.765 30.192 112.658 28.8949 113.378 27.5009C114.81 24.6092 114.742 22.0449 112.996 20.5445C112.752 20.332 112.487 20.1447 112.205 19.9853C111.656 19.6872 111.069 19.4668 110.459 19.3305L109.6 18.9077C109.749 19.0152 109.886 19.1387 110.009 19.276V19.3578C110.249 19.6522 110.43 19.9903 110.541 20.3535C110.739 20.984 110.739 21.66 110.541 22.2904C110.444 22.6228 110.292 22.9363 110.091 23.2179C109.539 23.9456 108.854 24.5613 108.072 25.032C108.806 24.2917 109.284 23.3357 109.436 22.304C109.458 22.1594 109.458 22.0123 109.436 21.8676C109.393 21.6479 109.289 21.4447 109.136 21.2811C108.618 20.6673 107.69 20.9128 106.804 21.6357C106.476 21.9265 106.089 22.1424 105.669 22.2683C105.25 22.3942 104.808 22.4272 104.374 22.3649C103.94 22.3026 103.525 22.1465 103.158 21.9075C102.791 21.6685 102.48 21.3523 102.248 20.981H102.016C101.782 21.3504 101.471 21.6648 101.103 21.9024C100.736 22.1401 100.322 22.2953 99.8889 22.3575C99.4559 22.4198 99.0147 22.3875 98.5954 22.2628C98.1762 22.1382 97.7889 21.9243 97.4602 21.6357C96.5464 20.8991 95.6188 20.6536 95.1005 21.322C94.9515 21.4722 94.8475 21.6612 94.8004 21.8676C94.7922 21.9902 94.7922 22.1132 94.8004 22.2358C94.9165 23.302 95.3986 24.295 96.1644 25.0457C95.3796 24.5785 94.6938 23.9622 94.1457 23.2316C93.9485 22.9505 93.7924 22.6428 93.682 22.3177C93.682 22.3177 93.682 22.2359 93.682 22.1949C93.6312 22.0255 93.5947 21.8521 93.5729 21.6766C93.497 20.8873 93.7103 20.0973 94.173 19.4533L94.1594 19.276C94.2928 19.1314 94.4389 18.999 94.5958 18.8804C94.3778 18.866 94.1591 18.866 93.9411 18.8804C93.287 18.9362 92.6534 19.1365 92.0861 19.4669C91.83 19.6164 91.592 19.7949 91.3768 19.9989C89.5764 21.6903 89.3308 24.9638 91.1313 28.6057Z" fill="#F7F7F7" stroke="#282E3D" stroke-width="1.26851" stroke-miterlimit="10"/>
<path d="M102.221 20.9947C102.453 21.366 102.764 21.6821 103.131 21.9211C103.498 22.1602 103.913 22.3162 104.347 22.3786C104.78 22.4409 105.222 22.4079 105.642 22.282C106.062 22.1561 106.449 21.9402 106.776 21.6494C107.663 20.9265 108.591 20.6809 109.109 21.2947C109.262 21.4584 109.366 21.6616 109.409 21.8813C109.431 22.0259 109.431 22.1731 109.409 22.3177C109.257 23.3494 108.779 24.3054 108.045 25.0457C108.827 24.575 109.512 23.9592 110.064 23.2316C110.265 22.95 110.417 22.6364 110.514 22.3041C110.712 21.6737 110.712 20.9977 110.514 20.3672C110.403 20.004 110.222 19.6658 109.982 19.3715V19.2897C109.869 19.1491 109.74 19.021 109.6 18.9078L109.45 18.7986C107.486 17.4347 104.949 20.1626 102.221 20.9947Z" fill="#F7F7F7" stroke="#282E3D" stroke-width="1.26851" stroke-miterlimit="10"/>
<path d="M93.4369 21.7039C93.4588 21.8794 93.4953 22.0528 93.546 22.2223C93.546 22.2223 93.546 22.3041 93.546 22.345C93.6564 22.6701 93.8126 22.9778 94.0098 23.2589C94.5578 23.9895 95.2436 24.6058 96.0285 25.073C95.2626 24.3223 94.7806 23.3293 94.6645 22.2632C94.6562 22.1406 94.6562 22.0175 94.6645 21.8949C94.7115 21.6886 94.8155 21.4995 94.9646 21.3493C95.4829 20.6809 96.4104 20.9265 97.3243 21.663C97.6529 21.9516 98.0402 22.1656 98.4595 22.2902C98.8787 22.4148 99.32 22.4471 99.7529 22.3849C100.186 22.3227 100.6 22.1674 100.967 21.9298C101.335 21.6921 101.646 21.3778 101.88 21.0083C99.152 20.1354 96.5741 17.4074 94.6099 18.8123L94.5963 18.8805C94.4375 19.012 94.2913 19.1582 94.1598 19.317L94.037 19.4806C93.5743 20.1246 93.3611 20.9146 93.4369 21.7039Z" fill="#F7F7F7" stroke="#282E3D" stroke-width="1.26851" stroke-miterlimit="10"/>
<path d="M111.809 23.0951C111.747 22.6204 111.587 22.1639 111.338 21.7551C111.089 21.3463 110.757 20.9943 110.363 20.7218L110.963 20.0807C111.313 20.4926 111.57 20.9752 111.716 21.4954C111.862 22.0157 111.894 22.5614 111.809 23.0951Z" fill="#282E3D"/>
<path d="M112.327 20.4763C111.603 20.0019 110.765 19.7289 109.899 19.6852L110.104 18.8531C110.972 19.1953 111.737 19.7541 112.327 20.4763Z" fill="#282E3D"/>
<path d="M106.258 19.3988C106.98 18.9006 107.853 18.6691 108.727 18.7441C109.19 18.7932 109.635 18.9526 110.024 19.2089C110.413 19.4652 110.735 19.8109 110.964 20.2172L110.2 20.5854C110.066 20.2449 109.85 19.9424 109.572 19.7046C109.294 19.4668 108.961 19.3009 108.604 19.2215C107.825 19.0085 106.996 19.0712 106.258 19.3988Z" fill="#282E3D"/>
<path d="M112.683 27.0234C113.095 26.3709 113.364 25.6384 113.472 24.8743C113.58 24.1101 113.525 23.3317 113.31 22.5905C113.698 23.3057 113.896 24.1091 113.883 24.9229C113.872 25.754 113.729 26.5781 113.46 27.3644L112.683 27.0234Z" fill="#282E3D"/>
<path d="M111.427 27.46C111.507 28.7545 111.278 30.0496 110.759 31.2382L110.05 30.7881C110.765 29.8026 111.237 28.6623 111.427 27.46Z" fill="#282E3D"/>
<path d="M110.282 29.2877C110.401 29.8465 110.402 30.424 110.285 30.9831C110.167 31.5422 109.934 32.0705 109.6 32.534L108.959 31.9748C109.358 31.6469 109.683 31.2375 109.911 30.7741C110.139 30.3108 110.265 29.804 110.282 29.2877Z" fill="#282E3D"/>
<path d="M103.421 36.4623C104.321 35.9075 105.089 35.1627 105.671 34.2799C105.302 35.3027 104.716 36.2333 103.953 37.0079L103.421 36.4623Z" fill="#282E3D"/>
<path d="M104.034 35.3029C104.09 35.782 103.974 36.2654 103.707 36.6668C103.484 37.027 103.284 37.4005 103.107 37.7853L102.384 37.3625C102.683 37.0207 103.012 36.7058 103.366 36.4213C103.718 36.1424 103.955 35.7447 104.034 35.3029Z" fill="#282E3D"/>
<path d="M101.484 37.2943C101.427 37.7722 101.508 38.2565 101.719 38.6894C101.929 39.1223 102.26 39.4855 102.671 39.7359L102.152 40.4042C101.766 39.9861 101.511 39.4648 101.416 38.9038C101.259 38.3747 101.283 37.8083 101.484 37.2943Z" fill="#282E3D"/>
<path d="M98.5791 36.5441C99.0866 37.7929 99.7962 38.9495 100.68 39.9677L100.025 40.4996C99.3248 39.2714 98.836 37.9343 98.5791 36.5441Z" fill="#282E3D"/>
<path d="M98.2106 38.0035C98.0002 37.5246 97.8534 37.0202 97.7741 36.5032C97.7086 36.0102 97.5211 35.5413 97.2285 35.1392C97.6316 35.4492 97.9543 35.8515 98.1697 36.3122C98.3666 36.7348 98.6188 37.1292 98.9199 37.4852L98.2106 38.0035Z" fill="#282E3D"/>
<path d="M92.5769 27.2144C92.3288 27.5408 92.1694 27.926 92.1145 28.3324C92.0595 28.7388 92.1107 29.1525 92.2632 29.5331C92.5982 30.2878 93.0595 30.9797 93.6272 31.5791L92.9452 32.0702C92.448 31.3295 92.0834 30.5079 91.8677 29.6423C91.7681 29.1931 91.7681 28.7275 91.8677 28.2783C92.0023 27.8654 92.2476 27.4974 92.5769 27.2144Z" fill="#282E3D"/>
<path d="M93.2316 28.9058C93.2129 29.9004 93.4778 30.8797 93.9954 31.7292C94.6098 32.5287 95.3355 33.2361 96.1505 33.8298C95.5811 33.7884 95.0282 33.6199 94.5325 33.3366C94.0368 33.0534 93.6109 32.6626 93.2861 32.193C92.9543 31.7017 92.7784 31.1217 92.7814 30.5289C92.775 29.9562 92.931 29.3934 93.2316 28.9058Z" fill="#282E3D"/>
<path d="M90.8718 22.5905C90.5822 23.5598 90.4909 24.5775 90.6034 25.5829C90.7159 26.5882 91.0299 27.5606 91.5265 28.442L90.749 28.7693C90.3882 27.7623 90.1992 26.7018 90.1898 25.6322C90.1793 24.5792 90.4127 23.5381 90.8718 22.5905Z" fill="#282E3D"/>
<path d="M94.0094 20.3535C93.3274 20.9264 92.5499 21.1037 92.168 21.8403C92.238 21.4279 92.4169 21.0418 92.6863 20.7218C92.9365 20.4269 93.1688 20.1171 93.3819 19.7943L94.0094 20.3535Z" fill="#282E3D"/>
<path d="M93.7778 22.004C93.47 22.2786 93.2435 22.6324 93.1231 23.027C93.0159 23.4753 93.0159 23.9426 93.1231 24.391C92.8878 23.9729 92.7524 23.5061 92.7276 23.027C92.7258 22.4991 92.8672 21.9805 93.1368 21.5266L93.7778 22.004Z" fill="#282E3D"/>
<path d="M93.123 22.2631C93.1289 21.6822 93.32 21.1183 93.6686 20.6536C93.8219 20.4274 94.0219 20.2367 94.2552 20.0944L94.9372 19.6852L94.4052 20.2444C94.2368 20.4179 94.1107 20.628 94.0369 20.8582C93.8659 21.2932 93.842 21.7723 93.9687 22.2222L93.123 22.2631Z" fill="#282E3D"/>
<path d="M92.4131 16.0024C92.8932 16.08 93.3394 16.2983 93.6952 16.6298C93.7055 16.0129 93.7602 15.3975 93.8589 14.7885C93.2401 14.9945 92.7231 15.4286 92.4131 16.0024V16.0024Z" stroke="#282E3D" stroke-width="1.26851" stroke-miterlimit="10"/>
<path d="M111.564 16.0024C111.084 16.08 110.638 16.2983 110.282 16.6298C110.272 16.0129 110.217 15.3975 110.118 14.7885C110.74 14.9895 111.258 15.425 111.564 16.0024V16.0024Z" stroke="#282E3D" stroke-width="1.26851" stroke-miterlimit="10"/>
<path d="M91.1856 16.7662C91.2881 16.529 91.4606 16.3288 91.6799 16.1923C91.8993 16.0558 92.1552 15.9895 92.4132 16.0024C92.8933 16.0799 93.3396 16.2983 93.6954 16.6298C93.7056 16.0129 93.7603 15.3975 93.859 14.7884C95.4686 5.10408 108.236 4.94041 110.063 14.4747C110.201 15.2263 110.274 15.9884 110.281 16.7526C110.708 16.2984 111.296 16.0292 111.918 16.0024C112.145 16.0302 112.362 16.1148 112.548 16.2482C112.734 16.3817 112.883 16.5598 112.982 16.7662C113.198 17.1343 113.311 17.5535 113.31 17.9802C113.324 18.2073 113.324 18.435 113.31 18.6622C113.236 19.2208 113.041 19.7563 112.737 20.2307C112.492 20.0183 112.227 19.8309 111.946 19.6715C111.397 19.3734 110.809 19.1531 110.2 19.0168L109.6 18.9077L109.449 18.7985C107.485 17.4346 104.948 20.1625 102.22 20.9946H101.948C99.2195 20.1216 96.6416 17.3936 94.6774 18.7985L94.5956 18.8804C94.3776 18.866 94.1589 18.866 93.9409 18.8804C93.2867 18.9361 92.6531 19.1364 92.0859 19.4669C91.8298 19.6164 91.5918 19.7949 91.3766 19.9989C91.1392 19.5767 90.982 19.1142 90.9128 18.6349C90.8988 18.4078 90.8988 18.18 90.9128 17.9529C90.893 17.5398 90.9874 17.1292 91.1856 16.7662Z" fill="#F2C494" stroke="#282E3D" stroke-width="1.26851" stroke-miterlimit="10"/>
<path d="M104.662 23.7634C104.349 24.1662 103.954 24.4967 103.501 24.7322C103.049 24.9676 102.552 25.1024 102.043 25.1274C101.531 25.1148 101.029 24.9854 100.575 24.749C100.121 24.5126 99.7274 24.1755 99.4238 23.7634C100.196 24.3003 101.104 24.6077 102.043 24.65C102.976 24.5778 103.876 24.273 104.662 23.7634Z" fill="#282E3D"/>
<path d="M103.761 17.9938C103.926 18.0923 104.069 18.2246 104.18 18.3821C104.29 18.5396 104.366 18.7187 104.402 18.9076C104.417 19.3208 104.287 19.7261 104.034 20.0534C103.804 20.367 103.506 20.6237 103.161 20.8036C102.815 21.0245 102.423 21.1644 102.015 21.2128C101.6 21.1689 101.199 21.0338 100.842 20.8172C100.529 20.619 100.26 20.3591 100.051 20.0534C99.7892 19.7357 99.6533 19.3327 99.6692 18.9213C99.7022 18.7311 99.7752 18.5501 99.8834 18.3902C99.9915 18.2303 100.132 18.0952 100.297 17.9938C100.059 18.2283 99.9217 18.5464 99.9147 18.8804C99.9367 19.2096 100.077 19.5198 100.31 19.7533C100.762 20.253 101.375 20.5767 102.043 20.6672C102.709 20.5745 103.322 20.2511 103.775 19.7533C103.992 19.5228 104.122 19.2238 104.143 18.9076C104.118 18.5766 103.972 18.2662 103.734 18.0347L103.761 17.9938Z" fill="#282E3D"/>
<path d="M103.012 12.3605C104.075 11.774 105.412 12.3605 106.844 13.3699C105.344 10.9283 103.571 10.4236 102.93 12.306L103.012 12.3605Z" fill="#282E3D" stroke="#282E3D" stroke-width="0.245518" stroke-miterlimit="10"/>
<path d="M97.0098 13.3699C98.442 12.3605 99.7377 11.774 100.843 12.3605H100.911C100.283 10.4237 98.5102 10.9284 97.0098 13.3699Z" fill="#282E3D" stroke="#282E3D" stroke-width="0.245518" stroke-miterlimit="10"/>
<path d="M103.053 15.4977C103.053 16.8617 105.535 17.3254 106.845 15.8387C106.172 16.0768 105.456 16.1697 104.744 16.1115C105.14 16.059 105.511 15.8878 105.808 15.6204C104.901 15.8844 103.932 15.8413 103.053 15.4977Z" fill="#282E3D" stroke="#282E3D" stroke-width="0.245518" stroke-miterlimit="10"/>
<path d="M97.0645 15.8387C98.4284 17.3254 100.802 16.9299 100.856 15.4977C99.9848 15.8352 99.0267 15.8783 98.1284 15.6204C98.4253 15.8878 98.7962 16.059 99.1923 16.1115C98.4716 16.1745 97.7459 16.0815 97.0645 15.8387Z" fill="#282E3D" stroke="#282E3D" stroke-width="0.245518" stroke-miterlimit="10"/>
<path d="M112.573 17.8301C112.482 17.6682 112.359 17.5267 112.211 17.4141C112.063 17.3015 111.894 17.2203 111.714 17.1754C111.628 17.1477 111.535 17.1459 111.448 17.1701C111.361 17.1944 111.282 17.2436 111.223 17.3118C111.1 17.4482 111.032 17.7483 111.141 17.8165C111.25 17.8847 111.427 17.8165 111.7 17.9665C111.959 18.0613 112.18 18.2386 112.328 18.4712C112.387 18.597 112.418 18.7344 112.418 18.8736C112.418 19.0128 112.387 19.1502 112.328 19.276C112.277 19.3988 112.194 19.5063 112.089 19.5876C111.984 19.6689 111.859 19.7214 111.727 19.7397C111.861 19.6192 111.945 19.4531 111.963 19.274C111.98 19.0949 111.93 18.9156 111.823 18.7713C111.725 18.626 111.6 18.501 111.455 18.403L111.182 18.2803C111.07 18.1854 110.993 18.0557 110.964 17.912C110.868 17.5573 111.059 17.3937 111.141 17.1618C111.209 17.0423 111.303 16.9398 111.417 16.8619C111.53 16.7839 111.66 16.7326 111.796 16.7117C111.93 16.7115 112.062 16.7408 112.183 16.7975C112.305 16.8541 112.412 16.9368 112.498 17.0396C112.584 17.1424 112.646 17.2629 112.68 17.3924C112.715 17.522 112.72 17.6574 112.696 17.7892L112.573 17.8301Z" fill="#282E3D"/>
<path d="M91.5262 17.8301C91.5006 17.7064 91.5017 17.5786 91.5295 17.4554C91.5573 17.3322 91.6111 17.2164 91.6873 17.1156C91.7635 17.0149 91.8604 16.9316 91.9714 16.8713C92.0824 16.811 92.205 16.7752 92.3309 16.7661C92.4625 16.7593 92.5935 16.7872 92.7108 16.8471C92.8281 16.9069 92.9276 16.9966 92.9993 17.1071C93.1407 17.3023 93.2384 17.5256 93.2857 17.7619C93.2857 18.0892 92.9311 18.2802 92.7811 18.3211C92.6275 18.402 92.4853 18.5029 92.3582 18.6212C92.14 18.8531 91.8536 19.1122 92.0991 19.4941C91.967 19.4591 91.8517 19.378 91.7742 19.2654C91.6966 19.1528 91.6619 19.0163 91.6762 18.8803C91.7051 18.6186 91.8203 18.3738 92.0036 18.1847C92.1921 18.0433 92.4121 17.9497 92.6447 17.9119C92.8765 17.9119 92.9993 17.9119 93.0539 17.7482C93.0648 17.657 93.0531 17.5645 93.0198 17.4788C92.9865 17.3932 92.9326 17.317 92.8629 17.2572C92.7895 17.2178 92.7075 17.1972 92.6242 17.1972C92.5409 17.1972 92.4589 17.2178 92.3855 17.2572C92.0388 17.3545 91.7446 17.5849 91.5671 17.8983L91.5262 17.8301Z" fill="#282E3D"/>
<path d="M64.9971 43.1458C64.9971 44.4946 65.3971 45.8132 66.1464 46.9347C66.8958 48.0563 67.961 48.9304 69.2071 49.4466C70.4533 49.9628 71.8246 50.0978 73.1475 49.8347C74.4705 49.5715 75.6857 48.922 76.6395 47.9682C77.5932 47.0144 78.2428 45.7992 78.5059 44.4763C78.7691 43.1533 78.634 41.7821 78.1178 40.5359C77.6017 39.2897 76.7275 38.2246 75.606 37.4752C74.4845 36.7258 73.1659 36.3258 71.817 36.3258C70.0083 36.3258 68.2736 37.0443 66.9946 38.3233C65.7156 39.6023 64.9971 41.337 64.9971 43.1458Z" fill="#933FA1"/>
<path d="M64.9971 43.1458C64.9971 44.4946 65.3971 45.8132 66.1464 46.9347C66.8958 48.0563 67.961 48.9304 69.2071 49.4466C70.4533 49.9628 71.8246 50.0978 73.1475 49.8347C74.4705 49.5715 75.6857 48.922 76.6395 47.9682C77.5932 47.0144 78.2428 45.7992 78.5059 44.4763C78.7691 43.1533 78.634 41.7821 78.1178 40.5359C77.6017 39.2897 76.7275 38.2246 75.606 37.4752C74.4845 36.7258 73.1659 36.3258 71.817 36.3258C70.0083 36.3258 68.2736 37.0443 66.9946 38.3233C65.7156 39.6023 64.9971 41.337 64.9971 43.1458V43.1458Z" stroke="#282E3D" stroke-width="1.24805" stroke-miterlimit="10"/>
<path d="M72.3627 40.4041C72.6944 40.4211 73.0128 40.5404 73.2741 40.7455C73.5354 40.9507 73.7268 41.2316 73.8221 41.5499C73.876 41.7378 73.917 41.9292 73.9449 42.1228L72.5809 42.2182C72.574 42.1166 72.5469 42.0173 72.5011 41.9263C72.4554 41.8353 72.3918 41.7544 72.3143 41.6883C72.2368 41.6222 72.1468 41.5723 72.0497 41.5415C71.9526 41.5107 71.8503 41.4996 71.7489 41.509C71.4624 41.509 71.176 41.6317 71.176 41.9045C71.176 42.1773 71.3806 42.2592 72.1853 42.5865L72.7991 42.8184C73.1725 42.888 73.51 43.0853 73.7539 43.3764C73.9978 43.6676 74.1328 44.0345 74.1358 44.4143C74.1358 45.3691 73.3993 45.9283 72.4172 46.0374V46.8558H71.4079V46.0374C71.1662 46.0461 70.9255 46.0033 70.7016 45.9118C70.4778 45.8203 70.276 45.6823 70.1096 45.5069C69.9432 45.3314 69.816 45.1226 69.7364 44.8942C69.6569 44.6659 69.6269 44.4232 69.6483 44.1824L71.0123 44.1005C71.0123 44.6461 71.2987 44.9326 71.8716 44.9326C72.199 44.9326 72.5673 44.8507 72.5673 44.4688C72.5673 44.0869 72.3217 44.0869 71.9398 43.9232L71.4079 43.6913C70.6304 43.4458 69.8802 43.023 69.8802 42.0546C69.8853 41.6391 70.0443 41.2404 70.3266 40.9355C70.6088 40.6306 70.9941 40.4412 71.4079 40.4041V39.6539H72.3627V40.4041Z" fill="white"/>
</g>
<defs>
<radialGradient id="paint0_radial_1063_13910" cx="0" cy="0" r="1" gradientUnits="userSpaceOnUse" gradientTransform="translate(101.819 73.9861) rotate(90) scale(20.2508 19.4586)">
<stop offset="0.15" stop-color="#0A0100"/>
<stop offset="0.36" stop-color="#070100" stop-opacity="0.66"/>
<stop offset="1" stop-opacity="0"/>
</radialGradient>
<clipPath id="clip0_1063_13910">
<rect width="200" height="70" fill="white" transform="translate(64.5 7)"/>
</clipPath>
</defs>
</svg>
