<svg fill="none" height="137" viewBox="0 0 371 137" width="371" xmlns="http://www.w3.org/2000/svg" xmlns:xlink="http://www.w3.org/1999/xlink"><radialGradient id="a" cx="0" cy="0" gradientTransform="matrix(0 20.2508 -19.4586 0 101.819 73.9861)" gradientUnits="userSpaceOnUse" r="1"><stop offset=".15" stop-color="#0a0100"/><stop offset=".36" stop-color="#070100" stop-opacity=".66"/><stop offset="1" stop-opacity="0"/></radialGradient><clipPath id="b"><path d="m64.5 7h200v70h-200z"/></clipPath><ellipse cx="253.5" cy="63" fill="#91ceeb" rx="35" ry="33"/><g clip-path="url(#b)"><path d="m156.494 35.0028c-.112.3682-.248.7282-.409 1.0776-.16.3382-.387.64-.669.8866-.332.2791-.717.4879-1.132.6138-.589.1678-1.201.246-1.814.2318-.608.0153-1.215-.0629-1.8-.2318-.417-.1226-.802-.3318-1.132-.6138-.286-.2453-.519-.5472-.682-.8866-.155-.3519-.292-.7115-.41-1.0776l-3.219-10.0799c-.058-.1807-.127-.3583-.204-.5319 0-.1364-.137-.2183-.218-.2183-.082 0-.219.0955-.219.2728v.4092l.205 12.7124h-6.82v-17.4454c-.048-.7653.185-1.5219.655-2.1278.414-.4755.932-.849 1.514-1.0912.556-.2055 1.14-.3251 1.732-.3547h1.269c.455.0035.911.0308 1.364.0819.525.0608 1.036.2083 1.514.4364.514.2527.977.5997 1.364 1.023.467.5627.819 1.2114 1.036 1.9096l3.465 10.0526s0 .1364.095.2456c.042.1039.092.2043.15.3.049.1045.114.201.191.2865.022.0324.05.06.083.0811s.07.0353.108.0416c0 0 .123 0 .191-.1227.078-.0883.146-.1843.205-.2865l.15-.3c0-.1092 0-.191.082-.2456l3.369-10.1481c.2-.705.554-1.3571 1.036-1.9095.387-.4233.85-.7704 1.364-1.023.47-.219.972-.3617 1.487-.4229.48-.0533.963-.0806 1.446-.0818.952-.0372 1.902.0921 2.81.3819.576.1952 1.099.5221 1.527.9548.349.3222.596.7395.71 1.2003.086.3666.132.7418.136 1.1185v17.4454h-6.82l.232-12.7124c.021-.1872-.012-.3766-.096-.5456 0-.0954-.109-.1364-.177-.1364s-.109 0-.177.1637c-.091.1901-.168.386-.232.5865z" fill="#282e3d"/><path d="m183.528 21.7584c.835-.031 1.668.1178 2.441.4365.544.2228 1.043.5416 1.473.9412.31.31.572.6639.778 1.0502.187.3726.342.7605.464 1.1594.107.3831.176.7761.204 1.1731v1.0502 6.629c-.001.4348-.042.8685-.123 1.2958-.081.4726-.31.9073-.654 1.2412-.332.3781-.786.6288-1.282.7093-.451.0786-.907.1197-1.364.1228h-9.303c-.502-.0002-1.004-.0413-1.5-.1228-.519-.0834-.998-.3321-1.364-.7093-.305-.2754-.551-.6094-.723-.982-.174-.379-.302-.7774-.382-1.1867-.084-.3952-.134-.7967-.15-1.2003 0-.3956 0-.7638 0-1.0776 0-.3137 0-.6956 0-1.0639.029-.3491.084-.6956.164-1.0366.093-.3566.231-.7002.409-1.023.186-.3249.436-.6082.736-.832.394-.3169.865-.524 1.364-.6002.453-.0517.909-.079 1.364-.0818h6.916v-.2456c.011-.1634.011-.3275 0-.491-.033-.2002-.118-.3883-.246-.5456-.202-.283-.504-.4782-.845-.5456-.316-.0531-.635-.0805-.955-.0818h-7.898v-3.9829zm-4.597 9.548c-.131-.0156-.264-.0156-.395 0-.174.0238-.335.1-.464.2182-.095.0935-.161.2117-.191.341-.014.136-.014.2732 0 .4092-.012.1179-.012.2367 0 .3546.031.1253.097.239.191.3274.102.0997.229.1703.368.2046.145.0187.292.0187.437 0h3.014c.158.0201.319.0201.477 0 .144-.0209.28-.0771.396-.1637.125-.0817.213-.2089.245-.3546.015-.1406.015-.2823 0-.4229v-.982z" fill="#282e3d"/><path d="m193.703 28.4147c0-.3819 0-.7911 0-1.2412.039-.4614.121-.9181.246-1.364.126-.4792.319-.9384.573-1.364.266-.4584.612-.865 1.023-1.2003.411-.3428.87-.6231 1.364-.832.545-.1881 1.106-.3251 1.677-.4092.501-.0904 1.006-.1497 1.514-.1773h1.364 3.874v4.0919h-2.032c-.547-.0016-1.092.0625-1.624.191-.555.135-1.04.4701-1.364.9411-.336.438-.557.9542-.641 1.5004-.089.4998-.134 1.0064-.136 1.5141v7.5428h-5.838z" fill="#282e3d"/><path d="m209.171 37.567v-20.8827h5.851v20.8827zm11.908 0-4.297-5.6605c-.367-.4434-.637-.9594-.791-1.5141-.076-.3363-.121-.6786-.137-1.023-.017-.4712.082-.9394.287-1.364.204-.3749.427-.7391.668-1.0911l3.615-5.1286h6.329l-4.802 6.2879c-.126.1758-.227.3687-.3.5729-.074.1822-.116.3762-.122.5729.005.2467.066.4891.177.7093.116.2545.258.4967.423.7229l5.456 6.9427z" fill="#282e3d"/><path d="m237.174 37.5671c-.601 0-1.16 0-1.692 0-.516-.0147-1.028-.0879-1.527-.2182-.487-.1259-.948-.3335-1.364-.6138-.436-.3247-.802-.7327-1.078-1.2004-.369-.6732-.592-1.4169-.655-2.1823-.11-1.1561-.16-2.317-.15-3.4782v-2.0869c-.007-.6156.03-1.2309.109-1.8414.062-.5354.186-1.0618.369-1.5686.174-.4674.449-.8911.804-1.2412.379-.3992.846-.7031 1.364-.8866.588-.2169 1.195-.3723 1.815-.4638.686-.1026 1.379-.1618 2.073-.1773h2.223c1.61 0 2.946 0 3.997.15.919.049 1.803.372 2.537.9276.382.2913.694.664.914 1.0911.217.4363.391.8932.518 1.364.12.4736.193.9579.218 1.4459v1.364c-.005.5255-.051 1.0499-.136 1.5685-.089.5424-.382 1.0304-.819 1.364-.212.1986-.477.3313-.764.382-.261.0441-.526.0669-.791.0682h-8.62c-.04.2255-.04.4564 0 .6819.041.2103.114.4128.218.6002.12.1919.285.3526.479.4687.194.1162.414.1846.64.1997.502.0553 1.008.0826 1.514.0818h7.665v4.2284zm3.764-9.9571c.409 0 .682-.1092.791-.3001.099-.1657.155-.3531.164-.5456-.002-.2274-.079-.4479-.218-.6275-.224-.2452-.529-.4004-.86-.4364-.231 0-.518-.0682-.832-.0955h-.722-1.105c-.318.0093-.63.0885-.914.2319-.141.0661-.266.1629-.365.2832s-.17.2612-.208.4124c-.064.3518-.064.7122 0 1.0639z" fill="#282e3d"/><path d="m260.334 37.567h-1.037c-.874-.0314-1.741-.1781-2.578-.4365-.46-.1324-.894-.3447-1.282-.6274-.641-.4338-1.155-1.0321-1.486-1.7323-.334-.6651-.511-1.3975-.519-2.1414v-6.82h-2.237v-4.0919h2.237v-5.0332h5.852v5.0741h4.446v4.0919h-4.501v3.6146c-.001.5775.058 1.1536.178 1.7186.119.557.41 1.0626.832 1.4459.378.3476.854.5713 1.364.6411.419.0667.843.1032 1.268.1091h.859v4.2283z" fill="#282e3d"/><path d="m158.294 63.442c.037.5627-.096 1.1235-.382 1.6095-.176.2962-.392.5669-.641.8048-.636.4996-1.429.7559-2.237.7229h-9.875c-.925-.0178-1.844-.1648-2.728-.4365-.924-.2629-1.776-.7289-2.496-1.364-.576-.4984-1.04-1.1117-1.364-1.8004-.331-.7066-.583-1.4477-.75-2.2097-.164-.7689-.273-1.5483-.328-2.3324 0-.7911 0-1.5277 0-2.2233 0-.6957 0-1.6914.082-2.5507.055-.8514.188-1.6959.396-2.5234.184-.7937.483-1.5564.886-2.2642.405-.7025.953-1.3115 1.61-1.7868.466-.3624.992-.6394 1.555-.8184.514-.1849 1.044-.3263 1.582-.4229.449-.0903.906-.1451 1.364-.1636h.791 12.18v4.9649h-9.138c-.722-.084-1.454.0334-2.113.3391-.66.3057-1.222.7879-1.625 1.3932-.359.5628-.579 1.2035-.641 1.8686 0 .682-.109 1.364-.109 1.8823.005.6289.041 1.2571.109 1.8823.061.6866.28 1.3497.641 1.9369.317.5242.796.9311 1.364 1.1594.517.1821 1.062.2744 1.61.2728h2.032.587c.209-.0305.401-.1316.545-.2864.159-.1481.265-.3448.3-.5593.021-.2177.021-.4369 0-.6547v-4.3375h6.82z" fill="#933fa1"/><path d="m179.354 45.6964v11.9895c.008.5125.058 1.0235.151 1.5277.126.5478.446 1.0319.9 1.3639.34.2591.73.4448 1.146.5456.443.1262.902.1905 1.363.191.462-.0014.921-.0656 1.364-.191.415-.1036.804-.2891 1.146-.5456.243-.191.447-.4272.6-.6956.131-.2528.236-.5178.314-.7911.07-.2534.106-.5147.109-.7775 0-.2455 0-.4774 0-.6956v-11.9213h6.752v12.5214c0 .5421-.027 1.0839-.082 1.6232-.046.5462-.151 1.0858-.314 1.6095-.161.5468-.386 1.0731-.668 1.5686-.306.5299-.682 1.0163-1.118 1.4458-.512.5176-1.107.9463-1.76 1.2685-.646.3027-1.323.5359-2.019.6957-.713.1607-1.438.2656-2.168.3137-.751 0-1.487.0682-2.224.0682-.736 0-1.5 0-2.237-.0682-.73-.049-1.455-.1539-2.168-.3137-.696-.1598-1.373-.393-2.019-.6957-.649-.329-1.242-.7569-1.76-1.2685-.375-.4419-.695-.9273-.954-1.4458-.277-.4982-.501-1.0239-.669-1.5686-.155-.5253-.26-1.0642-.314-1.6095-.027-.5407-.027-1.0824 0-1.6232v-12.5214z" fill="#933fa1"/><path d="m208.23 49.6929c.003-.5161.044-1.0313.123-1.5413.078-.5392.315-1.0428.682-1.4458.361-.4073.836-.6971 1.364-.8321.447-.1074.904-.1669 1.364-.1773h11.362 1.145c.462.0194.92.0926 1.364.2182.482.1397.941.3463 1.364.6138.466.3029.865.6974 1.173 1.1594.461.6933.759 1.4811.873 2.3052.133.8163.202 1.6418.205 2.4688v.9821c-.006.4561-.038.9115-.095 1.364-.069.4774-.137.9684-.246 1.4594-.088.4677-.226.9249-.409 1.364-.317.8228-.891 1.5213-1.637 1.9915-.683.3983-1.46.6056-2.251.6001h-.886v.1228l5.906 6.2334h-8.184l-4.092-5.456c-.341-.4637-.668-.9138-.968-1.3639-.303-.4263-.465-.9366-.464-1.4595v-.4501c-.004-.3309.07-.6581.217-.9545.147-.2965.362-.5537.629-.7505.629-.4542 1.393-.6846 2.168-.6547h1.078c.329-.0021.658-.0341.982-.0955.35-.0644.665-.2534.886-.532.172-.2464.293-.5246.355-.8184.063-.296.095-.5976.096-.9002.024-.427-.041-.8544-.191-1.2549-.084-.1844-.19-.3584-.314-.5183-.232-.2593-.554-.4203-.9-.4501-.327-.02-.655-.02-.982 0h-3.724c-.186-.0215-.374-.0215-.559 0-.187.0419-.357.1366-.491.2728-.192.1524-.319.3717-.355.6138-.014.2362-.014.4731 0 .7093v14.0491h-6.82z" fill="#933fa1"/><path d="m250.459 45.6964v11.9895c0 .5129.05 1.0245.15 1.5277.126.5444.44 1.0271.886 1.3639.342.2565.731.442 1.146.5456.444.1254.903.1896 1.364.191.461-.0005.92-.0648 1.364-.191.414-.1036.804-.2891 1.146-.5456.246-.1872.451-.4242.6-.6956.136-.2501.241-.5158.314-.7911.067-.2543.108-.5148.122-.7775 0-.2455 0-.4774 0-.6956v-11.9213h6.738v12.5214c0 .5456 0 1.0776-.068 1.6232-.059.5443-.164 1.0827-.314 1.6095-.167.5447-.391 1.0704-.668 1.5686-.315.5242-.69 1.0095-1.118 1.4458-.518.5116-1.111.9395-1.76 1.2685-.646.3027-1.323.5359-2.019.6957-.718.1607-1.448.2656-2.182.3137-.737 0-1.487.0682-2.223.0682-.737 0-1.501 0-2.237-.0682-.726-.0481-1.446-.153-2.155-.3137-.696-.1598-1.373-.393-2.019-.6957-.653-.3222-1.248-.7509-1.76-1.2685-.436-.4295-.812-.9159-1.118-1.4458-.282-.4955-.507-1.0218-.668-1.5686-.163-.5237-.268-1.0633-.314-1.6095-.055-.5393-.082-1.0811-.082-1.6232v-12.5214z" fill="#933fa1"/><path d="m102.098 77.0001c14.222 0 25.752-.6229 25.752-1.3913s-11.53-1.3913-25.752-1.3913c-14.2227 0-25.7523.6229-25.7523 1.3913s11.5296 1.3913 25.7523 1.3913z" fill="url(#a)"/><path d="m66.5243 50.3885c.0911.0805.1919.1492.3001.2046 1.3401.5102 2.7677.7512 4.201.7093.1354.0062.2689.0338.3956.0818 1.348.5976 2.834.8145 4.2966.6275.7237-.1329 1.4115-.4163 2.0187-.8321.1422-.1191.3104-.2031.491-.2455 2.602-.724 5.2711-1.181 7.9657-1.364h.3137c.4362-.0271.8579-.1671 1.2237-.4062s.6633-.5692.8632-.9578l.6138-1.1594-.2455-2.4142c-.0067-.0452-.0067-.0912 0-.1364v-.191c.0164-.1642.0918-.3169.2122-.4297.1204-.1129.2776-.1783.4425-.1841h1.4732l3.2326-5.1831s.0682-.1228.0955-.1228 0 .1091 0 .1364c.0682.2455.1227.491.1773.7366.3551 1.4401.6104 2.9031.7638 4.3784h12.876c.08-1.2199.272-2.4299.573-3.6146.099-.3773.227-.7466.382-1.1048v-.0819c.028-.0809.065-.1586.109-.2319l.068-.1091 1.228 1.6232 2.414 3.5191h1.582c.086-.0002.172.0165.251.0493.08.0327.152.0809.213.1416.114.1152.191.2629.218.4229v.1227.1091.1637l-.15 1.9096c.532.5085 1.092.9867 1.678 1.4322.225.1811.487.3115.767.3821s.572.0799.856.0271c.204-.0383.405-.0931.6-.1637 3.915-1.4185 2.851-9.2751 4.215-12.1122.019-.0351.044-.0662.075-.0914.03-.0253.066-.0441.104-.0556.038-.0114.078-.0151.117-.011.04.0042.078.0161.113.0352.211.126.446.2074.69.2391s.492.0132.728-.0546c.237-.0677.457-.1832.647-.3392.19-.1561.346-.3495.459-.5682 1.044-1.2777 1.894-2.7025 2.523-4.2284.179-.4308.245-.9004.191-1.364-.096-.6001-.355-.9138-.791-.9275-.091-.0011-.18-.0306-.253-.0844s-.128-.1292-.156-.2156c-.3-.7775-.764-1.1594-1.364-.9139-.098.0312-.203.0294-.299-.0051s-.178-.0999-.233-.1859c-.174-.3328-.459-.5949-.804-.7416-.346-.1467-.732-.1691-1.092-.0631-.031.0066-.063.0049-.093-.005-.03-.0098-.057-.0275-.077-.0511-.021-.0236-.035-.0523-.042-.0832-.006-.0309-.003-.0629.007-.0926.396-1.0286.613-2.1173.641-3.219.019-.6984-.203-1.382-.627-1.9369-.614-.8047-1.255-1.1867-1.937-.7093-.223.1642-.398.3845-.509.6384-.11.254-.151.5325-.119.8075.159 1.7318.067 3.4775-.272 5.1831-.682 0-1.146.5593-1.364 1.6095-.044.2248-.067.4531-.069.682v2.9599c-.026.5583.154 1.1068.505 1.5413.06.0814.099.1763.113.2762s.004.2018-.031.2967c-.7 2.1907-1.566 4.3247-2.592 6.3835l-4.255-7.3656c-.172-.4359-.433-.831-.767-1.1598-.333-.3289-.732-.5843-1.17-.7498l-.409-.1637-.505-.1909c-.314.3546-.655.7229-1.023 1.0912l-.627.5728-.328.2865-.327.2864-.341.2865-.587.4637c-.286.2455-.6.4774-.9.7229l-.655.5047-.75.5592-1.105.8457-.913.7093-.219.2319c-.292.2695-.484.6301-.545 1.023-.02.1265-.02.2554 0 .3819v.0682.1091c-.007.0407-.007.0821 0 .1228v.1636.0955.0682l.095.1091.109.1092c.109.0694.229.1201.355.15.169.0478.349.0478.518 0 .069-.0243.13-.0667.178-.1228.327-.3137.15-.9275-.341-1.2958.214-.0317.433-.0119.639.058.205.0699.391.1877.541.3438.151.156.262.3457.325.5534s.075.4274.036.6407c-.014.1253-.042.2488-.082.3683-.069.2466-.206.4687-.396.6411-.172.1323-.371.2263-.582.2757-.212.0494-.432.053-.645.0107-1.078-.1687-2.053-.7387-2.728-1.5959-.5593-.641-1.0777-1.4594-1.7733-2.4415-.2864-.4092-.6002-.8457-.9684-1.364-.1228-.1637-2.4279-2.5234-2.578-2.728-.5173-.5308-1.0089-1.0861-1.4731-1.664l-.1637-.191c-.209.0997-.4058.2233-.5865.3683-.4132.3311-.7407.7569-.9548 1.2412l-6.9154 10.7755c-1.5413.2319-2.8507 1.214-5.7015 3.7101-.0398.034-.0874.0575-.1386.0683-.0512.0109-.1043.0087-.1545-.0062s-.0958-.0421-.1327-.0792c-.037-.037-.0641-.0828-.0789-.133-.0994-.3947-.3073-.7538-.6001-1.0366-.5548.9855-1.3459 1.8176-2.3021 2.4213-.9563.6038-2.0477.9603-3.1759 1.0374-1.1283.0771-2.2581-.1276-3.2876-.5956-1.0295-.4681-1.9264-1.1848-2.6101-2.0856h-.2864c-1.3504.7229-1.1185 1.7459.3819 3.0553z" fill="#f2c494" stroke="#282e3d" stroke-linecap="square" stroke-miterlimit="10" stroke-width="1.26851"/><path d="m113.772 59.8c2.292-1.4867 4.242-2.7962 5.907-3.7919l.313-.1909c.464-.2728.914-.532 1.364-.7502l.3-.1637.355-.1637.177-.0818.178-.0819c.432-.1942.892-.3185 1.364-.3683-1.364.1092-6.616.5184-8.866.9685l-.682 1.1048z" fill="#f2c494" stroke="#282e3d" stroke-linecap="square" stroke-miterlimit="10" stroke-width="1.26851"/><path d="m93.5449 61.6551 1.2003.7502.3138.1774.5455.3273.3138.191c1.6504.9821 3.4645 2.0187 5.5927 3.1372.156.0845.321.153.491.2046h.122c.418-.146.824-.3238 1.214-.532l.587-.3137.586-.3274.573-.3137 1.937-1.1185.205-.1091 2.005-1.2003.327-.191.409-.2591.778-.4774z" fill="#282e3d" stroke="#282e3d" stroke-linecap="square" stroke-miterlimit="10" stroke-width="1.26851"/><path d="m79.5918 54.2077h.341c.826-.0085 1.6428.1735 2.387.5319.1909.0955.3819.191.5592.3001l.5593.3001 1.0775.6138.532.3001.15.0818.5456.3274.532.3273.8047.4911.7775.4774 2.728 1.7322-.3683-3.5191-.3137-1.4322c-3.2054-.4364-7.7339-1.0912-10.3118-.5319z" fill="#f2c494" stroke="#282e3d" stroke-linecap="square" stroke-miterlimit="10" stroke-width="1.26851"/><path d="m114.128 56.2537.095-.8047 1.078-11.0347" stroke="#282e3d" stroke-linecap="square" stroke-miterlimit="10" stroke-width="1.26851"/><path d="m113.363 67.9704c-.132.6991-.458 1.3469-.94 1.8701s-1.102.9007-1.787 1.0898c-.264.0684-.533.1096-.805.1227-2.415.1364-2.851-.4092-5.702-.8593l-1.009-.1364-.614-.1091h-.3c.805-.1364 2.946-.532 3.233-.6138 2.659-.7638 5.265-1.4731 7.734-2.2233.163.2549.23.5593.19.8593z" fill="#f2c494" stroke="#282e3d" stroke-linecap="square" stroke-miterlimit="10" stroke-width="1.26851"/><path d="m101.865 66.5382c-.273.0818-.232.1364-.518.1637h-.505c-.522.0273-1.0461.0273-1.5686 0-1.1204-.0718-2.2238-.3109-3.2735-.7093-.447-.1884-.9214-.3036-1.4049-.341-.6372-.1093-1.2919-.0482-1.8979.1769-.606.2252-1.1418.6065-1.553 1.1052-6.0971-1.9232-10.5982-4.0101-13.1898-6.247-.6422-.5511-1.0936-1.2912-1.2896-2.1144s-.1266-1.6873.1984-2.4687c.5634-.9072 1.4592-1.5583 2.4961-1.8141.3041-.0707.6152-.1073.9275-.1091h.4228c.4713.0498.9317.1741 1.364.3683l.1773.0818.0682.1092.382.1909.3.1637c.4229.2182.873.4774 1.364.7502l.3137.1909c1.6641.9958 3.6283 2.3052 5.9061 3.7919h.1091l.3274.2046.341.2183.5183.341.1228.0818.3682.2319.3683.2319.7639.4774.7774.4774.7366.4501 2.0051 1.2003.2046.1091 1.9368 1.1185.5729.3137.5868.3274.586.3137c.294.2407.614.4467.955.6138z" fill="#f2c494" stroke="#282e3d" stroke-linecap="square" stroke-miterlimit="10" stroke-width="1.26851"/><path d="m126.513 60.5911c-3.274 2.9463-7.884 4.7604-13.054 6.4244h-.313c-2.483.7502-5.074 1.4595-7.748 2.2233-.273.0819-2.414.4774-3.219.6138h-.273l-1.05.1501c-2.1004.3273-3.5462.7911-5.6604.9411-.7108.074-1.4285-.0394-2.0818-.329-.6533-.2895-1.2194-.7451-1.6419-1.3214-.2851-.4402-.467-.9391-.532-1.4595-.0595-.3353.0086-.6808.191-.9684.42-.4888.9613-.8583 1.5695-1.0714s1.2618-.2623 1.895-.1426c.4704.0461.9307.1658 1.364.3547 1.0497.3984 2.1531.6375 3.2736.7092.5225.0274 1.046.0274 1.569 0h.613c.287-.0268.57-.0817.846-.1636h.123c.17-.0516.334-.1201.491-.2046 2.128-1.1185 3.942-2.1551 5.592-3.1372l.328-.191.532-.3273.3-.1773 1.2-.7502c.545-.3274 1.064-.6548 1.568-.9821l.191-.1228.178-.1227h.095l.655-.4229.355-.2318 2.728-1.7323.777-.4774.805-.491.532-.3274.545-.3274.15-.0818.532-.3001 1.078-.6138.559-.3001c.177-.1091.368-.2046.559-.3.731-.38 1.537-.5899 2.36-.6138h.341c2.837.4228 4.624 3.6418 1.678 6.2743z" fill="#f2c494" stroke="#282e3d" stroke-linecap="square" stroke-miterlimit="10" stroke-width="1.26851"/><path d="m104.853 41.5907h.791c.241-.032.478-.0868.709-.1636.448-.1571.857-.4083 1.2-.7366.708-.6689 1.23-1.5103 1.514-2.4415.115-.3119.302-.5923.546-.8184.241-.1984.535-.3217.846-.3547-.235.1525-.434.3523-.587.5865-.104.2305-.177.4736-.218.723-.125 1.1494-.699 2.2032-1.596 2.9325-.463.3704-1.021.6021-1.61.6684-.56.0429-1.12-.0958-1.595-.3956z" fill="#282e3d"/><path d="m98.9605 41.5908c-.4763.3112-1.0425.4551-1.6095.4092-.5847-.0666-1.1383-.2984-1.5959-.6683-.4514-.3607-.8253-.8088-1.0995-1.3174-.2742-.5085-.4431-1.0672-.4964-1.6425-.0461-.2499-.124-.4928-.2319-.7229-.1487-.2373-.3492-.4378-.5865-.5865.3147.0327.6132.1558.8593.3546.2397.2295.4259.5089.5456.8184.2846.9313.8064 1.7726 1.5141 2.4416.3429.3283.7522.5794 1.2003.7365.2354.0768.4774.1316.7229.1637.2455.0409.5047 0 .7775.0136z" fill="#282e3d"/><path d="m105.943 40.7178h.819c-.178-.2455-.45-.2455-.819 0z" stroke="#282e3d" stroke-linecap="square" stroke-miterlimit="10" stroke-width="1.26851"/><path d="m96.9414 40.6905h.8184c-.3546-.2182-.6274-.2182-.8184 0z" stroke="#282e3d" stroke-linecap="square" stroke-miterlimit="10" stroke-width="1.26851"/><path d="m90.1348 56.1855-.0955-.8729-1.1321-10.8983" stroke="#282e3d" stroke-linecap="square" stroke-miterlimit="10" stroke-width="1.26851"/><path d="m121.384 29.574c.474.6897 1.189 1.1765 2.005 1.364.402.0047.791-.1413 1.091-.4092.341-.2182.559-.5592.437-.8593-.065-.1349-.176-.2416-.314-.3001l-.573-.2591-1.173-.5456c-.777-.3683-1.555-.7366-2.305-1.1867l-.368-.2182.477-.7366.341.2455c.682.4774 1.364.9139 2.155 1.364l1.119.6275.559.3273c.234.1392.406.3643.477.6275.042.2534-.001.5135-.122.7402s-.313.4075-.546.5146c-.376.268-.836.3936-1.296.3547-.84-.2822-1.541-.8719-1.964-1.6505z" fill="#282e3d"/><path d="m121.725 33.7343c.422-.1631.811-.4037 1.145-.7093.223-.3439.328-.7507.3-1.1594v-.4229l.955.191-.15.3956c-.129.5364-.431 1.0155-.859 1.364-.44.1962-.911.3117-1.391.341z" fill="#282e3d"/><path d="m123.648 31.3882c-.095.8593-.232 1.5003.464 1.7459.373.0833.764.0198 1.091-.1774.722-.426 1.324-1.0289 1.749-1.752s.658-1.5425.679-2.3808" stroke="#282e3d" stroke-linecap="square" stroke-miterlimit="10" stroke-width="1.26851"/><path d="m125.203 29.4103c.263-.2423.451-.5545.543-.8999s.083-.7098-.025-1.0506" stroke="#282e3d" stroke-linecap="square" stroke-miterlimit="10" stroke-width="1.26851"/><path d="m122.966 28.0055c.273-.4855.453-1.0173.532-1.5686" stroke="#282e3d" stroke-linecap="square" stroke-miterlimit="10" stroke-width="1.26851"/><path d="m125.421 33.0795c0 .832 1.132 1.023 1.855.3819" stroke="#282e3d" stroke-linecap="square" stroke-miterlimit="10" stroke-width="1.26851"/><path d="m84.6521 43.5959c1.0132.2822 1.896.9094 2.4961 1.7732-.7272-.5962-1.6375-.9238-2.5779-.9276h-.4228l.0818-.982z" fill="#282e3d"/><path d="m117.783 40.9224c-.314.5729-.682 1.0366-.969 1.5549-.313.4984-.479 1.0754-.477 1.6641-.15-.6043-.122-1.2392.082-1.8278.164-.6001.409-1.173.559-1.7049l.109-.4092.887.3546z" fill="#282e3d"/><path d="m88.9764 44.4689c.0283-.0637.065-.1233.1092-.1773.0584-.0125.1188-.0125.1773 0h25.6021c.118.0024.231.0514.314.1364.053.0415.091.0989.109.1637.021.062.021.129 0 .191l-1.091 10.8028-.096.8047-.354 3.5464h-.11l-.327.2046-.341.2182-.518.341-.123.0819-.409.2591-.328.2046-.763.4774h-17.2822l-1.5686-.982-.1909-.1228-.1774-.1228h-.0954l-.6547-.4228-.3547-.3546-.3683-3.5191-.0818-.873-1.0912-10.6528c-.0165-.0679-.0118-.1394.0136-.2046zm13.1626 10.0663c.318 0 .629-.0944.894-.2713.265-.1768.471-.4282.593-.7223s.154-.6177.092-.9299c-.063-.3122-.216-.599-.441-.8241s-.512-.3784-.824-.4405-.636-.0302-.93.0916-.545.3281-.722.5928-.272.5759-.272.8942c0 .4269.17.8362.472 1.1381.302.3018.711.4714 1.138.4714z" fill="#f7f7f7" stroke="#282e3d" stroke-miterlimit="10" stroke-width="1.26851"/><path d="m93.5459 61.6552 1.2003.7501.3137.191h14.2811l.327-.2046.409-.2592.778-.4773z" stroke="#282e3d" stroke-miterlimit="10" stroke-width="1.26851"/><path d="m93.5459 61.6552 1.2003.7501.3137.1774h14.2261l.737-.4502.777-.4773z" fill="#f7f7f7" stroke="#282e3d" stroke-miterlimit="10" stroke-width=".654715"/><path d="m100.529 52.9257c0 .3183.095.6295.272.8942.176.2646.428.4709.722.5928.294.1218.618.1537.93.0916.312-.0622.599-.2154.824-.4405s.378-.5119.44-.8241.031-.6359-.091-.93-.328-.5454-.593-.7223c-.265-.1768-.576-.2712-.894-.2712-.427 0-.836.1695-1.138.4714-.302.3018-.472.7112-.472 1.1381z" fill="#282e3d"/><path d="m88.9767 44.4553c-.0093-.0496-.0093-.1005 0-.1501l.0682-.1364h25.8201c.059-.0003.117.0116.171.0351.055.0235.103.058.143.1013.061.077.108.1649.136.2592v-.2865c-.033-.1749-.124-.3335-.259-.4501-.118-.1112-.274-.1744-.436-.1773h-24.9613c-.165.0058-.3222.0712-.4426.184-.1204.1129-.1958.2656-.2122.4298z" stroke="#282e3d" stroke-miterlimit="10" stroke-width="1.26851"/><path d="m91.1313 28.6057c.4872.9605 1.0626 1.8738 1.7186 2.728l.2183.2864.1637.191c.558.6836 1.1545 1.3348 1.7868 1.9505.15.15 2.4552 2.5097 2.5779 2.728.3683.4637.682.9002.9685 1.3639.6956.9821 1.2139 1.8005 1.7729 2.4416.676.8571 1.65 1.4272 2.728 1.5959.213.0423.433.0387.645-.0107s.41-.1434.583-.2758c.189-.1723.326-.3945.395-.6411.041-.1195.068-.2429.082-.3682.039-.2134.027-.433-.035-.6407-.063-.2077-.174-.3975-.325-.5535s-.337-.2739-.542-.3437c-.205-.0699-.424-.0898-.639-.058.491.3683.668.9821.341 1.2958-.047.056-.108.0984-.177.1227-.17.0478-.349.0478-.519 0-.123-.0357-.243-.0861-.354-.15l-.109-.1091-.096-.1091v-.0682-.0955-.1637c-.006-.0407-.006-.0821 0-.1228.007-.036.007-.073 0-.1091v-.0682c-.02-.1219-.02-.2463 0-.3682.083-.5049.357-.9587.764-1.2686l.914-.7092 1.105-.8457.75-.5592.654-.5047c.301-.2455.614-.4774.901-.7229l.586-.4638.341-.2864.328-.2865.327-.2864.627-.5729c.355-.3683.71-.7365 1.023-1.0912l.082-.0955c1.047-1.1689 1.94-2.466 2.66-3.86 1.432-2.8917 1.364-5.456-.382-6.9564-.244-.2125-.509-.3998-.791-.5592-.549-.2981-1.136-.5185-1.746-.6548l-.859-.4228c.149.1075.286.231.409.3683v.0818c.24.2944.421.6325.532.9957.198.6305.198 1.3065 0 1.9369-.097.3324-.249.6459-.45.9275-.552.7277-1.237 1.3434-2.019 1.8141.734-.7403 1.212-1.6963 1.364-2.728.022-.1446.022-.2917 0-.4364-.043-.2197-.147-.4229-.3-.5865-.518-.6138-1.446-.3683-2.332.3546-.328.2908-.715.5067-1.135.6326-.419.1259-.861.1589-1.295.0966s-.849-.2184-1.216-.4574-.678-.5552-.91-.9265h-.232c-.234.3694-.545.6838-.913.9214-.367.2377-.781.3929-1.2141.4551-.433.0623-.8742.03-1.2935-.0947-.4192-.1246-.8065-.3385-1.1352-.6271-.9138-.7366-1.8414-.9821-2.3597-.3137-.149.1502-.253.3392-.3001.5456-.0082.1226-.0082.2456 0 .3682.1161 1.0662.5982 2.0592 1.364 2.8099-.7848-.4672-1.4706-1.0835-2.0187-1.8141-.1972-.2811-.3533-.5888-.4637-.9139 0 0 0-.0818 0-.1228-.0508-.1694-.0873-.3428-.1091-.5183-.0759-.7893.1374-1.5793.6001-2.2233l-.0136-.1773c.1334-.1446.2795-.277.4364-.3956-.218-.0144-.4367-.0144-.6547 0-.6541.0558-1.2877.2561-1.855.5865-.2561.1495-.4941.328-.7093.532-1.8004 1.6914-2.046 4.9649-.2455 8.6068z" fill="#f7f7f7" stroke="#282e3d" stroke-miterlimit="10" stroke-width="1.26851"/><path d="m102.221 20.9947c.232.3713.543.6874.91.9264.367.2391.782.3951 1.216.4575.433.0623.875.0293 1.295-.0966s.807-.3418 1.134-.6326c.887-.7229 1.815-.9685 2.333-.3547.153.1637.257.3669.3.5866.022.1446.022.2918 0 .4364-.152 1.0317-.63 1.9877-1.364 2.728.782-.4707 1.467-1.0865 2.019-1.8141.201-.2816.353-.5952.45-.9275.198-.6304.198-1.3064 0-1.9369-.111-.3632-.292-.7014-.532-.9957v-.0818c-.113-.1406-.242-.2687-.382-.3819l-.15-.1092c-1.964-1.3639-4.501 1.364-7.229 2.1961z" fill="#f7f7f7" stroke="#282e3d" stroke-miterlimit="10" stroke-width="1.26851"/><path d="m93.4369 21.7039c.0219.1755.0584.3489.1091.5184v.1227c.1104.3251.2666.6328.4638.9139.548.7306 1.2338 1.3469 2.0187 1.8141-.7659-.7507-1.2479-1.7437-1.364-2.8098-.0083-.1226-.0083-.2457 0-.3683.047-.2063.151-.3954.3001-.5456.5183-.6684 1.4458-.4228 2.3597.3137.3286.2886.7159.5026 1.1352.6272.4192.1246.8605.1569 1.2934.0947.4331-.0622.8471-.2175 1.2141-.4551.368-.2377.679-.552.913-.9215-2.728-.8729-5.3059-3.6009-7.2701-2.196l-.0136.0682c-.1588.1315-.305.2777-.4365.4365l-.1228.1636c-.4627.644-.6759 1.434-.6001 2.2233z" fill="#f7f7f7" stroke="#282e3d" stroke-miterlimit="10" stroke-width="1.26851"/><g fill="#282e3d"><path d="m111.809 23.0951c-.062-.4747-.222-.9312-.471-1.34s-.581-.7608-.975-1.0333l.6-.6411c.35.4119.607.8945.753 1.4147.146.5203.178 1.066.093 1.5997z"/><path d="m112.327 20.4763c-.724-.4744-1.562-.7474-2.428-.7911l.205-.8321c.868.3422 1.633.901 2.223 1.6232z"/><path d="m106.258 19.3988c.722-.4982 1.595-.7297 2.469-.6547.463.0491.908.2085 1.297.4648s.711.602.94 1.0083l-.764.3682c-.134-.3405-.35-.643-.628-.8808s-.611-.4037-.968-.4831c-.779-.213-1.608-.1503-2.346.1773z"/><path d="m112.683 27.0234c.412-.6525.681-1.385.789-2.1491.108-.7642.053-1.5426-.162-2.2838.388.7152.586 1.5186.573 2.3324-.011.8311-.154 1.6552-.423 2.4415z"/><path d="m111.427 27.46c.08 1.2945-.149 2.5896-.668 3.7782l-.709-.4501c.715-.9855 1.187-2.1258 1.377-3.3281z"/><path d="m110.282 29.2877c.119.5588.12 1.1363.003 1.6954-.118.5591-.351 1.0874-.685 1.5509l-.641-.5592c.399-.3279.724-.7373.952-1.2007.228-.4633.354-.9701.371-1.4864z"/><path d="m103.421 36.4623c.9-.5548 1.668-1.2996 2.25-2.1824-.369 1.0228-.955 1.9534-1.718 2.728z"/><path d="m104.034 35.3029c.056.4791-.06.9625-.327 1.3639-.223.3602-.423.7337-.6 1.1185l-.723-.4228c.299-.3418.628-.6567.982-.9412.352-.2789.589-.6766.668-1.1184z"/><path d="m101.484 37.2943c-.057.4779.024.9622.235 1.3951.21.4329.541.7961.952 1.0465l-.519.6683c-.386-.4181-.641-.9394-.736-1.5004-.157-.5291-.133-1.0955.068-1.6095z"/><path d="m98.5791 36.5441c.5075 1.2488 1.2171 2.4054 2.1009 3.4236l-.655.5319c-.7002-1.2282-1.189-2.5653-1.4459-3.9555z"/><path d="m98.2106 38.0035c-.2104-.4789-.3572-.9833-.4365-1.5003-.0655-.493-.253-.9619-.5456-1.364.4031.31.7258.7123.9412 1.173.1969.4226.4491.817.7502 1.173z"/><path d="m92.5769 27.2144c-.2481.3264-.4075.7116-.4624 1.118-.055.4064-.0038.8201.1487 1.2007.335.7547.7963 1.4466 1.364 2.046l-.682.4911c-.4972-.7407-.8618-1.5623-1.0775-2.4279-.0996-.4492-.0996-.9148 0-1.364.1346-.4129.3799-.7809.7092-1.0639z"/><path d="m93.2316 28.9058c-.0187.9946.2462 1.9739.7638 2.8234.6144.7995 1.3401 1.5069 2.1551 2.1006-.5694-.0414-1.1223-.2099-1.618-.4932-.4957-.2832-.9216-.674-1.2464-1.1436-.3318-.4913-.5077-1.0713-.5047-1.6641-.0064-.5727.1496-1.1355.4502-1.6231z"/><path d="m90.8718 22.5905c-.2896.9693-.3809 1.987-.2684 2.9924.1125 1.0053.4265 1.9777.9231 2.8591l-.7775.3273c-.3608-1.007-.5498-2.0675-.5592-3.1371-.0105-1.053.2229-2.0941.682-3.0417z"/><path d="m94.0094 20.3535c-.682.5729-1.4595.7502-1.8414 1.4868.07-.4124.2489-.7985.5183-1.1185.2502-.2949.4825-.6047.6956-.9275z"/><path d="m93.7778 22.004c-.3078.2746-.5343.6284-.6547 1.023-.1072.4483-.1072.9156 0 1.364-.2353-.4181-.3707-.8849-.3955-1.364-.0018-.5279.1396-1.0465.4092-1.5004z"/><path d="m93.123 22.2631c.0059-.5809.197-1.1448.5456-1.6095.1533-.2262.3533-.4169.5866-.5592l.682-.4092-.532.5592c-.1684.1735-.2945.3836-.3683.6138-.171.435-.1949.9141-.0682 1.364z"/></g><path d="m92.4131 16.0024c.4801.0776.9263.2959 1.2821.6274.0103-.6169.065-1.2323.1637-1.8413-.6188.206-1.1358.6401-1.4458 1.2139z" stroke="#282e3d" stroke-miterlimit="10" stroke-width="1.26851"/><path d="m111.564 16.0024c-.48.0776-.926.2959-1.282.6274-.01-.6169-.065-1.2323-.164-1.8413.622.201 1.14.6365 1.446 1.2139z" stroke="#282e3d" stroke-miterlimit="10" stroke-width="1.26851"/><path d="m91.1856 16.7662c.1025-.2372.275-.4374.4943-.5739.2194-.1365.4753-.2028.7333-.1899.4801.0775.9264.2959 1.2822.6274.0102-.6169.0649-1.2323.1636-1.8414 1.6096-9.68432 14.377-9.84799 16.204-.3137.138.7516.211 1.5137.218 2.2779.427-.4542 1.015-.7234 1.637-.7502.227.0278.444.1124.63.2458.186.1335.335.3116.434.518.216.3681.329.7873.328 1.214.014.2271.014.4548 0 .682-.074.5586-.269 1.0941-.573 1.5685-.245-.2124-.51-.3998-.791-.5592-.549-.2981-1.137-.5184-1.746-.6547l-.6-.1091-.151-.1092c-1.964-1.3639-4.501 1.364-7.229 2.1961h-.272c-2.7285-.873-5.3064-3.601-7.2706-2.1961l-.0818.0819c-.218-.0144-.4367-.0144-.6547 0-.6542.0557-1.2878.256-1.855.5865-.2561.1495-.4941.328-.7093.532-.2374-.4222-.3946-.8847-.4638-1.364-.014-.2271-.014-.4549 0-.682-.0198-.4131.0746-.8237.2728-1.1867z" fill="#f2c494" stroke="#282e3d" stroke-miterlimit="10" stroke-width="1.26851"/><path d="m104.662 23.7634c-.313.4028-.708.7333-1.161.9688-.452.2354-.949.3702-1.458.3952-.512-.0126-1.014-.142-1.468-.3784s-.8476-.5735-1.1512-.9856c.7722.5369 1.6802.8443 2.6192.8866.933-.0722 1.833-.377 2.619-.8866z" fill="#282e3d"/><path d="m103.761 17.9938c.165.0985.308.2308.419.3883.11.1575.186.3366.222.5255.015.4132-.115.8185-.368 1.1458-.23.3136-.528.5703-.873.7502-.346.2209-.738.3608-1.146.4092-.415-.0439-.816-.179-1.173-.3956-.313-.1982-.582-.4581-.791-.7638-.2618-.3177-.3977-.7207-.3818-1.1321.033-.1902.106-.3712.2142-.5311.1081-.1599.2486-.295.4136-.3964-.238.2345-.3753.5526-.3823.8866.022.3292.1623.6394.3953.8729.452.4997 1.065.8234 1.733.9139.666-.0927 1.279-.4161 1.732-.9139.217-.2305.347-.5295.368-.8457-.025-.331-.171-.6414-.409-.8729z" fill="#282e3d"/><path d="m103.012 12.3605c1.063-.5865 2.4 0 3.832 1.0094-1.5-2.4416-3.273-2.9463-3.914-1.0639z" fill="#282e3d" stroke="#282e3d" stroke-miterlimit="10" stroke-width=".245518"/><path d="m97.0098 13.3699c1.4322-1.0094 2.7279-1.5959 3.8332-1.0094h.068c-.628-1.9368-2.4008-1.4321-3.9012 1.0094z" fill="#282e3d" stroke="#282e3d" stroke-miterlimit="10" stroke-width=".245518"/><path d="m103.053 15.4977c0 1.364 2.482 1.8277 3.792.341-.673.2381-1.389.331-2.101.2728.396-.0525.767-.2237 1.064-.4911-.907.264-1.876.2209-2.755-.1227z" fill="#282e3d" stroke="#282e3d" stroke-miterlimit="10" stroke-width=".245518"/><path d="m97.0645 15.8387c1.3639 1.4867 3.7375 1.0912 3.7915-.341-.8712.3375-1.8293.3806-2.7276.1227.2969.2674.6678.4386 1.0639.4911-.7207.063-1.4464-.03-2.1278-.2728z" fill="#282e3d" stroke="#282e3d" stroke-miterlimit="10" stroke-width=".245518"/><path d="m112.573 17.8301c-.091-.1619-.214-.3034-.362-.416s-.317-.1938-.497-.2387c-.086-.0277-.179-.0295-.266-.0053-.087.0243-.166.0735-.225.1417-.123.1364-.191.4365-.082.5047s.286 0 .559.15c.259.0948.48.2721.628.5047.059.1258.09.2632.09.4024s-.031.2766-.09.4024c-.051.1228-.134.2303-.239.3116s-.23.1338-.362.1521c.134-.1205.218-.2866.236-.4657.017-.1791-.033-.3584-.14-.5027-.098-.1453-.223-.2703-.368-.3683l-.273-.1227c-.112-.0949-.189-.2246-.218-.3683-.096-.3547.095-.5183.177-.7502.068-.1195.162-.222.276-.2999.113-.078.243-.1293.379-.1502.134-.0002.266.0291.387.0858.122.0566.229.1393.315.2421s.148.2233.182.3528c.035.1296.04.265.016.3968z" fill="#282e3d"/><path d="m91.5262 17.8301c-.0256-.1237-.0245-.2515.0033-.3747s.0816-.239.1578-.3398c.0762-.1007.1731-.184.2841-.2443s.2336-.0961.3595-.1052c.1316-.0068.2626.0211.3799.081.1173.0598.2168.1495.2885.26.1414.1952.2391.4185.2864.6548 0 .3273-.3546.5183-.5046.5592-.1536.0809-.2958.1818-.4229.3001-.2182.2319-.5046.491-.2591.8729-.1321-.035-.2474-.1161-.3249-.2287-.0776-.1126-.1123-.2491-.098-.3851.0289-.2617.1441-.5065.3274-.6956.1885-.1414.4085-.235.6411-.2728.2318 0 .3546 0 .4092-.1637.0109-.0912-.0008-.1837-.0341-.2694-.0333-.0856-.0872-.1618-.1569-.2216-.0734-.0394-.1554-.06-.2387-.06s-.1653.0206-.2387.06c-.3467.0973-.6409.3277-.8184.6411z" fill="#282e3d"/><path d="m64.9971 43.1458c0 1.3488.4 2.6674 1.1493 3.7889.7494 1.1216 1.8146 1.9957 3.0607 2.5119 1.2462.5162 2.6175.6512 3.9404.3881 1.323-.2632 2.5382-.9127 3.492-1.8665.9537-.9538 1.6033-2.169 1.8664-3.4919.2632-1.323.1281-2.6942-.3881-3.9404-.5161-1.2462-1.3903-2.3113-2.5118-3.0607s-2.4401-1.1494-3.789-1.1494c-1.8087 0-3.5434.7185-4.8224 1.9975s-1.9975 3.0137-1.9975 4.8225z" fill="#933fa1"/><path d="m64.9971 43.1458c0 1.3488.4 2.6674 1.1493 3.7889.7494 1.1216 1.8146 1.9957 3.0607 2.5119 1.2462.5162 2.6175.6512 3.9404.3881 1.323-.2632 2.5382-.9127 3.492-1.8665.9537-.9538 1.6033-2.169 1.8664-3.4919.2632-1.323.1281-2.6942-.3881-3.9404-.5161-1.2462-1.3903-2.3113-2.5118-3.0607s-2.4401-1.1494-3.789-1.1494c-1.8087 0-3.5434.7185-4.8224 1.9975s-1.9975 3.0137-1.9975 4.8225z" stroke="#282e3d" stroke-miterlimit="10" stroke-width="1.24805"/><path d="m72.3627 40.4041c.3317.017.6501.1363.9114.3414.2613.2052.4527.4861.548.8044.0539.1879.0949.3793.1228.5729l-1.364.0954c-.0069-.1016-.034-.2009-.0798-.2919-.0457-.091-.1093-.1719-.1868-.238s-.1675-.116-.2646-.1468-.1994-.0419-.3008-.0325c-.2865 0-.5729.1227-.5729.3955s.2046.3547 1.0093.682l.6138.2319c.3734.0696.7109.2669.9548.558.2439.2912.3789.6581.3819 1.0379 0 .9548-.7365 1.514-1.7186 1.6231v.8184h-1.0093v-.8184c-.2417.0087-.4824-.0341-.7063-.1256-.2238-.0915-.4256-.2295-.592-.4049-.1664-.1755-.2936-.3843-.3732-.6127-.0795-.2283-.1095-.471-.0881-.7118l1.364-.0819c0 .5456.2864.8321.8593.8321.3274 0 .6957-.0819.6957-.4638s-.2456-.3819-.6275-.5456l-.5319-.2319c-.7775-.2455-1.5277-.6683-1.5277-1.6367.0051-.4155.1641-.8142.4464-1.1191.2822-.3049.6675-.4943 1.0813-.5314v-.7502h.9548z" fill="#fff"/></g></svg>