<svg fill="none" height="48" viewBox="0 0 70 48" width="70" xmlns="http://www.w3.org/2000/svg"><g fill="#3ab0e2"><path d="m35.3945 34.7618c2.9344-2.5323 4.7951-6.3003 4.7951-10.5079s-1.8607-7.9756-4.7951-10.5079c2.3832-2.0566 5.4745-3.2981 8.8525-3.2981 7.5373 0 13.6475 6.1812 13.6475 13.806s-6.1102 13.806-13.6475 13.806c-3.378 0-6.4693-1.2415-8.8525-3.2981z"/><path clip-rule="evenodd" d="m26.5421 38.0599c3.3779 0 6.4693-1.2415 8.8524-3.2981 2.3832 2.0566 5.4745 3.2981 8.8525 3.2981 7.5373 0 13.6475-6.1812 13.6475-13.806s-6.1102-13.806-13.6475-13.806c-3.378 0-6.4693 1.2415-8.8525 3.2981-2.3831-2.0566-5.4745-3.2981-8.8524-3.2981-7.5374 0-13.6476 6.1812-13.6476 13.806s6.1102 13.806 13.6476 13.806zm8.8524-24.3139c-2.9343 2.5323-4.7949 6.3003-4.7949 10.5079s1.8606 7.9756 4.7949 10.5079c2.9344-2.5323 4.7951-6.3003 4.7951-10.5079s-1.8607-7.9756-4.7951-10.5079z" fill-rule="evenodd"/></g></svg>