<svg fill="none" height="48" viewBox="0 0 70 48" width="70" xmlns="http://www.w3.org/2000/svg" xmlns:xlink="http://www.w3.org/1999/xlink"><filter id="a" color-interpolation-filters="sRGB" filterUnits="userSpaceOnUse" height="56" width="78" x="-4" y="0"><feFlood flood-opacity="0" result="BackgroundImageFix"/><feColorMatrix in="SourceAlpha" result="hardAlpha" type="matrix" values="0 0 0 0 0 0 0 0 0 0 0 0 0 0 0 0 0 0 127 0"/><feOffset dy="4"/><feGaussianBlur stdDeviation="2"/><feComposite in2="hardAlpha" operator="out"/><feColorMatrix type="matrix" values="0 0 0 0 0 0 0 0 0 0 0 0 0 0 0 0 0 0 0.25 0"/><feBlend in2="BackgroundImageFix" mode="normal" result="effect1_dropShadow_1531_3638"/><feBlend in="SourceGraphic" in2="effect1_dropShadow_1531_3638" mode="normal" result="shape"/></filter><g clip-rule="evenodd" fill="#3ab0e2" fill-rule="evenodd" filter="url(#a)"><path d="m14.6237 17.0023c.4467-.0026 1.7742-.1222 2.3365 1.7756.3788 1.2784.9822 3.3725 1.8102 6.2823h.3372c.8879-3.0677 1.4979-5.1618 1.8299-6.2823.5682-1.9176 1.9886-1.7755 2.5568-1.7755h4.3837v13.6363h-4.468v-8.0361h-.2996l-2.4906 8.0361h-3.3616l-2.4906-8.0421h-.2997v8.0421h-4.4679v-13.6363zm19.6702.0001v8.0421h.3564l3.0296-6.613c.5882-1.316 1.8416-1.4291 1.8416-1.4291h4.3236v13.6363h-4.5612v-8.0421h-.3565l-2.9702 6.613c-.5881 1.31-1.901 1.4291-1.901 1.4291h-4.3236v-13.6363zm25.317 6.4801c-.6363 1.8029-2.6343 3.0942-4.8465 3.0942h-4.7834v4.062h-4.3374v-7.1562z"/><path d="m54.9735 17.0024h-9.5575c.2275 3.0359 2.8419 5.6348 5.5484 5.6348h8.9478c.5163-2.5232-1.2612-5.6348-4.9387-5.6348z"/></g></svg>