<svg fill="none" height="137" viewBox="0 0 371 137" width="371" xmlns="http://www.w3.org/2000/svg"><ellipse cx="253.5" cy="63" fill="#91ceeb" rx="35" ry="33"/><g fill="#265af5"><path clip-rule="evenodd" d="m52.5 41.4732c0 15.4504 11.689 23.5267 23.3779 23.5267 10.6263 0 23.0237-7.7252 23.0237-23.5267 0-14.3969-12.0432-22.4732-22.6695-22.4732s-23.7321 8.0763-23.7321 22.4732zm35.4211.3512c0-5.6183-4.2506-11.9389-11.689-11.9389-9.9179 0-12.7516 7.0229-13.1058 11.5877-.3542 4.5649 3.1879 12.9924 12.7516 12.9924 8.1469 0 12.0432-7.0229 12.0432-12.6412z" fill-rule="evenodd"/><path d="m110.637 20.0534h33.29c3.188 0 1.777 2.458 1.423 2.8092l-23.384 30.5496h19.128c1.771 0 4.959 1.4045 4.959 5.6183 0 4.2137-4.369 5.0509-6.376 5.0509h-36.125c-1.416 0-2.12-1.5395-.704-3.2952l22.757-29.8473h-13.555c-9.914 0-8.143-10.8855-1.413-10.8855z"/><path d="m221.859 22.1603v36.8738c0 5.9695 10.98 8.0804 10.98-2.4616v-15.8015l28.337 22.8194c1.771 1.4041 3.324.3539 3.324-1.3996v-36.1679c0-1.9898-1.011-5.9695-5.448-5.9695-4.436 0-5.314 3.8626-5.314 5.9695v17.5572l-27.627-21.7709c-3.19-2.8092-4.252-1.7558-4.252.3511z"/><path clip-rule="evenodd" d="m181.479 19.0001c-21.253 0-32.234 11.9387-32.234 23.1754 0 8.4275 8.147 22.8245 32.234 22.8245 24.655 0 32.587-15.4504 32.587-22.4733 0-10.8855-11.334-23.5266-32.587-23.5266zm0 10.8854c-11.334 0-21.607 5.9695-21.607 12.29s11.69 12.2902 21.607 12.2902c9.918 0 21.606-5.6185 21.606-12.2902 0-6.6716-9.917-12.29-21.606-12.29z" fill-rule="evenodd"/></g></svg>