<svg fill="none" height="137" viewBox="0 0 371 137" width="371" xmlns="http://www.w3.org/2000/svg" xmlns:xlink="http://www.w3.org/1999/xlink"><clipPath id="a"><path d="m66.5 16h198v52h-198z"/></clipPath><ellipse cx="253.5" cy="63" fill="#91ceeb" rx="35" ry="33"/><g clip-path="url(#a)"><g fill="#fff"><path d="m124.384 40.324.761-2.4196-2.519.0783c-.212 0-1.759-.0436-3.26-1.1239.112.011.224.0261.338.0261 1.545 0 3.039-.9234 3.638-2.2433l1.083-2.3849c-1.358.0175-2.599-.1524-2.599-.1524-.011-.0023-.99-.1263-2.122-1.2742-.812-.8232-1.816-1.259-2.905-1.259-.475 0-.901.085-1.267.2005.057-.1939.111-.3899.142-.5925.347-2.2324-1.101-3.9357-1.101-3.9334l-1.893-2.3283-1.174 2.7355c-.004.0088-.301.6492-.832.9627-.16-.8037-.552-1.7075-1.393-2.5722-1.584-1.6292-3.512-1.8709-4.521-1.8709-.467 0-.801.0501-.882.0631l-2.286.4466c.132-.5074.413-1.3896.926-2.1846l1.261-1.9514-3.174.3593-1.0115-2.1323-1.9568 1.0019-1.8098-1.7751-1.8057 1.7751-1.9634-1.0019-1.0092 2.1323-3.1721-.3593 1.2635 1.9514c.5134.795.7943 1.6749.9237 2.1823l-2.1808-.4268-.0745-.013c-.1097-.0175-.4409-.0676-.9104-.0676-1.0092 0-2.9375.2439-4.5171 1.8709-.8424.8626-1.2351 1.7685-1.3974 2.5722-.5265-.3092-.8205-.9409-.8205-.9409l-1.1759-2.7508-1.9239 2.3436c-.2348.3026-1.3952 1.9036-1.0794 3.916.033.2004.0856.3964.1427.5903-.3642-.1155-.7898-.2004-1.2658-.2004-1.0882 0-2.0929.4356-2.9068 1.259-1.1278 1.1434-2.1018 1.2719-2.0929 1.2719 0 0-1.029.1829-2.6216.1545l1.0771 2.385c.599 1.3221 2.095 2.2434 3.6374 2.2434.1163 0 .2281-.0154.3422-.0262-1.4962 1.0803-3.0428 1.1238-3.2294 1.126l-2.5667-.0826.7766 2.4174c.3906 1.246 1.6958 3.3107 4.1969 3.5328-.2722 1.1326-.8755 2.4002-2.2005 2.9468l-1.9108.7819 1.042 1.8012c.588.9715 1.9679 2.1083 3.9335 2.1083.4256-.0021.8358-.0435 1.2308-.1262.1009.4443.2281.8887.3773 1.3285.5857 1.7293.0812 2.9359.0746 2.9491l-.9434 1.9623 2.1061.5511c.0264.0087.6625.1807 1.4589.1807.362 0 .7064-.037 1.0311-.1131.2456-.0568.4805-.1329.7064-.2245.272.4857.6033.9279.9894 1.3242 1.3493 1.3744 3.2601 2.0713 5.6819 2.0713h.0088l1.7288-.0218-3.5716 1.4724 2.7116 1.3003c.985.477 2.1543 1.041 3.3433 1.4723l-.3378.9192.9345.4225c.0833.0369 1.8801.8363 4.8682 1.0062 0 0 .7217.0327 1.1187.0327.3971 0 1.11-.0348 1.11-.0348 2.9684-.1743 4.7517-.9649 4.8357-1.0041l.936-.4247-.342-.9212c1.224-.4444 2.435-1.0304 3.379-1.4877l2.661-1.2829-3.561-1.4744 1.735.0218c2.425 0 4.338-.697 5.684-2.0735.384-.3942.716-.8363.99-1.3221.226.0915.463.1677.708.2244.323.0761.667.1133 1.029.1133.784 0 1.426-.1721 1.444-.1765l2.115-.5553-.922-1.9254c-.022-.0502-.526-1.2546.06-2.9861.149-.4421.274-.8864.375-1.3286.397.0827.811.1263 1.239.1263 2.503 0 3.703-1.7489 3.936-2.1279l1.031-1.7815-1.911-.7798c-1.327-.5468-1.928-1.8166-2.198-2.9468 2.466-.2092 3.791-2.2739 4.195-3.5285zm-34.1537-16.8099-.0261.0066.0219-.0283z"/><path d="m95.8289 23.4075c-2.0227.0021-3.5385.6599-3.8699 1.433l3.8699 1.5161 3.8699-1.5161c-.3291-.7731-1.845-1.4309-3.8699-1.433z"/><path d="m95.8686 63.5372h-.0044-.033-.0373-.0022c-1.2263.0087-2.9134-.2418-3.7273-.477l-.9785 2.6288c.6451.2288 2.8302.6643 4.7453.6643 1.9108 0 4.0981-.4377 4.7408-.6643l-.9763-2.6288c-.816.2373-2.5009.4857-3.7271.477z"/><path d="m103.273 60.9237c-.728.4095-2.354 1.0236-3.2994 1.309l.7944 2.1714c1.463-.3965 2.67-.8602 3.668-1.3568l-1.648-.5446z"/><path d="m88.3873 60.9237.487 1.579-1.6497.5446c.996.4966 2.2091.9603 3.6658 1.3568l.7942-2.1714c-.9412-.2854-2.569-.9018-3.2973-1.309z"/><path d="m95.8297 20.8938c1.5247 0 3.0208.3615 4.1703.9976.105-.3508.252-.7755.452-1.2198l-.434.0523-.4567.048-.1931-.4117-.5813-1.2196-1.0596.5487-.4124.2091-.3291-.3222-1.1518-1.1326-1.1495 1.1326-.3291.3222-.4124-.2091-1.0662-.5487-.5748 1.2196-.1973.4117-.4564-.048-.4344-.0523c.1997.4465.3445.869.4519 1.2198 1.1518-.6361 2.6435-.9976 4.1639-.9976z"/><path d="m119.108 34.9901c.197.0675.399.0979.599.0979.862 0 1.695-.5531 1.983-1.187 0 0-1.582-.0958-3.282-1.8099-.542-.5554-1.115-.7209-1.606-.7209-.764 0-1.336.4008-1.336.4008 2.053 1.0846 2.472 2.827 3.642 3.2191z"/><path d="m71.9527 35.088c.1996 0 .4015-.0304.5946-.0979 1.1736-.3921 1.5948-2.1345 3.6483-3.2191 0 0-.5749-.4008-1.3339-.4008-.4936 0-1.0662.1655-1.6103.7209-1.6979 1.7141-3.2797 1.8099-3.2797 1.8099.283.6339 1.1188 1.187 1.981 1.187z"/><path d="m119.666 42.0709c.035.002.065.002.103.002 2.152 0 2.882-2.2892 2.882-2.2892h-.041c-.395 0-3.596-.0913-5.858-2.9467-1.489-1.8774-2.709-3.5284-5.12-4.1775l-.237-.0414-.053-.2395c-.066-.3659.187-.7078.759-1.0781 3.326-2.1627 1.069-4.9202 1.069-4.9202s-.95 2.2064-3.076 2.2064c-.05 0-.105-.0023-.158-.0023-.241-.013-.474-.0217-.709-.0717l-.392-.0763s.605-1.6357-.856-3.1385c-1.101-1.1347-2.442-1.3263-3.216-1.3263-.391 0-.638.0499-.638.0499.735.954 1.265 2.5353.416 3.511-.732.8385-2.522.8799-2.522 2.1301 0 .5293.498 1.1479 1.393 1.7032 2.691 1.6836 5.363 3.916 6.474 6.9087 1.388 3.7331-.176 6.2096-2.409 7.6296 0 0 .7.6403 1.715.7209.207.0196.408.0283.597.0283 2.143 0 3.251-.9976 3.251-.9976s-.182 1.3787-1.299 2.6594c-1.028 1.1827-2.38 1.8775-4.44 1.908 0 0-.066.9495.847 1.7707.584.5183 1.933.6882 1.933.6882s-2.525.5074-2.804 4.2102c-.151 2.0058-.667 2.7028-.667 2.7028h.046c5.86 0 5.709-4.9898 5.709-4.9898s.408 1.4766 2.042 1.8622c.197.0523.408.0719.61.0719.526 0 .983-.122.983-.122s-.856-1.7924-.007-4.2994c.704-2.08.59-3.622.59-3.622s.79 1.1848 2.747 1.1958h.02c1.63 0 2.34-1.2262 2.34-1.2262-3.907-1.6097-3.521-6.8063-3.521-6.8063s.507.3745 1.497.4117zm-1.176 5.4274c-1.589-.7774-2.593-2.8422-2.837-3.5872-.263 4.0947-2.277 6.937-4.631 9.6726-1.222 1.4178-1.648 2.7965-1.648 2.7965s.235-1.5615 1.292-2.8335c2.197-2.6202 4.283-5.8806 4.439-9.6507.107-2.6311-.575-4.7655-1.639-6.5231.594 1.8317.511 4.0749-1.509 6.1679 0 0 4.021-4.785-1.602-9.6898-2.251-1.8665-4.712-3.0187-5.98-3.8355 4.58 1.4832 6.816-.1503 6.816-.1503-1.463 1.2588-3.357 1.237-4.53 1.0563.318.1547.649.3158 1.007.5053 3.861 2.0823 7.331 5.5082 7.924 10.2542v-.0372c.899 4.6588 2.898 5.8545 2.898 5.8545z"/><path d="m81.5773 52.682s1.3493-.1677 1.9329-.6882c.9103-.8212.8468-1.7707.8468-1.7707-2.0622-.0284-3.4114-.7253-4.4468-1.9057-1.108-1.2808-1.2922-2.6595-1.2922-2.6595s1.1077.9976 3.249.9976c.1931 0 .3927-.0087.5988-.0284 1.0159-.0806 1.7179-.7209 1.7179-.7209-2.2335-1.42-3.7997-3.8986-2.4132-7.6317 1.1123-2.9905 3.782-5.2251 6.474-6.9087.895-.5553 1.3929-1.1718 1.3929-1.7032 0-1.2502-1.7879-1.2916-2.5207-2.1301-.8488-.9757-.3158-2.5592.4169-3.511 0 0-.2435-.0499-.6363-.0499-.7721 0-2.1126.1916-3.2138 1.3263-1.4655 1.5028-.8578 3.1385-.8578 3.1385l-.3927.0763c-.2347.05-.4695.0587-.7086.0717-.0548 0-.1031.0023-.1557.0023-2.1302 0-3.0758-2.2042-3.0758-2.2042s-2.2574 2.7575 1.0662 4.9201c.5726.3703.8228.7122.7569 1.0782l-.0528.2396-.2412.0414c-2.4066.649-3.6285 2.2999-5.1181 4.1773-2.2575 2.8511-5.4539 2.9446-5.853 2.9446h-.0441s.7307 2.2892 2.8827 2.2892c.0352 0 .0659 0 .1031-.002.9894-.035 1.4984-.4117 1.4984-.4117s.3818 5.1944-3.521 6.8063c0 0 .7108 1.2262 2.3408 1.2262h.0197c1.959-.011 2.7467-1.1958 2.7467-1.1958s-.1141 1.542.588 3.622c.8488 2.507-.0023 4.2994-.0023 4.2994s.4563.122.9806.122c.204 0 .4125-.0196.6077-.0719 1.6321-.3856 2.0424-1.8622 2.0424-1.8622s-.1492 4.9898 5.7106 4.9898h.0415s-.5132-.697-.6624-2.7028c-.2808-3.7028-2.806-4.2102-2.806-4.2102zm-.9409.9017c-2.354-2.7356-4.3658-5.5779-4.6313-9.6726-.2434.7429-1.2439 2.8098-2.8321 3.5872 0 0 1.9962-1.1957 2.8936-5.8545v.0372c.5945-4.7437 4.0629-8.1719 7.9261-10.2542.3533-.1917.6889-.3527 1.0049-.5053-1.1737.1807-3.067.2025-4.5303-1.0563 0 0 2.2355 1.6335 6.814.1503-1.2679.8168-3.7273 1.969-5.9782 3.8355-5.6249 4.9048-1.6014 9.6898-1.6014 9.6898-2.0227-2.0952-2.1038-4.3362-1.5093-6.1679-1.0662 1.7597-1.7463 3.892-1.6366 6.5231.1535 3.7701 2.2398 7.0305 4.4314 9.6507 1.0598 1.2698 1.2989 2.8335 1.2989 2.8335s-.4302-1.3787-1.6497-2.7965z"/><path d="m91.4967 34.4392c.0964.1023.1907.2135.2808.3245.0219.0262.0416.0501.0635.0807.0835.1109.169.2287.2502.3484.0175.0239.0352.0523.0548.0805.0988.1482.191.3007.283.4576.8446 1.4482 2.1983 2.3129 3.3982 2.315 1.2022-.0021 2.5515-.8668 3.4005-2.315.0943-.1614.1887-.3181.2872-.464.0154-.0218.0309-.0414.044-.0632.0833-.1241.1712-.2461.2633-.3638.0197-.0261.0372-.0479.0548-.0696.0943-.1155.191-.2287.29-.3334.017-.0173.03-.0326.046-.0456.43-.4378.943-.7711 1.614-.9561l-.298-.1721h-.018l-1.189-.686-1.2216-.6949-3.2644 1.7642-.0088-.0066-.0066.0066-3.2666-1.7642-1.2196.6926-1.1913.6861h-.0132l-.3028.1721c.6735.185 1.1847.5139 1.6169.9517.0196.0174.0329.0371.0527.0545zm3.0098-.1416h1.3821 1.3799v.9409c-.3245-.3941-.9564-.3135-.9564-.3135v1.3568s.0241.6665.2588.9561h-.6823-.6844c.2391-.2874.2611-.9561.2611-.9561v-1.3568s-.6297-.0806-.9588.3135z"/><path d="m95.5467 32.4721v-5.5081l-3.5321-1.1893.9324 5.3384zm-.7591-4.1556v.8843l-.1711-.0785c-.0088-.0065-.2588-.0631-.6976-.4073-.724-.5575-.7371-1.0715-.7371-1.0715z"/><path d="m98.7142 31.1131.9279-5.3384-3.5298 1.1893v5.5081zm-1.8428-2.7966 1.6057-.6709s-.013.5141-.7392 1.0716c-.4365.3441-.6888.4007-.6976.4073l-.1712.0783v-.8863z"/><path d="m90.5515 45.242c.3445.1241.7613.1503.9741.1503.0089-.0262.0197-.0589.0308-.098.0196-.0632.0373-.1242.0505-.194.0592-.3047.0811-.651.0855-.8732-.1449-.0894-.3489-.2484-.4628-.4858-.1317-.2744-.3182-.4007-.5925-.4007-.3554 0-.737.2112-.8995.3115-.1292.76.4344 1.4505.8139 1.5899z"/><path d="m98.3631 42.3188c-.6559.7079-1.9393 1.9407-2.0029 2.0039l-.0768.0784-4.0563-.0632c-.0023.3986-.0681.7384-.1316.9867-.011.0413-.0219.0849-.033.1284l4.8264.8604c.5024-.3485 1.8845-1.3505 2.4198-1.7424-.3906-.5663-.4279-1.2372-.3402-1.7097-.2544-.1634-.4496-.3464-.6054-.5425z"/><path d="m98.914 37.4755c-.9347.9212-1.8319 1.261-2.6326 1.3394-.1449.0153-.2918.0238-.441.0238h-.011-.0088c-.1491 0-.2983-.0085-.4432-.0238-.1403-.0131-.2872-.0349-.4342-.0675-.0528.2068-.1186.6403.0701 1.0498.1689.3724.5134.649 1.0158.8321l.1688.0652.0023.1808c0 .0544.0395 1.2262 1.3272 1.5507.2106-.2156.4015-.4094.542-.5707-.2634-.6142-.1253-1.2414.2565-1.5485-.0174.0653-.1842 1.6031 1.0576 2.1736l.204.096-.0615.2155c-.0199.0654-.4344 1.553 1.068 2.1061l.266.1003-.119.257c-.026.0566-.616 1.4071.773 2.1736h3.012v-2.374c-1.071-.1307-1.525-.9844-1.641-1.59-.498-.0849-.884-.2983-1.148-.6469-.632-.8255-.087-1.5812-.081-1.6226-.002.0066 0 .8124.5 1.309.248.2395.542.4248.988.4662l.219.0196.02.2222c.004.0478.125 1.1368 1.145 1.3089l-.002-4.8483c0-.7514.221-1.5071.487-2.2041h-6.099z"/><path d="m90.8077 39.6963-.0811 3.0884.353.0524.8645-2.9622-.4388-.9104z"/><path d="m100.338 53.8603c.027 0 .057.0044.086.0109.537.1526.673 2.0779 1.617 2.2499.092.0196.177.0239.252.0239.272 0 .434-.1155.61-.3201 0 0-.474-.7406-.829-1.2392-.472-.6535-.838-1.4442-1.716-1.4442-.02 0-.046 0-.068.0024-.29.0151-.4673.1545-.4673.1545-.3554-.2221-.6866-.2984-.9873-.2984-.5505 0-.9782.2506-1.1912.2506h-.0087l-1.9613-.1917c-.3071-.0283-.5484-.3355-.6361-.4552-.022-.0328-.033-.0523-.033-.0523 0-.0523 0-.1067-.0043-.1547-.0658-1.5921-1.3075-2.2738-1.7485-2.2848 0 0 .0526-.3026-.068-.418l-.4322.5204-1.4194-.7078 1.0114 1.174-.8579.956c-.1075.1091-.0943.2572-.0504.3181l.3708.3246.4695-.2832c.024-.0174.0658-.0218.1184-.0218.1295 0 .3247.0326.5002.0326.1908 0 .3576-.0414.3773-.22-.0592.5903-.6098 1.6161-.2478 2.422l.2677.6077-1.7332-.2484-.8118 1.3613c-.25.4531-.2895.9431-.0482 1.2088l.3026.3769s.4257-.4488.5222-.7428l-.1382-.1503c-.1163-.1263-.1096-.2395-.0394-.3767l.5089-.8387 2.0468.4793.1075-.183c.1382-.2287.3379-.2984.5573-.2984.0899 0 .1821.0109.2786.0262.3796.0741 1.0048.1742 1.6301.1742.6866 0 1.3667-.1219 1.7285-.5248.7416 1.0911 2.2444 1.2653 2.1254 1.8185l-.3944 1.8689c.2614-.011.5134-.0284.7524-.0611l.375-1.9451c.042-.2112.081-.4966.081-.4966-.144-.1458-.495-.4551-.693-.8297-.265-.5054-.121-.7688-.368-1.4266.008.0044.083-.1481.256-.1481zm-7.6561-2.7312c-.1009-.0022-.1733-.0871-.169-.1872.0089-.0959.09-.1722.1887-.1635.1009.0045.1734.0916.169.1874-.0089.0958-.0922.1699-.1887.1633z"/><path d="m89.8871 55.6288s.6778-.2766.7392-.4749l-.0899-.2243c-.0636-.1459-.0548-.305.068-.392l.7327-.5032 1.2242.233s-.2216-.2744-.1996-.6425l-1.1671-.2461-1.1013.6665c-.4717.3506-.5069.9234-.351 1.2631z"/><path d="m98.5391 58.7956c.2193-.0086.4606-.013.7261-.013 0 0 .6297-1.8273.6646-1.886-.353-.1547-1.0858-.5404-1.3688-.7167.1865.2766.6406.5946.5507.8385z"/></g><path d="m104.531 47.9581h-17.4031v6.4992c0 2.6572 1.9373 4.3213 4.7957 4.3213 2.3891 0 3.0186.0913 3.9072.967.6121-.6055 1.1189-.8322 2.1587-.9171l.0241-.1001.5484-1.6836c-.0306-.037-.9278-1.0497-.9278-1.0497-.3555.1176-.6538.1372-1.1561.1372-.5156 0-1.097-.0589-1.7266-.1765-.0637-.0151-.1229-.0196-.1822-.0196-.0768 0-.0833.0065-.103.0436l-.1097.1785-.1997.3267-.375-.0849-1.6696-.3899-.2283.3747.0352.0392.2041.2221-.0899.2897c-.123.379-.5223.8211-.6428.9432l-.417.4443-.3794-.477-.2852-.355c-.3006-.3333-.3707-.8452-.2019-1.3809-.0044.0043-.011.0064-.0174.0064l-.4717.1939-.213-.4574-.1491-.3244c-.2565-.5707-.1624-1.4049.5289-1.9081l1.3448-.7535 1.2789.2505c.0307-.1221.0767-.5577.114-.6686-.0241-.0022-.0481-.0088-.0724-.0088l-.7371.2723-.7108-.4879s-.2786-.2658-.0264-.5314l.6889-1.0345-1.7441-2.1738 2.6808 1.0935.1779-.22.3618-.4291.4103.3877c.1163.111.1821.2482.2149.3854.7394.2854 2.0622 1.1283 2.1785 2.4982l-.4146.1655v.011c.0944.111.1733.1568.1974.1611l1.9131.1874c.0482-.0088.1097-.0306.1777-.0502.2369-.0805.5946-.196 1.0179-.196.3445 0 .6778.0784.9981.2266.1185-.0436.2636-.0763.4306-.0871l.092-.0022c1.024 0 1.533.76 1.941 1.3657.068.1043.136.2046.206.3025.358.5011.825 1.235.845 1.2656l.211.3267-.259.2984c-.2.2285-.498.4966-1.012.4966-.105 0-.221-.011-.346-.035-.11-.0195-.209-.0524-.305-.0915-.016.1002-.035.2201-.055.3223l-.336 1.7381c2.008-.49 3.282-1.995 3.282-4.1469z" fill="#fbe657"/><path d="m87.129 47.4355h13.534c-.6761-.6926-.6672-1.5703-.494-2.141-.1974-.0937-.3597-.2071-.5045-.3289-.5287.3876-2.1434 1.5551-2.5646 1.8468l-.0899.0611-5.3113-.9539h-.1074c-.1272 0-.3137-.0045-.5178-.0284-.057.2374-.2632.4008-.5002.4008-.0263 0-.057-.0022-.0856-.0088-.1382-.0239-.2587-.0937-.3399-.2091-.0834-.1132-.1162-.2483-.0922-.3876l.0198-.1133c-.5485-.3833-1.053-1.2393-.8293-2.141l.0219-.0957.0769-.0545c.0109-.0087.103-.0697.2391-.1481l-.3862-.0589c-.1447-.0261-.2412-.159-.2192-.3005.024-.1437.16-.2462.3026-.2178l.9192.1437.0834-3.2148 1.369-1.4374.8533 1.7839-.9017 3.0927.8118.1263c.1425.0218.2413.1546.2194.3005-.022.1285-.1316.2179-.2611.2179-.0132 0-.0285 0-.0418-.0022l-.6603-.1067c.0089.0195.0219.0303.0308.0521.0701.1439.226.2484.318.292l4.0499.0631c.171-.1655.5967-.5793 1.0333-1.0171-.996-.3746-1.358-1.2284-1.4195-1.7948-.5572-.2352-.9411-.5879-1.1539-1.0476-.2589-.5683-.1667-1.1368-.0988-1.4134-.5396-.1961-1.1077-.5531-1.687-1.1238h-6.0987c.2611.6968.4825 1.4527.4825 2.2041z" fill="#fbe657"/><path d="m92.7028 50.7783c-.0988-.0088-.1821.0674-.1887.1632-.0066.1001.068.1851.1689.1872.0964.0088.1821-.0653.1908-.1632 0-.0959-.0701-.1851-.171-.1872z" fill="#000"/><path d="m104.508 62.5634-1.003-.3813.277-1.0279.305-1.1217s-1.777.9562-4.2803 1.675c-.7108.2025-1.2483.2939-1.2483.2939v.7623s-1.3382.2309-2.6918.2309h-.0155-.0196-.0264-.0154c-1.3534 0-2.6917-.2309-2.6917-.2309v-.7623s-.5398-.0914-1.2483-.2939c-2.5032-.7188-4.2779-1.675-4.2779-1.675l.3004 1.1217.2831 1.0279-1.0048.3813-1.1144.4137c1.279.6121 3.0493 1.5052 4.6707 1.945l-.3818 1.0367s2.0556.9301 5.4801.9389v.0021h.0111.0153.0132.0087v-.0021c3.429-.0088 5.4826-.9389 5.4826-.9389l-.384-1.0367c1.621-.4398 3.396-1.3329 4.668-1.945zm-17.2829.4834 1.6497-.5443-.487-1.5792c.7261.4095 2.3563 1.0236 3.2995 1.309l-.7963 2.1714c-1.4568-.3984-2.6699-.8624-3.6659-1.3569zm8.6064 3.3063c-1.9153 0-4.1025-.4378-4.7452-.6642l.9783-2.6289c.8118.2353 2.501.4856 3.7273.4768h.0023.0373.0329.0044c1.2264.0088 2.9111-.2415 3.7273-.4768l.9759 2.6289c-.6425.2286-2.8275.6642-4.7405.6642zm4.9365-1.9494-.7946-2.1714c.9456-.2854 2.5706-.8995 3.2996-1.309l-.485 1.5792 1.648.5443c-.999.4945-2.205.9585-3.668 1.3569z" fill="#000"/><path d="m95.8293 21.5298c2.0403 0 3.6724.6709 4.5737 1.3875 0 0 .268-1.6009 1.183-3.0144l-1.6433.1851-.8599-1.8142-1.652.8451-1.6015-1.5726-1.5971 1.5726-1.654-.8451-.8578 1.8142-1.6433-.1851c.9148 1.4135 1.1825 3.0144 1.1825 3.0144.9038-.7166 2.5316-1.3875 4.5697-1.3875zm-4.1837-.8058.4564.0479.1975-.4116.5747-1.2197 1.0662.5466.4125.2091.3291-.3223 1.1495-1.1325 1.1518 1.1325.3291.3223.4124-.2091 1.0597-.5466.5813 1.2197.193.4116.4562-.0479.434-.0523c-.199.4466-.346.869-.4516 1.2198-1.1495-.636-2.6456-.9977-4.1702-.9977-1.5181 0-3.0122.3617-4.1662.9977-.1073-.3508-.2522-.7755-.4519-1.2198z" fill="#000"/><path d="m119.766 42.772c2.639 0 3.521-2.6658 3.558-2.7791l.294-.9388-.99.0305h-.004c-.349 0-3.26-.0762-5.324-2.6811l-.196-.2417c-1.349-1.7032-2.628-3.3215-4.914-4.0599.066-.0587.161-.1328.29-.2156 1.213-.7928 1.919-1.7555 2.097-2.8728.259-1.6814-.82-3.0209-.868-3.0753l-.735-.9017-.459 1.0694c-.031.0675-.803 1.7795-2.426 1.7795h-.121c-.112-.0066-.217-.011-.322-.0198.057-.7644-.084-1.9471-1.163-3.0557-1.297-1.3351-2.889-1.5355-3.723-1.5355-.445 0-.742.0545-.772.0589l-1.11.2177.684.8952c.538.6904 1.025 1.9646.448 2.6311-.185.2113-.564.3833-.928.5553-.748.3419-1.769.8167-1.769 2.0278 0 .7841.613 1.603 1.723 2.2999 3.286 2.0517 5.313 4.1927 6.188 6.5558 1.354 3.6352-.412 5.7086-2.128 6.7999l-.77.4921.674.6142c.09.0785.915.7994 2.132.904.231.0152.452.0282.658.0282.781 0 1.446-.1219 1.986-.2854-.15.2593-.332.5229-.562.7886-.98 1.1281-2.187 1.6422-3.922 1.6683l-.645.011-.051.6424c-.006.1285-.055 1.3199 1.082 2.3327.173.1567.384.2854.603.3921-.77.6882-1.553 1.8861-1.704 3.94-.128 1.714-.54 2.3479-.545 2.3543l-.713 1.0803 1.288.0175c2.128 0 3.758-.5837 4.888-1.7381.667-.6839 1.049-1.4549 1.275-2.1387.37.3135.849.5879 1.471.7338.238.0545.496.085.775.085.601 0 1.104-.1263 1.161-.1393l.822-.2179-.364-.7623c-.026-.0609-.713-1.5899.026-3.7723.318-.9431.481-1.7882.56-2.4459.517.2678 1.211.49 2.108.4922 2.036 0 2.933-1.5093 2.975-1.5725l.401-.6926-.743-.3049c-2.427-.9997-2.964-3.6853-3.072-5.1401.22.0414.47.0806.753.0893zm1.923 5.6932s-.71 1.2264-2.34 1.2264h-.02c-1.957-.011-2.747-1.1958-2.747-1.1958s.114 1.5421-.592 3.622c-.849 2.5069.007 4.2995.007 4.2995s-.457.1219-.983.1219c-.202 0-.413-.0196-.61-.0719-1.634-.3855-2.042-1.8622-2.042-1.8622s.151 4.9899-5.709 4.9899h-.046s.516-.6971.669-2.7031c.279-3.7025 2.804-4.2099 2.804-4.2099s-1.347-.1677-1.931-.6882c-.912-.8212-.849-1.7709-.849-1.7709 2.063-.0282 3.412-.7251 4.441-1.9078 1.114-1.2807 1.298-2.6594 1.298-2.6594s-1.108.9975-3.251.9975c-.188 0-.39-.0087-.597-.0283-1.013-.0805-1.715-.721-1.715-.721 2.231-1.42 3.797-3.8986 2.409-7.6318-1.113-2.9903-3.785-5.2249-6.474-6.9085-.895-.5554-1.393-1.1717-1.393-1.7032 0-1.2502 1.79-1.2894 2.525-2.1302.846-.9757.316-2.559-.419-3.5108 0 0 .248-.0501.638-.0501.775 0 2.115.1938 3.216 1.3263 1.464 1.5028.856 3.1386.856 3.1386l.393.0762c.234.0501.467.0589.708.0697.053 0 .105.0022.158.0022 2.126 0 3.076-2.2064 3.076-2.2064s2.26 2.7596-1.066 4.9201c-.573.3703-.825.7122-.759 1.0782l.052.2396.237.0414c2.411.649 3.631 2.3 5.12 4.1773 2.262 2.8555 5.463 2.947 5.858 2.947h.042s-.731 2.289-2.883 2.289c-.035 0-.066 0-.103-.0021-.989-.035-1.496-.4117-1.496-.4117s-.389 5.1988 3.518 6.8105z" fill="#000"/><path d="m115.131 32.3896c.985.5204 1.557 1.2174 2.06 1.8359.493.6033.963 1.1849 1.695 1.4267.262.0893.538.1307.819.1307 1.101 0 2.207-.6687 2.626-1.5943l.421-.9279-1.02-.061c-.048-.0022-1.36-.1198-2.821-1.603-.601-.6075-1.328-.9279-2.111-.9279-.956 0-1.665.4748-1.744.5228l-.939.6557zm1.671-1.0193c.492 0 1.064.1654 1.606.7208 1.7 1.7142 3.282 1.81 3.282 1.81-.287.6315-1.121 1.187-1.983 1.187-.2 0-.399-.0305-.599-.098-1.169-.392-1.588-2.1345-3.644-3.2192 0 0 .575-.4006 1.338-.4006z" fill="#000"/><path d="m115.591 41.6439v.0349c-.592-4.7437-4.063-8.1697-7.924-10.254-.358-.1896-.687-.3507-1.007-.5054 1.176.1808 3.069.2026 4.53-1.0564 0 0-2.235 1.6336-6.816.1504 1.268.8167 3.732 1.969 5.98 3.8354 5.623 4.9048 1.6 9.6899 1.6 9.6899 2.02-2.0929 2.103-4.3362 1.509-6.1679 1.064 1.7576 1.744 3.8919 1.639 6.523-.156 3.7701-2.242 7.0306-4.438 9.6508-1.056 1.2719-1.292 2.8336-1.292 2.8336s.425-1.3787 1.647-2.7967c2.354-2.7354 4.366-5.5778 4.629-9.6725.244.7428 1.246 2.8097 2.837 3.5872.004.0022-1.995-1.1935-2.894-5.8523z" fill="#000"/><path d="m85.6252 59.1963c-.0022-.0065-.4102-.6404-.5417-2.3545-.1536-2.0538-.9347-3.2518-1.7069-3.94.2238-.1046.43-.233.6033-.392 1.1343-1.0129 1.0859-2.2041 1.0793-2.3326l-.0438-.6425-.6494-.011c-1.7308-.0284-2.9398-.5423-3.9203-1.6684-.2282-.2657-.4124-.5292-.5616-.7884.5395.1633 1.1999.2854 1.9831.2854.2107 0 .4279-.0132.6582-.0284 1.2175-.1045 2.0425-.8233 2.1345-.9038l.6735-.6142-.77-.4923c-1.7221-1.0933-3.4816-3.1668-2.1302-6.7997.8753-2.3632 2.9002-4.5042 6.191-6.5559 1.1101-.697 1.7177-1.5158 1.7177-2.2999 0-1.211-1.0179-1.6879-1.766-2.0278-.3642-.172-.7436-.3441-.9279-.5553-.5792-.6643-.0901-1.9406.4453-2.6311l.6889-.8951-1.1145-.2179c-.0329-.0043-.3247-.0587-.7722-.0587-.8337 0-2.422.2004-3.7208 1.5355-1.0815 1.1108-1.224 2.2934-1.1692 3.0556-.1053.0088-.2106.0133-.3203.0196h-.1184c-1.6279 0-2.3978-1.7117-2.4285-1.7793l-.4587-1.0694-.7415.9016c-.0416.0546-1.1253 1.3962-.8621 3.0754.1755 1.1173.8819 2.0799 2.095 2.8728.1317.0828.2238.1568.2896.2157-2.2836.7382-3.5605 2.3588-4.9097 4.0619l-.1953.2418c-2.0621 2.6048-4.9799 2.6812-5.3287 2.6812l-.9937-.0305.3027.9386c.0351.1133.9148 2.7791 3.5561 2.7791l.1273-.0042c.2785-.0088.5287-.0458.7525-.0894-.1098 1.4527-.6473 4.1383-3.0758 5.1401l-.7415.305.4016.6926c.0394.0631.9389 1.5725 2.979 1.5725.8908-.0022 1.5839-.2244 2.1039-.4922.079.6577.2413 1.5028.5595 2.4458.7393 2.1824.0504 3.7114.024 3.7724l-.3641.7623.8249.2178c.0548.013.5616.1393 1.1605.1393.2808 0 .5397-.0304.7723-.0849.6253-.146 1.1078-.4203 1.4741-.734.2238.6838.6077 1.4549 1.2726 2.1388 1.1318 1.1543 2.7596 1.738 4.8876 1.738l1.29-.0173zm-.6231.3985c-5.8596 0-5.7103-4.9898-5.7103-4.9898s-.408 1.4767-2.0425 1.8622c-.1952.0523-.4037.072-.6077.072-.5264 0-.9806-.1221-.9806-.1221s.8511-1.7925.0021-4.2993c-.7019-2.0801-.5878-3.6221-.5878-3.6221s-.7876 1.1849-2.7466 1.1957h-.0198c-1.63 0-2.3408-1.2262-2.3408-1.2262 3.9049-1.6095 3.521-6.8063 3.521-6.8063s-.5067.3747-1.4984.4117c-.0351.0022-.0679.0022-.103.0022-2.1544 0-2.8827-2.2891-2.8827-2.2891h.0438c.3972 0 3.5936-.0916 5.8553-2.9469 1.4896-1.8774 2.7115-3.5262 5.1181-4.1773l.2413-.0414.0528-.2396c.0658-.366-.1843-.7079-.7569-1.0782-3.3258-2.1627-1.0662-4.9202-1.0662-4.9202s.9455 2.2043 3.0757 2.2043c.0526 0 .101-.0023.1557-.0023.2391-.0131.4762-.0217.7086-.0718l.3928-.0763s-.6078-1.6356.8577-3.1384c1.1014-1.1347 2.4417-1.3264 3.2139-1.3264.3927 0 .6363.05.6363.05-.7327.9539-1.2636 2.5353-.417 3.511.7328.8385 2.5208.8799 2.5208 2.1301 0 .5292-.4979 1.1479-1.3929 1.7032-2.692 1.6836-5.3639 3.9182-6.4741 6.9086-1.3864 3.7332.1777 6.2095 2.4132 7.6318 0 0-.702.6402-1.7177.7209-.2062.0196-.4059.0283-.599.0283-2.1411 0-3.249-.9976-3.249-.9976s.1843 1.3788 1.2922 2.6594c1.0355 1.1826 2.3847 1.8796 4.4469 1.908 0 0 .0658.9497-.8469 1.7706-.5856.5184-1.9328.6882-1.9328.6882s2.5274.5076 2.8038 4.2102c.1513 2.0059.6625 2.7029.6625 2.7029z" fill="#000"/><path d="m71.952 35.7854c.283 0 .5594-.0415.8204-.1309.7372-.2417 1.2044-.8232 1.698-1.4265.5047-.6186 1.0729-1.3155 2.0578-1.836l1.0136-.5402-.9412-.6556c-.079-.0501-.7854-.5226-1.7396-.5226-.7854 0-1.5137.3179-2.1127.9276-1.4611 1.4812-2.7707 1.6009-2.8191 1.6032l-1.02.0587.419.93c.4211.9213 1.5246 1.5923 2.6238 1.5923zm1.2987-3.6918c.544-.5555 1.1167-.7209 1.6103-.7209.759 0 1.3337.4006 1.3337.4006-2.0533 1.0869-2.4745 2.8273-3.6483 3.2192-.1929.0675-.3948.098-.5944.098-.8622 0-1.6959-.5532-1.981-1.187 0-.0021 1.5795-.0981 3.2797-1.8099z" fill="#000"/><path d="m76.5569 43.896c-.1096-2.6311.5705-4.7656 1.6366-6.5232-.5945 1.8317-.5133 4.0751 1.5094 6.1682 0 0-4.0235-4.7851 1.6014-9.69 2.2509-1.8665 4.7124-3.0188 5.9782-3.8355-4.5785 1.4832-6.814-.1503-6.814-.1503 1.461 1.259 3.3544 1.2372 4.5303 1.0543-.3181.1545-.6517.3157-1.0049.5052-3.8654 2.0843-7.3339 5.5104-7.9284 10.2541v-.037c-.8972 4.6588-2.8936 5.8545-2.8936 5.8545 1.5884-.7777 2.5888-2.8424 2.8322-3.5872.2655 4.0947 2.2771 6.9369 4.6311 9.6726 1.222 1.4177 1.652 2.7965 1.652 2.7965s-.2391-1.5617-1.2987-2.8337c-2.1917-2.6157-4.278-5.8784-4.4316-9.6485z" fill="#000"/><path d="m94.5068 34.2976v.9409c.327-.3942.9588-.3135.9588-.3135v1.3568s-.022.6665-.2611.9561h.6844.6823c-.2347-.2874-.2589-.9561-.2589-.9561v-1.3568s.6318-.0807.9566.3135v-.9409h-1.38z" fill="#000"/><path d="m93.9187 28.7175c.4365.3443.6888.4009.6976.4075l.1711.0783v-.8865l-1.6058-.6708c0 .0022.0153.5139.7371 1.0715z" fill="#000"/><path d="m97.7376 28.7175c.7262-.5576.7393-1.0715.7393-1.0715l-1.6058.6708v.8865l.1688-.0783c.0111-.0066.2611-.0632.6977-.4075z" fill="#000"/><path d="m100.631 25.1085c0-1.3438-2.2793-2.5526-4.7956-2.5526h-.0022-.0065-.0066c-2.5163 0-4.7957 1.2088-4.7957 2.5526l.0505.331 1.0047 5.726-1.009.5816-2.6108 1.5137h.0089s-.5879.2984-.8601.4835c-.9937.6862-1.2043 1.6858-.6274 2.0996.1427-.8146.792-1.6683 2.0073-1.6683.8754 0 1.5423.4486 2.0821 1.1217.1381.1698.2698.3506.3926.5466.1513.246.3027.4618.4541.6709h-6.7239c.4935.9866.963 2.0321.963 3.1668v14.7756c0 3.5763 2.7708 5.2838 5.7674 5.2838 2.3167 0 2.6284-.1045 3.9073 1.1587 1.2724-1.2654 1.5839-1.1587 3.9028-1.1587 2.9991 0 5.7651-1.7075 5.7651-5.2838v-14.7756c0-1.1347.47-2.1802.965-3.1668h-6.7258c.1492-.207.3008-.4249.4518-.6709.125-.196.255-.3768.391-.5466.544-.6752 1.208-1.1217 2.084-1.1217 1.215 0 1.862.8516 2.007 1.6683.577-.4138.369-1.4134-.632-2.0996-.267-.1851-.855-.4835-.855-.4835h.008l-2.61-1.5137-1.0049-.5816 1.0049-5.726zm-8.6173.6665 3.5322 1.1891v5.5083l-2.5996-1.3613zm.7307 11.7002c.5792.5727 1.1474.9279 1.687 1.1238-.0703.2767-.1622.8474.0988 1.4157.2127.4574.5988.8104 1.1538 1.0456.0615.5663.4213 1.4178 1.4195 1.7947-.4366.4377-.8623.8493-1.0355 1.017l-4.0477-.0631c-.092-.0458-.2478-.1481-.3179-.294-.0089-.0196-.022-.0306-.0285-.0524l.6601.1068c.0156.0021.0286.0021.0418.0021.1273 0 .2391-.0871.2611-.2177.0219-.146-.0768-.2789-.2194-.3007l-.8117-.1263.9016-3.0906-.8533-1.7837-1.3689 1.4376-.0835 3.2145-.9191-.1436c-.1427-.0284-.2787.0763-.3027.2177-.022.1417.0745.2745.2192.3007l.3861.0587c-.1381.0785-.228.1394-.239.1481l-.0791.0545-.0219.0959c-.2237.9017.283 1.7576.8294 2.1409l-.0198.1132c-.0219.1396.0088.2744.0921.3878.079.1154.2018.1851.3378.209.0286.0044.0592.0065.0857.0065.2368 0 .4431-.1633.5023-.4006.204.0239.3905.0282.5177.0282h.1076l5.3112.9518.0899-.0587c.4233-.2941 2.0358-1.4614 2.5645-1.8471.1448.1243.3071.2376.5044.3311-.1709.5706-.1819 1.4484.496 2.1411h-13.5357v-7.7559c0-.7514-.2216-1.5072-.4827-2.2042h6.0988zm6.5638 7.096c-.5374.3921-1.9195 1.3938-2.4197 1.7424l-4.8264-.8603c.0111-.0436.0219-.085.033-.1285.0635-.2484.1271-.5881.1316-.9866l4.0563.0653.0768-.0785c.0614-.0609 1.347-1.2937 2.0029-2.0037.1558.1938.3509.379.6054.5423-.0877.4705-.0504 1.1413.3401 1.7076zm-8.0797-.8299c.114.2375.3202.3965.4629.4858-.0045.222-.0264.5684-.0856.8733-.0132.0675-.0307.1307-.0505.1938-.0109.0394-.0219.072-.0307.0981-.2128 0-.6319-.0261-.9741-.1503-.3794-.1394-.9454-.8298-.8139-1.5899.1646-.1003.5441-.3115.8996-.3115.2742-.0022.4606.1263.5923.4007zm-.5024-.9561.0811-3.0863.6977-.7339.4388.9104-.8644 2.9621zm8.5383 15.9997c-.2633 0-.5068.0043-.7262.0131l.5748-1.7752c.09-.2461-.3642-.5619-.5507-.8385.283.1765 1.0158.562 1.369.7167-.0373.0565-.6669 1.8839-.6669 1.8839zm1.8036-2.0169-.375 1.9429c-.24.0326-.494.0499-.7551.0609l.3951-1.8687c.118-.5555-1.3845-.7275-2.126-1.8187-.362.4051-1.0443.525-1.7287.525-.6253 0-1.2505-.1003-1.6301-.1743-.0965-.0152-.1887-.0261-.2786-.0261-.2193 0-.4191.0675-.5572.2984l-.1098.1829-2.0466-.4791-.509.8363c-.0725.1351-.0769.2506.0394.3767l.1382.1505c-.0943.2961-.5198.7426-.5198.7426l-.305-.3769c-.2414-.2678-.2019-.7556.0505-1.2087l.8116-1.3613 1.7332.2483-.2699-.6098c-.362-.8059.1887-1.8317.2479-2.422-.0198.1786-.1844.2178-.3774.2178-.1754 0-.3707-.0327-.5002-.0327-.0504 0-.0943.0044-.1184.0218l-.4695.2832-.3707-.3246c-.044-.0631-.0592-.2091.0504-.3179l.8578-.954-1.0134-1.1739 1.4193.7078.4321-.5205c.1186.1155.0681.4181.0681.4181.4431.0109 1.6847.6927 1.7506 2.2826.0044.0478.0044.1024.0044.1545 0 0 .011.0197.0329.0523.0878.12.329.427.6361.4553l1.9614.1917h.0086c.2152 0 .6429-.2505 1.1913-.2505.2984 0 .6318.0762.9873.2984 0 0 .1772-.1394.4672-.1547.022-.0022.046-.0022.068-.0022.88 0 1.244.7886 1.716 1.4441.355.4988.829 1.2393.829 1.2393-.176.2068-.338.3202-.61.3202-.074 0-.16-.0066-.252-.024-.944-.1721-1.08-2.0974-1.617-2.25-.029-.0086-.059-.0108-.086-.0108-.173 0-.25.1525-.25.1525.246.6555.103.9213.367 1.4266.197.3746.548.6839.693.8298 0 .0044-.04.2875-.081.5009zm-10.5328-1.8383.0899.2245c-.0592.196-.7392.4747-.7392.4747l-.1471-.318c-.1557-.3398-.1229-.9125.3511-1.2632l1.1013-.6665 1.1671.246c-.022.3682.1996.6427.1996.6427l-1.2242-.233-.7326.5031c-.1229.0849-.1317.2439-.0659.3897zm10.7168 3.6745.336-1.7382c.017-.1023.039-.2221.054-.3223.095.0393.196.0719.305.0915.125.024.242.0348.347.0348.513 0 .812-.2679 1.011-.4966l.259-.2983-.21-.3267c-.02-.0327-.485-.7645-.845-1.2655-.07-.098-.138-.196-.206-.3027-.408-.6056-.919-1.3655-1.944-1.3655l-.092.0021c-.169.0109-.3137.0435-.43.087-.3226-.1502-.6538-.2264-.9983-.2264-.4234 0-.781.1155-1.0179.196-.068.0196-.1294.0414-.1776.0501l-1.9153-.1874c-.0241-.0042-.1031-.0499-.1974-.1632v-.0088l.4146-.1656c-.1162-1.3698-1.4413-2.2128-2.1806-2.4981-.0329-.1373-.0987-.2745-.2149-.3855l-.4125-.3877-.3621.4313-.1776.22-2.6808-1.0935 1.7441 2.1737-.6889 1.0346c-.2523.2657.0263.5315.0263.5315l.7107.4856.7373-.2722c.0262 0 .0482.0066.0723.0086-.035.1111-.0811.5467-.1119.6687l-1.279-.2505-1.3448.7537c-.691.5031-.7854 1.3373-.5286 1.908l.1491.3243.2127.4575.4696-.1939c.0066-.0022.0132-.0044.0174-.0086-.1688.5357-.1007 1.0453.2019 1.3808l.2852.3572.3796.477.4168-.4444c.1229-.122.52-.564.6428-.943l.0899-.2898-.2039-.2221-.033-.0391.2283-.3747 1.6693.3899.3752.0849.1996-.3267.1097-.1787c.0198-.0369.0263-.0435.1032-.0435.0592 0 .1184.0066.182.0197.6296.1175 1.2109.1765 1.7265.1765.5002 0 .7985-.0198 1.1561-.1373 0 0 .8973 1.0105.928 1.0498l-.5484 1.6814-.0241.1024c-1.0399.0826-1.5466.3093-2.1587.9169-.8885-.8757-1.5182-.967-3.9071-.967-2.8587 0-4.7957-1.664-4.7957-4.3212v-6.4969h17.4009l.005 6.4969c.002 2.1562-1.273 3.659-3.28 4.1492zm3.762-21.129c-.265.697-.487 1.4528-.487 2.2042l.003 4.8483c-1.021-.1699-1.141-1.2612-1.146-1.309l-.019-.2222-.22-.0196c-.443-.0414-.737-.2288-.985-.4682-.5-.4966-.502-1.3025-.5-1.3091-.007.0414-.551.7971.081 1.6226.266.3485.65.562 1.148.647.116.6054.57 1.4591 1.641 1.5899v2.374h-3.01c-1.389-.7666-.801-2.1171-.773-2.1736l.119-.2571-.266-.1002c-1.5024-.5532-1.0899-2.043-1.068-2.1061l.0614-.2179-.204-.0957c-1.2418-.5707-1.0727-2.1105-1.0573-2.1736-.3818.307-.5201.9342-.2568 1.5485-.1426.1612-.3333.3572-.5419.5706-1.2855-.3244-1.3249-1.4984-1.3249-1.5528l-.0024-.1809-.1688-.0653c-.5024-.1852-.8469-.4617-1.0158-.8343-.1908-.4114-.1229-.8427-.0701-1.0497.1469.0327.2939.0567.4343.0676.1448.0151.294.0239.4432.0239h.0087.011c.1492 0 .2962-.0088.441-.0239.8007-.0785 1.698-.4204 2.6326-1.3396h6.0918zm-4.69-4.9006 1.189.6862h.018l.298.172c-.671.1852-1.185.5184-1.615.9562-.015.0131-.03.0305-.046.0457-.099.1045-.1973.2179-.2894.3333-.0175.0218-.0351.0458-.0548.0697-.0922.1175-.1776.2375-.2611.3637-.0131.0219-.0285.0436-.0438.0631-.0988.146-.193.3028-.2874.4639-.8469 1.4484-2.1983 2.3131-3.4004 2.3153-1.2-.0022-2.5514-.8669-3.3983-2.3153-.0921-.1568-.1842-.3092-.283-.4574-.0197-.0282-.0373-.0565-.0547-.0806-.0834-.1197-.1668-.2373-.2524-.3483-.0219-.0305-.0417-.0546-.0636-.0807-.0922-.1111-.1865-.2222-.2809-.3245-.0196-.0152-.0328-.0348-.0526-.0522-.4321-.4378-.9433-.7689-1.6168-.9519l.3027-.172h.0132l1.189-.6862 1.222-.6946 3.2644 1.7641.0066-.0065.0087.0065 3.2644-1.7641zm-1.6104-1.4614-2.6017 1.3613v-5.5104l3.5298-1.1891zm-2.8847-4.7545-3.8699-1.518c.3291-.7732 1.8471-1.4311 3.8699-1.4333 2.0249.0022 3.5429.6601 3.8699 1.4333z" fill="#000"/><path d="m143.751 49.4096v-8.7211h5.152v-3.1735h-14.056v3.1735h5.152v8.7211zm10.281-4.9727v-6.9219h-3.627v11.8946h3.201l6.253-6.9219v6.9219h3.627v-11.8946h-3.202zm21.655.5498v4.4229h3.627v-11.8946h-3.627v4.348h-5.828v-4.348h-3.626v11.8946h3.626v-4.4229zm13.727 4.4229c.825 0 1.575-.0749 2.276-.2748 1.877-.5247 3.101-2.0492 3.101-4.1232 0-1.9741-1.05-3.3484-2.725-3.9732-.802-.2998-1.751-.3248-2.652-.3248h-3.727v-3.1986h-3.626v11.8946zm-.626-5.8972c.501 0 .976 0 1.401.1499.601.1999.951.6996.951 1.2993 0 .6248-.35 1.1496-.926 1.3994-.4.1749-.8.1749-1.426.1749h-3.101v-3.0235zm12.506 1.3993 4.327 4.4979h4.827l-6.027-6.1972 5.802-5.6974h-4.552l-4.377 4.473h-1v-4.473h-3.626v11.8946h3.626v-4.4979zm16.616-7.7215c-4.877 0-7.803 2.7487-7.803 6.297 0 3.5486 2.926 6.2973 7.803 6.2973 4.854 0 7.78-2.7487 7.78-6.2973 0-3.5483-2.926-6.297-7.78-6.297zm0 9.6957c-2.425 0-3.975-1.4494-3.975-3.3987 0-1.9489 1.55-3.3734 3.975-3.3734 2.402 0 3.978 1.4245 3.978 3.3734 0 1.9493-1.576 3.3987-3.978 3.3987zm19.859-10.0456h-3.627v1.1994c-4.552.1-7.279 2.0241-7.279 5.4226 0 3.3984 2.727 5.1727 7.279 5.2727v1.1995h3.627v-1.1995c4.576-.1 7.303-1.8743 7.303-5.2727 0-3.3985-2.727-5.3226-7.303-5.4226zm-3.627 9.3458c-2.502-.1-3.602-1.1245-3.602-2.7238s1.1-2.7487 3.602-2.8486zm3.627-5.5724c2.526.0999 3.601 1.2493 3.601 2.8486s-1.075 2.6238-3.601 2.7238zm19.368-3.7734h-3.627v1.1994c-4.552.1-7.277 2.0241-7.277 5.4226 0 3.3984 2.725 5.1727 7.277 5.2727v1.1995h3.627v-1.1995c4.578-.1 7.304-1.8743 7.304-5.2727 0-3.3985-2.726-5.3226-7.304-5.4226zm-3.627 9.3458c-2.5-.1-3.601-1.1245-3.601-2.7238s1.101-2.7487 3.601-2.8486zm3.627-5.5724c2.527.0999 3.602 1.2493 3.602 2.8486s-1.075 2.6238-3.602 2.7238z" fill="#000"/></g></svg>