<svg width="371" height="137" viewBox="0 0 371 137" fill="none" xmlns="http://www.w3.org/2000/svg">
<ellipse cx="253.5" cy="63" rx="35" ry="33" fill="#91CEEB"/>
<g clip-path="url(#clip0_1063_13913)">
<path d="M124.384 40.324L125.145 37.9044L122.626 37.9827C122.414 37.9827 120.867 37.9391 119.366 36.8588C119.478 36.8698 119.59 36.8849 119.704 36.8849C121.249 36.8849 122.743 35.9615 123.342 34.6416L124.425 32.2567C123.067 32.2742 121.826 32.1043 121.826 32.1043C121.815 32.102 120.836 31.978 119.704 30.8301C118.892 30.0069 117.888 29.5711 116.799 29.5711C116.324 29.5711 115.898 29.6561 115.532 29.7716C115.589 29.5777 115.643 29.3817 115.674 29.1791C116.021 26.9467 114.573 25.2434 114.573 25.2457L112.68 22.9174L111.506 25.6529C111.502 25.6617 111.205 26.3021 110.674 26.6156C110.514 25.8119 110.122 24.9081 109.281 24.0434C107.697 22.4142 105.769 22.1725 104.76 22.1725C104.293 22.1725 103.959 22.2226 103.878 22.2356L101.592 22.6822C101.724 22.1748 102.005 21.2926 102.518 20.4976L103.779 18.5462L100.605 18.9055L99.5935 16.7732L97.6367 17.7751L95.8269 16L94.0212 17.7751L92.0578 16.7732L91.0486 18.9055L87.8765 18.5462L89.14 20.4976C89.6534 21.2926 89.9343 22.1725 90.0637 22.6799L87.8829 22.2531L87.8084 22.2401C87.6987 22.2226 87.3675 22.1725 86.898 22.1725C85.8888 22.1725 83.9605 22.4164 82.3809 24.0434C81.5385 24.906 81.1458 25.8119 80.9835 26.6156C80.457 26.3064 80.163 25.6747 80.163 25.6747L78.9871 22.9239L77.0632 25.2675C76.8284 25.5701 75.668 27.1711 75.9838 29.1835C76.0168 29.3839 76.0694 29.5799 76.1265 29.7738C75.7623 29.6583 75.3367 29.5734 74.8607 29.5734C73.7725 29.5734 72.7678 30.009 71.9539 30.8324C70.8261 31.9758 69.8521 32.1043 69.861 32.1043C69.861 32.1043 68.832 32.2872 67.2394 32.2588L68.3165 34.6438C68.9155 35.9659 70.4115 36.8872 71.9539 36.8872C72.0702 36.8872 72.182 36.8718 72.2961 36.861C70.7999 37.9413 69.2533 37.9848 69.0667 37.987L66.5 37.9044L67.2766 40.3218C67.6672 41.5678 68.9724 43.6325 71.4735 43.8546C71.2013 44.9872 70.598 46.2548 69.273 46.8014L67.3622 47.5833L68.4042 49.3845C68.9922 50.356 70.3721 51.4928 72.3377 51.4928C72.7633 51.4907 73.1735 51.4493 73.5685 51.3666C73.6694 51.8109 73.7966 52.2553 73.9458 52.6951C74.5315 54.4244 74.027 55.631 74.0204 55.6442L73.077 57.6065L75.1831 58.1576C75.2095 58.1663 75.8456 58.3383 76.642 58.3383C77.004 58.3383 77.3484 58.3013 77.6731 58.2252C77.9187 58.1684 78.1536 58.0923 78.3795 58.0007C78.6515 58.4864 78.9828 58.9286 79.3689 59.3249C80.7182 60.6993 82.629 61.3962 85.0508 61.3962H85.0596L86.7884 61.3744L83.2168 62.8468L85.9284 64.1471C86.9134 64.6241 88.0827 65.1881 89.2717 65.6194L88.9339 66.5386L89.8684 66.9611C89.9517 66.998 91.7485 67.7974 94.7366 67.9673C94.7366 67.9673 95.4583 68 95.8553 68C96.2524 68 96.9653 67.9652 96.9653 67.9652C99.9337 67.7909 101.717 67.0003 101.801 66.9611L102.737 66.5364L102.395 65.6152C103.619 65.1708 104.83 64.5848 105.774 64.1275L108.435 62.8446L104.874 61.3702L106.609 61.392C109.034 61.392 110.947 60.695 112.293 59.3185C112.677 58.9243 113.009 58.4822 113.283 57.9964C113.509 58.0879 113.746 58.1641 113.991 58.2208C114.314 58.2969 114.658 58.3341 115.02 58.3341C115.804 58.3341 116.446 58.162 116.464 58.1576L118.579 57.6023L117.657 55.6769C117.635 55.6267 117.131 54.4223 117.717 52.6908C117.866 52.2487 117.991 51.8044 118.092 51.3622C118.489 51.4449 118.903 51.4885 119.331 51.4885C121.834 51.4885 123.034 49.7396 123.267 49.3606L124.298 47.5791L122.387 46.7993C121.06 46.2525 120.459 44.9827 120.189 43.8525C122.655 43.6433 123.98 41.5786 124.384 40.324ZM90.2303 23.5141L90.2042 23.5207L90.2261 23.4924L90.2303 23.5141Z" fill="white"/>
<path d="M95.8289 23.4075C93.8062 23.4096 92.2904 24.0674 91.959 24.8405L95.8289 26.3566L99.6988 24.8405C99.3697 24.0674 97.8538 23.4096 95.8289 23.4075Z" fill="white"/>
<path d="M95.8686 63.5372H95.8642H95.8312H95.7939H95.7917C94.5654 63.5459 92.8783 63.2954 92.0644 63.0602L91.0859 65.689C91.731 65.9178 93.9161 66.3533 95.8312 66.3533C97.742 66.3533 99.9293 65.9156 100.572 65.689L99.5957 63.0602C98.7797 63.2975 97.0948 63.5459 95.8686 63.5372Z" fill="white"/>
<path d="M103.273 60.9237C102.545 61.3332 100.919 61.9473 99.9736 62.2327L100.768 64.4041C102.231 64.0076 103.438 63.5439 104.436 63.0473L102.788 62.5027L103.273 60.9237Z" fill="white"/>
<path d="M88.3873 60.9237L88.8743 62.5027L87.2246 63.0473C88.2206 63.5439 89.4337 64.0076 90.8904 64.4041L91.6846 62.2327C90.7434 61.9473 89.1156 61.3309 88.3873 60.9237Z" fill="white"/>
<path d="M95.8297 20.8938C97.3544 20.8938 98.8505 21.2553 100 21.8914C100.105 21.5406 100.252 21.1159 100.452 20.6716L100.018 20.7239L99.5613 20.7719L99.3682 20.3602L98.7869 19.1406L97.7273 19.6893L97.3149 19.8984L96.9858 19.5762L95.834 18.4436L94.6845 19.5762L94.3554 19.8984L93.943 19.6893L92.8768 19.1406L92.302 20.3602L92.1047 20.7719L91.6483 20.7239L91.2139 20.6716C91.4136 21.1181 91.5584 21.5406 91.6658 21.8914C92.8176 21.2553 94.3093 20.8938 95.8297 20.8938Z" fill="white"/>
<path d="M119.108 34.9901C119.305 35.0576 119.507 35.088 119.707 35.088C120.569 35.088 121.402 34.5349 121.69 33.901C121.69 33.901 120.108 33.8052 118.408 32.0911C117.866 31.5357 117.293 31.3702 116.802 31.3702C116.038 31.3702 115.466 31.771 115.466 31.771C117.519 32.8556 117.938 34.598 119.108 34.9901Z" fill="white"/>
<path d="M71.9527 35.088C72.1523 35.088 72.3542 35.0576 72.5473 34.9901C73.7209 34.598 74.1421 32.8556 76.1956 31.771C76.1956 31.771 75.6207 31.3702 74.8617 31.3702C74.3681 31.3702 73.7955 31.5357 73.2514 32.0911C71.5535 33.8052 69.9717 33.901 69.9717 33.901C70.2547 34.5349 71.0905 35.088 71.9527 35.088Z" fill="white"/>
<path d="M119.666 42.0709C119.701 42.0729 119.731 42.0729 119.769 42.0729C121.921 42.0729 122.651 39.7837 122.651 39.7837H122.61C122.215 39.7837 119.014 39.6924 116.752 36.837C115.263 34.9596 114.043 33.3086 111.632 32.6595L111.395 32.6181L111.342 32.3786C111.276 32.0127 111.529 31.6708 112.101 31.3005C115.427 29.1378 113.17 26.3803 113.17 26.3803C113.17 26.3803 112.22 28.5867 110.094 28.5867C110.044 28.5867 109.989 28.5844 109.936 28.5844C109.695 28.5714 109.462 28.5627 109.227 28.5127L108.835 28.4364C108.835 28.4364 109.44 26.8007 107.979 25.2979C106.878 24.1632 105.537 23.9716 104.763 23.9716C104.372 23.9716 104.125 24.0215 104.125 24.0215C104.86 24.9755 105.39 26.5568 104.541 27.5325C103.809 28.371 102.019 28.4124 102.019 29.6626C102.019 30.1919 102.517 30.8105 103.412 31.3658C106.103 33.0494 108.775 35.2818 109.886 38.2745C111.274 42.0076 109.71 44.4841 107.477 45.9041C107.477 45.9041 108.177 46.5444 109.192 46.625C109.399 46.6446 109.6 46.6533 109.789 46.6533C111.932 46.6533 113.04 45.6557 113.04 45.6557C113.04 45.6557 112.858 47.0344 111.741 48.3151C110.713 49.4978 109.361 50.1926 107.301 50.2231C107.301 50.2231 107.235 51.1726 108.148 51.9938C108.732 52.5121 110.081 52.682 110.081 52.682C110.081 52.682 107.556 53.1894 107.277 56.8922C107.126 58.898 106.61 59.595 106.61 59.595H106.656C112.516 59.595 112.365 54.6052 112.365 54.6052C112.365 54.6052 112.773 56.0818 114.407 56.4674C114.604 56.5197 114.815 56.5393 115.017 56.5393C115.543 56.5393 116 56.4173 116 56.4173C116 56.4173 115.144 54.6249 115.993 52.1179C116.697 50.0379 116.583 48.4959 116.583 48.4959C116.583 48.4959 117.373 49.6807 119.33 49.6917H119.35C120.98 49.6917 121.69 48.4655 121.69 48.4655C117.783 46.8558 118.169 41.6592 118.169 41.6592C118.169 41.6592 118.676 42.0337 119.666 42.0709ZM118.49 47.4983C116.901 46.7209 115.897 44.6561 115.653 43.9111C115.39 48.0058 113.376 50.8481 111.022 53.5837C109.8 55.0015 109.374 56.3802 109.374 56.3802C109.374 56.3802 109.609 54.8187 110.666 53.5467C112.863 50.9265 114.949 47.6661 115.105 43.896C115.212 41.2649 114.53 39.1305 113.466 37.3729C114.06 39.2046 113.977 41.4478 111.957 43.5408C111.957 43.5408 115.978 38.7558 110.355 33.851C108.104 31.9845 105.643 30.8323 104.375 30.0155C108.955 31.4987 111.191 29.8652 111.191 29.8652C109.728 31.124 107.834 31.1022 106.661 30.9215C106.979 31.0762 107.31 31.2373 107.668 31.4268C111.529 33.5091 114.999 36.935 115.592 41.681V41.6438C116.491 46.3026 118.49 47.4983 118.49 47.4983Z" fill="white"/>
<path d="M81.5773 52.682C81.5773 52.682 82.9266 52.5143 83.5102 51.9938C84.4205 51.1726 84.357 50.2231 84.357 50.2231C82.2948 50.1947 80.9456 49.4978 79.9102 48.3174C78.8022 47.0366 78.618 45.6579 78.618 45.6579C78.618 45.6579 79.7257 46.6555 81.867 46.6555C82.0601 46.6555 82.2597 46.6468 82.4658 46.6271C83.4817 46.5465 84.1837 45.9062 84.1837 45.9062C81.9502 44.4862 80.384 42.0076 81.7705 38.2745C82.8828 35.284 85.5525 33.0494 88.2445 31.3658C89.1395 30.8105 89.6374 30.194 89.6374 29.6626C89.6374 28.4124 87.8495 28.371 87.1167 27.5325C86.2679 26.5568 86.8009 24.9733 87.5336 24.0215C87.5336 24.0215 87.2901 23.9716 86.8973 23.9716C86.1252 23.9716 84.7847 24.1632 83.6835 25.2979C82.218 26.8007 82.8257 28.4364 82.8257 28.4364L82.433 28.5127C82.1983 28.5627 81.9635 28.5714 81.7244 28.5844C81.6696 28.5844 81.6213 28.5867 81.5687 28.5867C79.4385 28.5867 78.4929 26.3825 78.4929 26.3825C78.4929 26.3825 76.2355 29.14 79.5591 31.3026C80.1317 31.6729 80.3819 32.0148 80.316 32.3808L80.2632 32.6204L80.022 32.6618C77.6154 33.3108 76.3935 34.9617 74.9039 36.8391C72.6464 39.6902 69.45 39.7837 69.0509 39.7837H69.0068C69.0068 39.7837 69.7375 42.0729 71.8895 42.0729C71.9247 42.0729 71.9554 42.0729 71.9926 42.0709C72.982 42.0359 73.491 41.6592 73.491 41.6592C73.491 41.6592 73.8728 46.8536 69.97 48.4655C69.97 48.4655 70.6808 49.6917 72.3108 49.6917H72.3305C74.2895 49.6807 75.0772 48.4959 75.0772 48.4959C75.0772 48.4959 74.9631 50.0379 75.6652 52.1179C76.514 54.6249 75.6629 56.4173 75.6629 56.4173C75.6629 56.4173 76.1192 56.5393 76.6435 56.5393C76.8475 56.5393 77.056 56.5197 77.2512 56.4674C78.8833 56.0818 79.2936 54.6052 79.2936 54.6052C79.2936 54.6052 79.1444 59.595 85.0042 59.595H85.0457C85.0457 59.595 84.5325 58.898 84.3833 56.8922C84.1025 53.1894 81.5773 52.682 81.5773 52.682ZM80.6364 53.5837C78.2824 50.8481 76.2706 48.0058 76.0051 43.9111C75.7617 44.654 74.7612 46.7209 73.173 47.4983C73.173 47.4983 75.1692 46.3026 76.0666 41.6438V41.681C76.6611 36.9373 80.1295 33.5091 83.9927 31.4268C84.346 31.2351 84.6816 31.0741 84.9976 30.9215C83.8239 31.1022 81.9306 31.124 80.4673 29.8652C80.4673 29.8652 82.7028 31.4987 87.2813 30.0155C86.0134 30.8323 83.554 31.9845 81.3031 33.851C75.6782 38.7558 79.7017 43.5408 79.7017 43.5408C77.679 41.4456 77.5979 39.2046 78.1924 37.3729C77.1262 39.1326 76.4461 41.2649 76.5558 43.896C76.7093 47.6661 78.7956 50.9265 80.9872 53.5467C82.047 54.8165 82.2861 56.3802 82.2861 56.3802C82.2861 56.3802 81.8559 55.0015 80.6364 53.5837Z" fill="white"/>
<path d="M91.4967 34.4392C91.5931 34.5415 91.6874 34.6527 91.7775 34.7637C91.7994 34.7899 91.8191 34.8138 91.841 34.8444C91.9245 34.9553 92.01 35.0731 92.0912 35.1928C92.1087 35.2167 92.1264 35.2451 92.146 35.2733C92.2448 35.4215 92.337 35.574 92.429 35.7309C93.2736 37.1791 94.6273 38.0438 95.8272 38.0459C97.0294 38.0438 98.3787 37.1791 99.2277 35.7309C99.322 35.5695 99.4164 35.4128 99.5149 35.2669C99.5303 35.2451 99.5458 35.2255 99.5589 35.2037C99.6422 35.0796 99.7301 34.9576 99.8222 34.8399C99.8419 34.8138 99.8594 34.792 99.877 34.7703C99.9713 34.6548 100.068 34.5416 100.167 34.4369C100.184 34.4196 100.197 34.4043 100.213 34.3913C100.643 33.9535 101.156 33.6202 101.827 33.4352L101.529 33.2631H101.511L100.322 32.5771L99.1004 31.8822L95.836 33.6464L95.8272 33.6398L95.8206 33.6464L92.554 31.8822L91.3344 32.5748L90.1431 33.2609H90.1299L89.8271 33.433C90.5006 33.618 91.0118 33.9469 91.444 34.3847C91.4636 34.4021 91.4769 34.4218 91.4967 34.4392ZM94.5065 34.2976H95.8886H97.2685V35.2385C96.944 34.8444 96.3121 34.925 96.3121 34.925V36.2818C96.3121 36.2818 96.3362 36.9483 96.5709 37.2379H95.8886H95.2042C95.4433 36.9505 95.4653 36.2818 95.4653 36.2818V34.925C95.4653 34.925 94.8356 34.8444 94.5065 35.2385V34.2976Z" fill="white"/>
<path d="M95.5467 32.4721V26.964L92.0146 25.7747L92.947 31.1131L95.5467 32.4721ZM94.7876 28.3165V29.2008L94.6165 29.1223C94.6077 29.1158 94.3577 29.0592 93.9189 28.715C93.1949 28.1575 93.1818 27.6435 93.1818 27.6435L94.7876 28.3165Z" fill="white"/>
<path d="M98.7142 31.1131L99.6421 25.7747L96.1123 26.964V32.4721L98.7142 31.1131ZM96.8714 28.3165L98.4771 27.6456C98.4771 27.6456 98.4641 28.1597 97.7379 28.7172C97.3014 29.0613 97.0491 29.1179 97.0403 29.1245L96.8691 29.2028V28.3165H96.8714Z" fill="white"/>
<path d="M90.5515 45.242C90.896 45.3661 91.3128 45.3923 91.5256 45.3923C91.5345 45.3661 91.5453 45.3334 91.5564 45.2943C91.576 45.2311 91.5937 45.1701 91.6069 45.1003C91.6661 44.7956 91.688 44.4493 91.6924 44.2271C91.5475 44.1377 91.3435 43.9787 91.2296 43.7413C91.0979 43.4669 90.9114 43.3406 90.6371 43.3406C90.2817 43.3406 89.9001 43.5518 89.7376 43.6521C89.6084 44.4121 90.172 45.1026 90.5515 45.242Z" fill="white"/>
<path d="M98.3631 42.3188C97.7072 43.0267 96.4238 44.2595 96.3602 44.3227L96.2834 44.4011L92.2271 44.3379C92.2248 44.7365 92.159 45.0763 92.0955 45.3246C92.0845 45.3659 92.0736 45.4095 92.0625 45.453L96.8889 46.3134C97.3913 45.9649 98.7734 44.9629 99.3087 44.571C98.9181 44.0047 98.8808 43.3338 98.9685 42.8613C98.7141 42.6979 98.5189 42.5149 98.3631 42.3188Z" fill="white"/>
<path d="M98.914 37.4755C97.9793 38.3967 97.0821 38.7365 96.2814 38.8149C96.1365 38.8302 95.9896 38.8387 95.8404 38.8387H95.8294H95.8206C95.6715 38.8387 95.5223 38.8302 95.3774 38.8149C95.2371 38.8018 95.0902 38.78 94.9432 38.7474C94.8904 38.9542 94.8246 39.3877 95.0133 39.7972C95.1822 40.1696 95.5267 40.4462 96.0291 40.6293L96.1979 40.6945L96.2002 40.8753C96.2002 40.9297 96.2397 42.1015 97.5274 42.426C97.738 42.2104 97.9289 42.0166 98.0694 41.8553C97.806 41.2411 97.9441 40.6139 98.3259 40.3068C98.3085 40.3721 98.1417 41.9099 99.3835 42.4804L99.5875 42.5764L99.526 42.7919C99.5061 42.8573 99.0916 44.3449 100.594 44.898L100.86 44.9983L100.741 45.2553C100.715 45.3119 100.125 46.6624 101.514 47.4289H104.526V45.0549C103.455 44.9242 103.001 44.0705 102.885 43.4649C102.387 43.38 102.001 43.1666 101.737 42.818C101.105 41.9925 101.65 41.2368 101.656 41.1954C101.654 41.202 101.656 42.0078 102.156 42.5044C102.404 42.7439 102.698 42.9292 103.144 42.9706L103.363 42.9902L103.383 43.2124C103.387 43.2602 103.508 44.3492 104.528 44.5213L104.526 39.673C104.526 38.9216 104.747 38.1659 105.013 37.4689H98.914V37.4755Z" fill="white"/>
<path d="M90.8077 39.6963L90.7266 42.7847L91.0796 42.8371L91.9441 39.8749L91.5053 38.9645L90.8077 39.6963Z" fill="white"/>
<path d="M100.338 53.8603C100.365 53.8603 100.395 53.8647 100.424 53.8712C100.961 54.0238 101.097 55.9491 102.041 56.1211C102.133 56.1407 102.218 56.145 102.293 56.145C102.565 56.145 102.727 56.0295 102.903 55.8249C102.903 55.8249 102.429 55.0843 102.074 54.5857C101.602 53.9322 101.236 53.1415 100.358 53.1415C100.338 53.1415 100.312 53.1415 100.29 53.1439C100 53.159 99.8227 53.2984 99.8227 53.2984C99.4673 53.0763 99.1361 53 98.8354 53C98.2849 53 97.8572 53.2506 97.6442 53.2506H97.6355L95.6742 53.0589C95.3671 53.0306 95.1258 52.7234 95.0381 52.6037C95.0161 52.5709 95.0051 52.5514 95.0051 52.5514C95.0051 52.4991 95.0051 52.4447 95.0008 52.3967C94.935 50.8046 93.6933 50.1229 93.2523 50.1119C93.2523 50.1119 93.3049 49.8093 93.1843 49.6939L92.7521 50.2143L91.3327 49.5065L92.3441 50.6805L91.4862 51.6365C91.3787 51.7456 91.3919 51.8937 91.4358 51.9546L91.8066 52.2792L92.2761 51.996C92.3001 51.9786 92.3419 51.9742 92.3945 51.9742C92.524 51.9742 92.7192 52.0068 92.8947 52.0068C93.0855 52.0068 93.2523 51.9654 93.272 51.7868C93.2128 52.3771 92.6622 53.4029 93.0242 54.2088L93.2919 54.8165L91.5587 54.5681L90.7469 55.9294C90.4969 56.3825 90.4574 56.8725 90.6987 57.1382L91.0013 57.5151C91.0013 57.5151 91.427 57.0663 91.5235 56.7723L91.3853 56.622C91.269 56.4957 91.2757 56.3825 91.3459 56.2453L91.8548 55.4066L93.9016 55.8859L94.0091 55.7029C94.1473 55.4742 94.347 55.4045 94.5664 55.4045C94.6563 55.4045 94.7485 55.4154 94.845 55.4307C95.2246 55.5048 95.8498 55.6049 96.4751 55.6049C97.1617 55.6049 97.8418 55.483 98.2036 55.0801C98.9452 56.1712 100.448 56.3454 100.329 56.8986L99.9346 58.7675C100.196 58.7565 100.448 58.7391 100.687 58.7064L101.062 56.7613C101.104 56.5501 101.143 56.2647 101.143 56.2647C100.999 56.1189 100.648 55.8096 100.45 55.435C100.185 54.9296 100.329 54.6662 100.082 54.0084C100.09 54.0128 100.165 53.8603 100.338 53.8603ZM92.6819 51.1291C92.581 51.1269 92.5086 51.042 92.5129 50.9419C92.5218 50.846 92.6029 50.7697 92.7016 50.7784C92.8025 50.7829 92.875 50.87 92.8706 50.9658C92.8617 51.0616 92.7784 51.1357 92.6819 51.1291Z" fill="white"/>
<path d="M89.8871 55.6288C89.8871 55.6288 90.5649 55.3522 90.6263 55.1539L90.5364 54.9296C90.4728 54.7837 90.4816 54.6246 90.6044 54.5376L91.3371 54.0344L92.5613 54.2674C92.5613 54.2674 92.3397 53.993 92.3617 53.6249L91.1946 53.3788L90.0933 54.0453C89.6216 54.3959 89.5864 54.9687 89.7423 55.3084L89.8871 55.6288Z" fill="white"/>
<path d="M98.5391 58.7956C98.7584 58.787 98.9997 58.7826 99.2652 58.7826C99.2652 58.7826 99.8949 56.9553 99.9298 56.8966C99.5768 56.7419 98.844 56.3562 98.561 56.1799C98.7475 56.4565 99.2016 56.7745 99.1117 57.0184L98.5391 58.7956Z" fill="white"/>
<path d="M104.531 47.9581H87.1279V54.4573C87.1279 57.1145 89.0652 58.7786 91.9236 58.7786C94.3127 58.7786 94.9422 58.8699 95.8308 59.7456C96.4429 59.1401 96.9497 58.9134 97.9895 58.8285L98.0136 58.7284L98.562 57.0448C98.5314 57.0078 97.6342 55.9951 97.6342 55.9951C97.2787 56.1127 96.9804 56.1323 96.4781 56.1323C95.9625 56.1323 95.3811 56.0734 94.7515 55.9558C94.6878 55.9407 94.6286 55.9362 94.5693 55.9362C94.4925 55.9362 94.486 55.9427 94.4663 55.9798L94.3566 56.1583L94.1569 56.485L93.7819 56.4001L92.1123 56.0102L91.884 56.3849L91.9192 56.4241L92.1233 56.6462L92.0334 56.9359C91.9104 57.3149 91.5111 57.757 91.3906 57.8791L90.9736 58.3234L90.5942 57.8464L90.309 57.4914C90.0084 57.1581 89.9383 56.6462 90.1071 56.1105C90.1027 56.1148 90.0961 56.1169 90.0897 56.1169L89.618 56.3108L89.405 55.8534L89.2559 55.529C88.9994 54.9583 89.0935 54.1241 89.7848 53.6209L91.1296 52.8674L92.4085 53.1179C92.4392 52.9958 92.4852 52.5602 92.5225 52.4493C92.4984 52.4471 92.4744 52.4405 92.4501 52.4405L91.713 52.7128L91.0022 52.2249C91.0022 52.2249 90.7236 51.9591 90.9758 51.6935L91.6647 50.659L89.9206 48.4852L92.6014 49.5787L92.7793 49.3587L93.1411 48.9296L93.5514 49.3173C93.6677 49.4283 93.7335 49.5655 93.7663 49.7027C94.5057 49.9881 95.8285 50.831 95.9448 52.2009L95.5302 52.3664V52.3774C95.6246 52.4884 95.7035 52.5342 95.7276 52.5385L97.6407 52.7259C97.6889 52.7171 97.7504 52.6953 97.8184 52.6757C98.0553 52.5952 98.413 52.4797 98.8363 52.4797C99.1808 52.4797 99.5141 52.5581 99.8344 52.7063C99.9529 52.6627 100.098 52.63 100.265 52.6192L100.357 52.617C101.381 52.617 101.89 53.377 102.298 53.9827C102.366 54.087 102.434 54.1873 102.504 54.2852C102.862 54.7863 103.329 55.5202 103.349 55.5508L103.56 55.8775L103.301 56.1759C103.101 56.4044 102.803 56.6725 102.289 56.6725C102.184 56.6725 102.068 56.6615 101.943 56.6375C101.833 56.618 101.734 56.5851 101.638 56.546C101.622 56.6462 101.603 56.7661 101.583 56.8683L101.247 58.6064C103.255 58.1164 104.529 56.6114 104.529 54.4595L104.531 47.9581Z" fill="#FBE657"/>
<path d="M87.129 47.4355H100.663C99.9869 46.7429 99.9958 45.8652 100.169 45.2945C99.9716 45.2008 99.8093 45.0874 99.6645 44.9656C99.1358 45.3532 97.5211 46.5207 97.0999 46.8124L97.01 46.8735L91.6987 45.9196H91.5913C91.4641 45.9196 91.2776 45.9151 91.0735 45.8912C91.0165 46.1286 90.8103 46.292 90.5733 46.292C90.547 46.292 90.5163 46.2898 90.4877 46.2832C90.3495 46.2593 90.229 46.1895 90.1478 46.0741C90.0644 45.9609 90.0316 45.8258 90.0556 45.6865L90.0754 45.5732C89.5269 45.1899 89.0224 44.3339 89.2461 43.4322L89.268 43.3365L89.3449 43.282C89.3558 43.2733 89.4479 43.2123 89.584 43.1339L89.1978 43.075C89.0531 43.0489 88.9566 42.916 88.9786 42.7745C89.0026 42.6308 89.1386 42.5283 89.2812 42.5567L90.2004 42.7004L90.2838 39.4856L91.6528 38.0482L92.5061 39.8321L91.6044 42.9248L92.4162 43.0511C92.5587 43.0729 92.6575 43.2057 92.6356 43.3516C92.6136 43.4801 92.504 43.5695 92.3745 43.5695C92.3613 43.5695 92.346 43.5695 92.3327 43.5673L91.6724 43.4606C91.6813 43.4801 91.6943 43.4909 91.7032 43.5127C91.7733 43.6566 91.9292 43.7611 92.0212 43.8047L96.0711 43.8678C96.2421 43.7023 96.6678 43.2885 97.1044 42.8507C96.1084 42.4761 95.7464 41.6223 95.6849 41.0559C95.1277 40.8207 94.7438 40.468 94.531 40.0083C94.2721 39.44 94.3643 38.8715 94.4322 38.5949C93.8926 38.3988 93.3245 38.0418 92.7452 37.4711H86.6465C86.9076 38.1679 87.129 38.9238 87.129 39.6752V47.4355Z" fill="#FBE657"/>
<path d="M92.7028 50.7783C92.604 50.7695 92.5207 50.8457 92.5141 50.9415C92.5075 51.0416 92.5821 51.1266 92.683 51.1287C92.7794 51.1375 92.8651 51.0634 92.8738 50.9655C92.8738 50.8696 92.8037 50.7804 92.7028 50.7783Z" fill="black"/>
<path d="M104.508 62.5634L103.505 62.1821L103.782 61.1542L104.087 60.0325C104.087 60.0325 102.31 60.9887 99.8067 61.7075C99.0959 61.91 98.5584 62.0014 98.5584 62.0014V62.7637C98.5584 62.7637 97.2202 62.9946 95.8666 62.9946H95.8511H95.8315H95.8051H95.7897C94.4363 62.9946 93.098 62.7637 93.098 62.7637V62.0014C93.098 62.0014 92.5582 61.91 91.8497 61.7075C89.3465 60.9887 87.5718 60.0325 87.5718 60.0325L87.8722 61.1542L88.1553 62.1821L87.1505 62.5634L86.0361 62.9771C87.3151 63.5892 89.0854 64.4823 90.7068 64.9221L90.325 65.9588C90.325 65.9588 92.3806 66.8889 95.8051 66.8977V66.8998H95.8162H95.8315H95.8447H95.8534V66.8977C99.2824 66.8889 101.336 65.9588 101.336 65.9588L100.952 64.9221C102.573 64.4823 104.348 63.5892 105.62 62.9771L104.508 62.5634ZM87.2251 63.0468L88.8748 62.5025L88.3878 60.9233C89.1139 61.3328 90.7441 61.9469 91.6873 62.2323L90.891 64.4037C89.4342 64.0053 88.2211 63.5413 87.2251 63.0468ZM95.8315 66.3531C93.9162 66.3531 91.729 65.9153 91.0863 65.6889L92.0646 63.06C92.8764 63.2953 94.5656 63.5456 95.7919 63.5368H95.7942H95.8315H95.8644H95.8688C97.0952 63.5456 98.7799 63.2953 99.5961 63.06L100.572 65.6889C99.9295 65.9175 97.7445 66.3531 95.8315 66.3531ZM100.768 64.4037L99.9734 62.2323C100.919 61.9469 102.544 61.3328 103.273 60.9233L102.788 62.5025L104.436 63.0468C103.437 63.5413 102.231 64.0053 100.768 64.4037Z" fill="black"/>
<path d="M95.8293 21.5298C97.8696 21.5298 99.5017 22.2007 100.403 22.9173C100.403 22.9173 100.671 21.3164 101.586 19.9029L99.9427 20.088L99.0828 18.2738L97.4308 19.1189L95.8293 17.5463L94.2322 19.1189L92.5782 18.2738L91.7204 20.088L90.0771 19.9029C90.9919 21.3164 91.2596 22.9173 91.2596 22.9173C92.1634 22.2007 93.7912 21.5298 95.8293 21.5298ZM91.6456 20.724L92.102 20.7719L92.2995 20.3603L92.8742 19.1406L93.9404 19.6872L94.3529 19.8963L94.682 19.574L95.8315 18.4415L96.9833 19.574L97.3124 19.8963L97.7248 19.6872L98.7845 19.1406L99.3658 20.3603L99.5588 20.7719L100.015 20.724L100.449 20.6717C100.25 21.1183 100.103 21.5407 99.9974 21.8915C98.8479 21.2555 97.3518 20.8938 95.8272 20.8938C94.3091 20.8938 92.815 21.2555 91.661 21.8915C91.5537 21.5407 91.4088 21.116 91.2091 20.6717L91.6456 20.724Z" fill="black"/>
<path d="M119.766 42.772C122.405 42.772 123.287 40.1062 123.324 39.9929L123.618 39.0541L122.628 39.0846H122.624C122.275 39.0846 119.364 39.0084 117.3 36.4035L117.104 36.1618C115.755 34.4586 114.476 32.8403 112.19 32.1019C112.256 32.0432 112.351 31.9691 112.48 31.8863C113.693 31.0935 114.399 30.1308 114.577 29.0135C114.836 27.3321 113.757 25.9926 113.709 25.9382L112.974 25.0365L112.515 26.1059C112.484 26.1734 111.712 27.8854 110.089 27.8854H109.968C109.856 27.8788 109.751 27.8744 109.646 27.8656C109.703 27.1012 109.562 25.9185 108.483 24.8099C107.186 23.4748 105.594 23.2744 104.76 23.2744C104.315 23.2744 104.018 23.3289 103.988 23.3333L102.878 23.551L103.562 24.4462C104.1 25.1366 104.587 26.4108 104.01 27.0773C103.825 27.2886 103.446 27.4606 103.082 27.6326C102.334 27.9745 101.313 28.4493 101.313 29.6604C101.313 30.4445 101.926 31.2634 103.036 31.9603C106.322 34.012 108.349 36.153 109.224 38.5161C110.578 42.1513 108.812 44.2247 107.096 45.316L106.326 45.8081L107 46.4223C107.09 46.5008 107.915 47.2217 109.132 47.3263C109.363 47.3415 109.584 47.3545 109.79 47.3545C110.571 47.3545 111.236 47.2326 111.776 47.0691C111.626 47.3284 111.444 47.592 111.214 47.8577C110.234 48.9858 109.027 49.4999 107.292 49.526L106.647 49.537L106.596 50.1794C106.59 50.3079 106.541 51.4993 107.678 52.5121C107.851 52.6688 108.062 52.7975 108.281 52.9042C107.511 53.5924 106.728 54.7903 106.577 56.8442C106.449 58.5582 106.037 59.1921 106.032 59.1985L105.319 60.2788L106.607 60.2963C108.735 60.2963 110.365 59.7126 111.495 58.5582C112.162 57.8743 112.544 57.1033 112.77 56.4195C113.14 56.733 113.619 57.0074 114.241 57.1533C114.479 57.2078 114.737 57.2383 115.016 57.2383C115.617 57.2383 116.12 57.112 116.177 57.099L116.999 56.8811L116.635 56.1188C116.609 56.0579 115.922 54.5289 116.661 52.3465C116.979 51.4034 117.142 50.5583 117.221 49.9006C117.738 50.1684 118.432 50.3906 119.329 50.3928C121.365 50.3928 122.262 48.8835 122.304 48.8203L122.705 48.1277L121.962 47.8228C119.535 46.8231 118.998 44.1375 118.89 42.6827C119.11 42.7241 119.36 42.7633 119.643 42.772H119.766ZM121.689 48.4652C121.689 48.4652 120.979 49.6916 119.349 49.6916H119.329C117.372 49.6806 116.582 48.4958 116.582 48.4958C116.582 48.4958 116.696 50.0379 115.99 52.1178C115.141 54.6247 115.997 56.4173 115.997 56.4173C115.997 56.4173 115.54 56.5392 115.014 56.5392C114.812 56.5392 114.601 56.5196 114.404 56.4673C112.77 56.0818 112.362 54.6051 112.362 54.6051C112.362 54.6051 112.513 59.595 106.653 59.595H106.607C106.607 59.595 107.123 58.8979 107.276 56.8919C107.555 53.1894 110.08 52.682 110.08 52.682C110.08 52.682 108.733 52.5143 108.149 51.9938C107.237 51.1726 107.3 50.2229 107.3 50.2229C109.363 50.1947 110.712 49.4978 111.741 48.3151C112.855 47.0344 113.039 45.6557 113.039 45.6557C113.039 45.6557 111.931 46.6532 109.788 46.6532C109.6 46.6532 109.398 46.6445 109.191 46.6249C108.178 46.5444 107.476 45.9039 107.476 45.9039C109.707 44.4839 111.273 42.0053 109.885 38.2721C108.772 35.2818 106.1 33.0472 103.411 31.3636C102.516 30.8082 102.018 30.1919 102.018 29.6604C102.018 28.4102 103.808 28.371 104.543 27.5302C105.389 26.5545 104.859 24.9712 104.124 24.0194C104.124 24.0194 104.372 23.9693 104.762 23.9693C105.537 23.9693 106.877 24.1631 107.978 25.2956C109.442 26.7984 108.834 28.4342 108.834 28.4342L109.227 28.5104C109.461 28.5605 109.694 28.5693 109.935 28.5801C109.988 28.5801 110.04 28.5823 110.093 28.5823C112.219 28.5823 113.169 26.3759 113.169 26.3759C113.169 26.3759 115.429 29.1355 112.103 31.296C111.53 31.6663 111.278 32.0082 111.344 32.3742L111.396 32.6138L111.633 32.6552C114.044 33.3042 115.264 34.9552 116.753 36.8325C119.015 39.688 122.216 39.7795 122.611 39.7795H122.653C122.653 39.7795 121.922 42.0685 119.77 42.0685C119.735 42.0685 119.704 42.0685 119.667 42.0664C118.678 42.0314 118.171 41.6547 118.171 41.6547C118.171 41.6547 117.782 46.8535 121.689 48.4652Z" fill="black"/>
<path d="M115.131 32.3896C116.116 32.91 116.688 33.607 117.191 34.2255C117.684 34.8288 118.154 35.4104 118.886 35.6522C119.148 35.7415 119.424 35.7829 119.705 35.7829C120.806 35.7829 121.912 35.1142 122.331 34.1886L122.752 33.2607L121.732 33.1997C121.684 33.1975 120.372 33.0799 118.911 31.5967C118.31 30.9892 117.583 30.6688 116.8 30.6688C115.844 30.6688 115.135 31.1436 115.056 31.1916L114.117 31.8473L115.131 32.3896ZM116.802 31.3703C117.294 31.3703 117.866 31.5357 118.408 32.0911C120.108 33.8053 121.69 33.9011 121.69 33.9011C121.403 34.5326 120.569 35.0881 119.707 35.0881C119.507 35.0881 119.308 35.0576 119.108 34.9901C117.939 34.5981 117.52 32.8556 115.464 31.7709C115.464 31.7709 116.039 31.3703 116.802 31.3703Z" fill="black"/>
<path d="M115.591 41.6439V41.6788C114.999 36.9351 111.528 33.5091 107.667 31.4248C107.309 31.2352 106.98 31.0741 106.66 30.9194C107.836 31.1002 109.729 31.122 111.19 29.863C111.19 29.863 108.955 31.4966 104.374 30.0134C105.642 30.8301 108.106 31.9824 110.354 33.8488C115.977 38.7536 111.954 43.5387 111.954 43.5387C113.974 41.4458 114.057 39.2025 113.463 37.3708C114.527 39.1284 115.207 41.2627 115.102 43.8938C114.946 47.6639 112.86 50.9244 110.664 53.5446C109.608 54.8165 109.372 56.3782 109.372 56.3782C109.372 56.3782 109.797 54.9995 111.019 53.5815C113.373 50.8461 115.385 48.0037 115.648 43.909C115.892 44.6518 116.894 46.7187 118.485 47.4962C118.489 47.4984 116.49 46.3027 115.591 41.6439Z" fill="black"/>
<path d="M85.6252 59.1963C85.623 59.1898 85.215 58.5559 85.0835 56.8418C84.9299 54.788 84.1488 53.59 83.3766 52.9018C83.6004 52.7972 83.8066 52.6688 83.9799 52.5098C85.1142 51.4969 85.0658 50.3057 85.0592 50.1772L85.0154 49.5347L84.366 49.5237C82.6352 49.4953 81.4262 48.9814 80.4457 47.8553C80.2175 47.5896 80.0333 47.3261 79.8841 47.0669C80.4236 47.2302 81.084 47.3523 81.8672 47.3523C82.0779 47.3523 82.2951 47.3391 82.5254 47.3239C83.7429 47.2194 84.5679 46.5006 84.6599 46.4201L85.3334 45.8059L84.5634 45.3136C82.8413 44.2203 81.0818 42.1468 82.4332 38.5139C83.3085 36.1507 85.3334 34.0097 88.6242 31.958C89.7343 31.261 90.3419 30.4422 90.3419 29.6581C90.3419 28.4471 89.324 27.9702 88.5759 27.6303C88.2117 27.4583 87.8323 27.2862 87.648 27.075C87.0688 26.4107 87.5579 25.1344 88.0933 24.4439L88.7822 23.5488L87.6677 23.3309C87.6348 23.3266 87.343 23.2722 86.8955 23.2722C86.0618 23.2722 84.4735 23.4726 83.1747 24.8077C82.0932 25.9185 81.9507 27.1011 82.0055 27.8633C81.9002 27.8721 81.7949 27.8766 81.6852 27.8829H81.5668C79.9389 27.8829 79.169 26.1712 79.1383 26.1036L78.6796 25.0342L77.9381 25.9358C77.8965 25.9904 76.8128 27.332 77.076 29.0112C77.2515 30.1285 77.9579 31.0911 79.171 31.884C79.3027 31.9668 79.3948 32.0408 79.4606 32.0997C77.177 32.8379 75.9001 34.4585 74.5509 36.1616L74.3556 36.4034C72.2935 39.0082 69.3757 39.0846 69.0269 39.0846L68.0332 39.0541L68.3359 39.9927C68.371 40.106 69.2507 42.7718 71.892 42.7718L72.0193 42.7676C72.2978 42.7588 72.548 42.7218 72.7718 42.6782C72.662 44.1309 72.1245 46.8165 69.696 47.8183L68.9545 48.1233L69.3561 48.8159C69.3955 48.879 70.295 50.3884 72.3351 50.3884C73.2259 50.3862 73.919 50.164 74.439 49.8962C74.518 50.5539 74.6803 51.399 74.9985 52.342C75.7378 54.5244 75.0489 56.0534 75.0225 56.1144L74.6584 56.8767L75.4833 57.0945C75.5381 57.1075 76.0449 57.2338 76.6438 57.2338C76.9246 57.2338 77.1835 57.2034 77.4161 57.1489C78.0414 57.0029 78.5239 56.7286 78.8902 56.4149C79.114 57.0987 79.4979 57.8698 80.1628 58.5537C81.2946 59.708 82.9224 60.2917 85.0504 60.2917L86.3404 60.2744L85.6252 59.1963ZM85.0021 59.5948C79.1425 59.5948 79.2918 54.605 79.2918 54.605C79.2918 54.605 78.8838 56.0817 77.2493 56.4672C77.0541 56.5195 76.8456 56.5392 76.6416 56.5392C76.1152 56.5392 75.661 56.4171 75.661 56.4171C75.661 56.4171 76.5121 54.6246 75.6631 52.1178C74.9612 50.0377 75.0753 48.4957 75.0753 48.4957C75.0753 48.4957 74.2877 49.6806 72.3287 49.6914H72.3089C70.6789 49.6914 69.9681 48.4652 69.9681 48.4652C73.873 46.8557 73.4891 41.6589 73.4891 41.6589C73.4891 41.6589 72.9824 42.0336 71.9907 42.0706C71.9556 42.0728 71.9228 42.0728 71.8877 42.0728C69.7333 42.0728 69.005 39.7837 69.005 39.7837H69.0488C69.446 39.7837 72.6424 39.6921 74.9041 36.8368C76.3937 34.9594 77.6156 33.3106 80.0222 32.6595L80.2635 32.6181L80.3163 32.3785C80.3821 32.0125 80.132 31.6706 79.5594 31.3003C76.2336 29.1376 78.4932 26.3801 78.4932 26.3801C78.4932 26.3801 79.4387 28.5844 81.5689 28.5844C81.6215 28.5844 81.6699 28.5821 81.7246 28.5821C81.9637 28.569 82.2008 28.5604 82.4332 28.5103L82.826 28.434C82.826 28.434 82.2182 26.7984 83.6837 25.2956C84.7851 24.1609 86.1254 23.9692 86.8976 23.9692C87.2903 23.9692 87.5339 24.0192 87.5339 24.0192C86.8012 24.9731 86.2703 26.5545 87.1169 27.5302C87.8497 28.3687 89.6377 28.4101 89.6377 29.6603C89.6377 30.1895 89.1398 30.8082 88.2448 31.3635C85.5528 33.0471 82.8809 35.2817 81.7707 38.2721C80.3843 42.0053 81.9484 44.4816 84.1839 45.9039C84.1839 45.9039 83.4819 46.5441 82.4662 46.6248C82.26 46.6444 82.0603 46.6531 81.8672 46.6531C79.7261 46.6531 78.6182 45.6555 78.6182 45.6555C78.6182 45.6555 78.8025 47.0343 79.9104 48.3149C80.9459 49.4975 82.2951 50.1945 84.3573 50.2229C84.3573 50.2229 84.4231 51.1726 83.5104 51.9935C82.9248 52.5119 81.5776 52.6817 81.5776 52.6817C81.5776 52.6817 84.105 53.1893 84.3814 56.8919C84.5327 58.8978 85.0439 59.5948 85.0439 59.5948H85.0021Z" fill="black"/>
<path d="M71.952 35.7854C72.235 35.7854 72.5114 35.7439 72.7724 35.6545C73.5096 35.4128 73.9768 34.8313 74.4704 34.228C74.9751 33.6094 75.5433 32.9125 76.5282 32.392L77.5418 31.8518L76.6006 31.1962C76.5216 31.1461 75.8152 30.6736 74.861 30.6736C74.0756 30.6736 73.3473 30.9915 72.7483 31.6012C71.2872 33.0824 69.9776 33.2021 69.9292 33.2044L68.9092 33.2631L69.3282 34.1931C69.7493 35.1144 70.8528 35.7854 71.952 35.7854ZM73.2507 32.0936C73.7947 31.5381 74.3674 31.3727 74.861 31.3727C75.62 31.3727 76.1947 31.7733 76.1947 31.7733C74.1414 32.8602 73.7202 34.6006 72.5464 34.9925C72.3535 35.06 72.1516 35.0905 71.952 35.0905C71.0898 35.0905 70.2561 34.5373 69.971 33.9035C69.971 33.9014 71.5505 33.8054 73.2507 32.0936Z" fill="black"/>
<path d="M76.5569 43.896C76.4473 41.2649 77.1274 39.1304 78.1935 37.3728C77.599 39.2045 77.6802 41.4479 79.7029 43.541C79.7029 43.541 75.6794 38.7559 81.3043 33.851C83.5552 31.9845 86.0167 30.8322 87.2825 30.0155C82.704 31.4987 80.4685 29.8652 80.4685 29.8652C81.9295 31.1242 83.8229 31.1024 84.9988 30.9195C84.6807 31.074 84.3471 31.2352 83.9939 31.4247C80.1285 33.509 76.66 36.9351 76.0655 41.6788V41.6418C75.1683 46.3006 73.1719 47.4963 73.1719 47.4963C74.7603 46.7186 75.7607 44.6539 76.0041 43.9091C76.2696 48.0038 78.2812 50.846 80.6352 53.5817C81.8572 54.9994 82.2872 56.3782 82.2872 56.3782C82.2872 56.3782 82.0481 54.8165 80.9885 53.5445C78.7968 50.9288 76.7105 47.6661 76.5569 43.896Z" fill="black"/>
<path d="M94.5068 34.2976V35.2385C94.8338 34.8443 95.4656 34.925 95.4656 34.925V36.2818C95.4656 36.2818 95.4436 36.9483 95.2045 37.2379H95.8889H96.5712C96.3365 36.9505 96.3123 36.2818 96.3123 36.2818V34.925C96.3123 34.925 96.9441 34.8443 97.2689 35.2385V34.2976H95.8889H94.5068Z" fill="black"/>
<path d="M93.9187 28.7175C94.3552 29.0618 94.6075 29.1184 94.6163 29.125L94.7874 29.2033V28.3168L93.1816 27.646C93.1816 27.6482 93.1969 28.1599 93.9187 28.7175Z" fill="black"/>
<path d="M97.7376 28.7175C98.4638 28.1599 98.4769 27.646 98.4769 27.646L96.8711 28.3168V29.2033L97.0399 29.125C97.051 29.1184 97.301 29.0618 97.7376 28.7175Z" fill="black"/>
<path d="M100.631 25.1085C100.631 23.7647 98.3517 22.5559 95.8354 22.5559H95.8332H95.8267H95.8201C93.3038 22.5559 91.0244 23.7647 91.0244 25.1085L91.0749 25.4395L92.0796 31.1655L91.0706 31.7471L88.4598 33.2608H88.4687C88.4687 33.2608 87.8808 33.5592 87.6086 33.7443C86.6149 34.4305 86.4043 35.4301 86.9812 35.8439C87.1239 35.0293 87.7732 34.1756 88.9885 34.1756C89.8639 34.1756 90.5308 34.6242 91.0706 35.2973C91.2087 35.4671 91.3404 35.6479 91.4632 35.8439C91.6145 36.0899 91.7659 36.3057 91.9173 36.5148H85.1934C85.6869 37.5014 86.1564 38.5469 86.1564 39.6816V54.4572C86.1564 58.0335 88.9272 59.741 91.9238 59.741C94.2405 59.741 94.5522 59.6365 95.8311 60.8997C97.1035 59.6343 97.415 59.741 99.7339 59.741C102.733 59.741 105.499 58.0335 105.499 54.4572V39.6816C105.499 38.5469 105.969 37.5014 106.464 36.5148H99.7382C99.8874 36.3078 100.039 36.0899 100.19 35.8439C100.315 35.6479 100.445 35.4671 100.581 35.2973C101.125 34.6221 101.789 34.1756 102.665 34.1756C103.88 34.1756 104.527 35.0272 104.672 35.8439C105.249 35.4301 105.041 34.4305 104.04 33.7443C103.773 33.5592 103.185 33.2608 103.185 33.2608H103.193L100.583 31.7471L99.5781 31.1655L100.583 25.4395L100.631 25.1085ZM92.0137 25.775L95.5459 26.9641V32.4724L92.9463 31.1111L92.0137 25.775ZM92.7444 37.4752C93.3236 38.0479 93.8918 38.4031 94.4314 38.599C94.3611 38.8757 94.2692 39.4464 94.5302 40.0147C94.7429 40.4721 95.129 40.8251 95.684 41.0603C95.7455 41.6266 96.1053 42.4781 97.1035 42.855C96.6669 43.2927 96.2412 43.7043 96.068 43.872L92.0203 43.8089C91.9283 43.7631 91.7725 43.6608 91.7024 43.5149C91.6935 43.4953 91.6804 43.4843 91.6739 43.4625L92.334 43.5693C92.3496 43.5714 92.3626 43.5714 92.3758 43.5714C92.5031 43.5714 92.6149 43.4843 92.6369 43.3537C92.6588 43.2077 92.5601 43.0748 92.4175 43.053L91.6058 42.9267L92.5074 39.8361L91.6541 38.0524L90.2852 39.49L90.2017 42.7045L89.2826 42.5609C89.1399 42.5325 89.0039 42.6372 88.9799 42.7786C88.9579 42.9203 89.0544 43.0531 89.1991 43.0793L89.5852 43.138C89.4471 43.2165 89.3572 43.2774 89.3462 43.2861L89.2671 43.3406L89.2452 43.4365C89.0215 44.3382 89.5282 45.1941 90.0746 45.5774L90.0548 45.6906C90.0329 45.8302 90.0636 45.965 90.1469 46.0784C90.2259 46.1938 90.3487 46.2635 90.4847 46.2874C90.5133 46.2918 90.5439 46.2939 90.5704 46.2939C90.8072 46.2939 91.0135 46.1306 91.0727 45.8933C91.2767 45.9172 91.4632 45.9215 91.5904 45.9215H91.698L97.0092 46.8733L97.0991 46.8146C97.5224 46.5205 99.1349 45.3532 99.6636 44.9675C99.8084 45.0918 99.9707 45.2051 100.168 45.2986C99.9971 45.8692 99.9861 46.747 100.664 47.4397H87.1283V39.6838C87.1283 38.9324 86.9067 38.1766 86.6456 37.4796H92.7444V37.4752ZM99.3082 44.5712C98.7708 44.9633 97.3887 45.965 96.8885 46.3136L92.0621 45.4533C92.0732 45.4097 92.084 45.3683 92.0951 45.3248C92.1586 45.0764 92.2222 44.7367 92.2267 44.3382L96.283 44.4035L96.3598 44.325C96.4212 44.2641 97.7068 43.0313 98.3627 42.3213C98.5185 42.5151 98.7136 42.7003 98.9681 42.8636C98.8804 43.3341 98.9177 44.0049 99.3082 44.5712ZM91.2285 43.7413C91.3425 43.9788 91.5487 44.1378 91.6914 44.2271C91.6869 44.4491 91.665 44.7955 91.6058 45.1004C91.5926 45.1679 91.5751 45.2311 91.5553 45.2942C91.5444 45.3336 91.5334 45.3662 91.5246 45.3923C91.3118 45.3923 90.8927 45.3662 90.5505 45.242C90.1711 45.1026 89.6051 44.4122 89.7366 43.6521C89.9012 43.5518 90.2807 43.3406 90.6362 43.3406C90.9104 43.3384 91.0968 43.4669 91.2285 43.7413ZM90.7261 42.7852L90.8072 39.6989L91.5049 38.965L91.9437 39.8754L91.0793 42.8375L90.7261 42.7852ZM99.2644 58.7849C99.0011 58.7849 98.7576 58.7892 98.5382 58.798L99.113 57.0228C99.203 56.7767 98.7488 56.4609 98.5623 56.1843C98.8453 56.3608 99.5781 56.7463 99.9313 56.901C99.894 56.9575 99.2644 58.7849 99.2644 58.7849ZM101.068 56.768L100.693 58.7109C100.453 58.7435 100.199 58.7608 99.9379 58.7718L100.333 56.9031C100.451 56.3476 98.9485 56.1756 98.207 55.0844C97.845 55.4895 97.1627 55.6094 96.4783 55.6094C95.853 55.6094 95.2278 55.5091 94.8482 55.4351C94.7517 55.4199 94.6595 55.409 94.5696 55.409C94.3503 55.409 94.1505 55.4765 94.0124 55.7074L93.9026 55.8903L91.856 55.4112L91.347 56.2475C91.2745 56.3826 91.2701 56.4981 91.3864 56.6242L91.5246 56.7747C91.4303 57.0708 91.0048 57.5173 91.0048 57.5173L90.6998 57.1404C90.4584 56.8726 90.4979 56.3848 90.7503 55.9317L91.5619 54.5704L93.2951 54.8187L93.0252 54.2089C92.6632 53.403 93.2139 52.3772 93.2731 51.7869C93.2533 51.9655 93.0887 52.0047 92.8957 52.0047C92.7203 52.0047 92.525 51.972 92.3955 51.972C92.3451 51.972 92.3012 51.9764 92.2771 51.9938L91.8076 52.277L91.4369 51.9524C91.3929 51.8893 91.3777 51.7433 91.4873 51.6345L92.3451 50.6805L91.3317 49.5066L92.751 50.2144L93.1831 49.6939C93.3017 49.8094 93.2512 50.112 93.2512 50.112C93.6943 50.1229 94.9359 50.8047 95.0018 52.3946C95.0062 52.4424 95.0062 52.497 95.0062 52.5491C95.0062 52.5491 95.0172 52.5688 95.0391 52.6014C95.1269 52.7214 95.3681 53.0284 95.6752 53.0567L97.6366 53.2484H97.6452C97.8604 53.2484 98.2881 52.9979 98.8365 52.9979C99.1349 52.9979 99.4683 53.0741 99.8238 53.2963C99.8238 53.2963 100.001 53.1569 100.291 53.1416C100.313 53.1394 100.337 53.1394 100.359 53.1394C101.239 53.1394 101.603 53.928 102.075 54.5835C102.43 55.0823 102.904 55.8228 102.904 55.8228C102.728 56.0296 102.566 56.143 102.294 56.143C102.22 56.143 102.134 56.1364 102.042 56.119C101.098 55.9469 100.962 54.0216 100.425 53.869C100.396 53.8604 100.366 53.8582 100.339 53.8582C100.166 53.8582 100.089 54.0107 100.089 54.0107C100.335 54.6662 100.192 54.932 100.456 55.4373C100.653 55.8119 101.004 56.1212 101.149 56.2671C101.149 56.2715 101.109 56.5546 101.068 56.768ZM90.5352 54.9297L90.6251 55.1542C90.5659 55.3502 89.8859 55.6289 89.8859 55.6289L89.7388 55.3109C89.5831 54.9711 89.6159 54.3984 90.0899 54.0477L91.1912 53.3812L92.3583 53.6272C92.3363 53.9954 92.5579 54.2699 92.5579 54.2699L91.3337 54.0369L90.6011 54.54C90.4782 54.6249 90.4694 54.7839 90.5352 54.9297ZM101.252 58.6042L101.588 56.866C101.605 56.7637 101.627 56.6439 101.642 56.5437C101.737 56.583 101.838 56.6156 101.947 56.6352C102.072 56.6592 102.189 56.67 102.294 56.67C102.807 56.67 103.106 56.4021 103.305 56.1734L103.564 55.8751L103.354 55.5484C103.334 55.5157 102.869 54.7839 102.509 54.2829C102.439 54.1849 102.371 54.0869 102.303 53.9802C101.895 53.3746 101.384 52.6147 100.359 52.6147L100.267 52.6168C100.098 52.6277 99.9533 52.6603 99.837 52.7038C99.5144 52.5536 99.1832 52.4774 98.8387 52.4774C98.4153 52.4774 98.0577 52.5929 97.8208 52.6734C97.7528 52.693 97.6914 52.7148 97.6432 52.7235L95.7279 52.5361C95.7038 52.5319 95.6248 52.4862 95.5305 52.3729V52.3641L95.9451 52.1985C95.8289 50.8287 94.5038 49.9857 93.7645 49.7004C93.7316 49.5631 93.6658 49.4259 93.5496 49.3149L93.1371 48.9272L92.775 49.3585L92.5974 49.5785L89.9166 48.485L91.6607 50.6587L90.9718 51.6933C90.7195 51.959 90.9981 52.2248 90.9981 52.2248L91.7088 52.7104L92.4461 52.4382C92.4723 52.4382 92.4943 52.4448 92.5184 52.4468C92.4834 52.5579 92.4373 52.9935 92.4065 53.1155L91.1275 52.865L89.7827 53.6187C89.0917 54.1218 88.9973 54.956 89.2541 55.5267L89.4032 55.851L89.6159 56.3085L90.0855 56.1146C90.0921 56.1124 90.0987 56.1102 90.1029 56.106C89.9341 56.6417 90.0022 57.1513 90.3048 57.4868L90.59 57.844L90.9696 58.321L91.3864 57.8766C91.5093 57.7546 91.9064 57.3126 92.0292 56.9336L92.1191 56.6438L91.9152 56.4217L91.8822 56.3826L92.1105 56.0079L93.7798 56.3978L94.155 56.4827L94.3546 56.156L94.4643 55.9773C94.4841 55.9404 94.4906 55.9338 94.5675 55.9338C94.6267 55.9338 94.6859 55.9404 94.7495 55.9535C95.3791 56.071 95.9604 56.13 96.476 56.13C96.9762 56.13 97.2745 56.1102 97.6321 55.9927C97.6321 55.9927 98.5294 57.0032 98.5601 57.0425L98.0117 58.7239L97.9876 58.8263C96.9477 58.9089 96.441 59.1356 95.8289 59.7432C94.9404 58.8675 94.3107 58.7762 91.9218 58.7762C89.0631 58.7762 87.1261 57.1122 87.1261 54.455V47.9581H104.527L104.532 54.455C104.534 56.6112 103.259 58.114 101.252 58.6042ZM105.014 37.4752C104.749 38.1722 104.527 38.928 104.527 39.6794L104.53 44.5277C103.509 44.3578 103.389 43.2665 103.384 43.2187L103.365 42.9965L103.145 42.9769C102.702 42.9355 102.408 42.7481 102.16 42.5087C101.66 42.0121 101.658 41.2062 101.66 41.1996C101.653 41.241 101.109 41.9967 101.741 42.8222C102.007 43.1707 102.391 43.3842 102.889 43.4692C103.005 44.0746 103.459 44.9283 104.53 45.0591V47.4331H101.52C100.131 46.6665 100.719 45.316 100.747 45.2595L100.866 45.0024L100.6 44.9022C99.0976 44.349 99.5101 42.8592 99.532 42.7961L99.5934 42.5782L99.3894 42.4825C98.1476 41.9118 98.3167 40.372 98.3321 40.3089C97.9503 40.6159 97.812 41.2431 98.0753 41.8574C97.9327 42.0186 97.742 42.2146 97.5334 42.428C96.2479 42.1036 96.2085 40.9296 96.2085 40.8752L96.2061 40.6943L96.0373 40.629C95.5349 40.4438 95.1904 40.1673 95.0215 39.7947C94.8307 39.3833 94.8986 38.952 94.9514 38.745C95.0983 38.7777 95.2453 38.8017 95.3857 38.8126C95.5305 38.8277 95.6797 38.8365 95.8289 38.8365H95.8376H95.8486C95.9978 38.8365 96.1448 38.8277 96.2896 38.8126C97.0903 38.7341 97.9876 38.3922 98.9222 37.473H105.014V37.4752ZM100.324 32.5746L101.513 33.2608H101.531L101.829 33.4328C101.158 33.618 100.644 33.9512 100.214 34.389C100.199 34.4021 100.184 34.4195 100.168 34.4347C100.069 34.5392 99.9707 34.6526 99.8786 34.768C99.8611 34.7898 99.8435 34.8138 99.8238 34.8377C99.7316 34.9552 99.6462 35.0752 99.5627 35.2014C99.5496 35.2233 99.5342 35.245 99.5189 35.2645C99.4201 35.4105 99.3259 35.5673 99.2315 35.7284C98.3846 37.1768 97.0332 38.0415 95.8311 38.0437C94.6311 38.0415 93.2797 37.1768 92.4328 35.7284C92.3407 35.5716 92.2486 35.4192 92.1498 35.271C92.1301 35.2428 92.1125 35.2145 92.0951 35.1904C92.0117 35.0707 91.9283 34.9531 91.8427 34.8421C91.8208 34.8116 91.801 34.7875 91.7791 34.7614C91.6869 34.6503 91.5926 34.5392 91.4982 34.4369C91.4786 34.4217 91.4654 34.4021 91.4456 34.3847C91.0135 33.9469 90.5023 33.6158 89.8288 33.4328L90.1315 33.2608H90.1447L91.3337 32.5746L92.5557 31.88L95.8201 33.6441L95.8267 33.6376L95.8354 33.6441L99.0998 31.88L100.324 32.5746ZM98.7136 31.1132L96.1119 32.4745V26.9641L99.6417 25.775L98.7136 31.1132ZM95.8289 26.3587L91.959 24.8407C92.2881 24.0675 93.8061 23.4096 95.8289 23.4074C97.8538 23.4096 99.3718 24.0675 99.6988 24.8407L95.8289 26.3587Z" fill="black"/>
<path d="M143.751 49.4096V40.6885H148.903V37.515H134.847V40.6885H139.999V49.4096H143.751ZM154.032 44.4369V37.515H150.405V49.4096H153.606L159.859 42.4877V49.4096H163.486V37.515H160.284L154.032 44.4369ZM175.687 44.9867V49.4096H179.314V37.515H175.687V41.863H169.859V37.515H166.233V49.4096H169.859V44.9867H175.687ZM189.414 49.4096C190.239 49.4096 190.989 49.3347 191.69 49.1348C193.567 48.6101 194.791 47.0856 194.791 45.0116C194.791 43.0375 193.741 41.6632 192.066 41.0384C191.264 40.7386 190.315 40.7136 189.414 40.7136H185.687V37.515H182.061V49.4096H189.414ZM188.788 43.5124C189.289 43.5124 189.764 43.5124 190.189 43.6623C190.79 43.8622 191.14 44.3619 191.14 44.9616C191.14 45.5864 190.79 46.1112 190.214 46.361C189.814 46.5359 189.414 46.5359 188.788 46.5359H185.687V43.5124H188.788ZM201.294 44.9117L205.621 49.4096H210.448L204.421 43.2124L210.223 37.515H205.671L201.294 41.988H200.294V37.515H196.668V49.4096H200.294V44.9117H201.294ZM217.91 37.1902C213.033 37.1902 210.107 39.9389 210.107 43.4872C210.107 47.0358 213.033 49.7845 217.91 49.7845C222.764 49.7845 225.69 47.0358 225.69 43.4872C225.69 39.9389 222.764 37.1902 217.91 37.1902ZM217.91 46.8859C215.485 46.8859 213.935 45.4365 213.935 43.4872C213.935 41.5383 215.485 40.1138 217.91 40.1138C220.312 40.1138 221.888 41.5383 221.888 43.4872C221.888 45.4365 220.312 46.8859 217.91 46.8859ZM237.769 36.8403H234.142V38.0397C229.59 38.1397 226.863 40.0638 226.863 43.4623C226.863 46.8607 229.59 48.635 234.142 48.735V49.9345H237.769V48.735C242.345 48.635 245.072 46.8607 245.072 43.4623C245.072 40.0638 242.345 38.1397 237.769 38.0397V36.8403ZM234.142 46.1861C231.64 46.0861 230.54 45.0616 230.54 43.4623C230.54 41.863 231.64 40.7136 234.142 40.6137V46.1861ZM237.769 40.6137C240.295 40.7136 241.37 41.863 241.37 43.4623C241.37 45.0616 240.295 46.0861 237.769 46.1861V40.6137ZM257.137 36.8403H253.51V38.0397C248.958 38.1397 246.233 40.0638 246.233 43.4623C246.233 46.8607 248.958 48.635 253.51 48.735V49.9345H257.137V48.735C261.715 48.635 264.441 46.8607 264.441 43.4623C264.441 40.0638 261.715 38.1397 257.137 38.0397V36.8403ZM253.51 46.1861C251.01 46.0861 249.909 45.0616 249.909 43.4623C249.909 41.863 251.01 40.7136 253.51 40.6137V46.1861ZM257.137 40.6137C259.664 40.7136 260.739 41.863 260.739 43.4623C260.739 45.0616 259.664 46.0861 257.137 46.1861V40.6137Z" fill="black"/>
</g>
<defs>
<clipPath id="clip0_1063_13913">
<rect width="198" height="52" fill="white" transform="translate(66.5 16)"/>
</clipPath>
</defs>
</svg>
