<svg fill="none" height="48" viewBox="0 0 70 48" width="70" xmlns="http://www.w3.org/2000/svg"><g fill="#3ab0e2"><path d="m21.6555 10.0015h11.0315c1.5399 0 2.4977 1.2552 2.1385 2.8002l-5.136 22.0507c-.3625 1.5397-1.9042 2.7959-3.4452 2.7959h-11.0305c-1.5378 0-2.4977-1.2562-2.1384-2.7959l5.1381-22.0507c.3592-1.545 1.9002-2.8002 3.442-2.8002z"/><path d="m31.7686 10h12.686c1.5396 0 .8453 1.2552.4832 2.8002l-5.1352 22.0507c-.3603 1.5396-.2479 2.7959-1.7908 2.7959h-12.686c-1.5429 0-2.4977-1.2563-2.1352-2.7959l5.1349-22.0507c.3646-1.545 1.9023-2.8002 3.4431-2.8002z"/><path d="m43.9516 10h11.0316c1.5421 0 2.4998 1.2552 2.1376 2.8002l-5.1351 22.0507c-.3625 1.5396-1.9054 2.7959-3.4471 2.7959h-11.0265c-1.5429 0-2.4998-1.2563-2.1384-2.7959l5.1359-22.0507c.3593-1.545 1.8992-2.8002 3.442-2.8002z"/></g><path d="m24.5361 17.0666c-1.1344.0115-1.4695 0-1.5765-.0253-.0411.1955-.8067 3.7268-.8088 3.7297-.1648.7144-.2848 1.2237-.6921 1.5526-.2313.1911-.5012.2834-.8142.2834-.5031 0-.7962-.2498-.8454-.7236l-.0094-.1627s.1533-.9569.1533-.9623c0 0 .8034-3.218.9473-3.6434.0075-.0242.0096-.0369.0115-.0484-1.5638.0137-1.841 0-1.8601-.0253-.0105.0347-.0492.2342-.0492.2342l-.8204 3.627-.0704.3076-.1364 1.0062c0 .2984.0586.542.1753.748.3738.6531 1.4399.751 2.043.751.7771 0 1.5061-.1651 1.9987-.4665.855-.5052 1.0787-1.295 1.2782-1.9968l.0925-.36s.8277-3.3422.9683-3.777c.0054-.0242.0075-.0369.0148-.0484zm2.8159 2.6962c-.1995 0-.5641.0484-.8916.2089-.1188.0611-.2312.1315-.3498.2017l.107-.3864-.0586-.0651c-.6945.1407-.85.1595-1.4915.2498l-.0538.0358c-.0745.6176-.1406 1.082-.4168 2.296-.1051.4474-.2143.8992-.3237 1.3455l.0296.0567c.6574-.0347.8569-.0347 1.4283-.0252l.0462-.0503c.0726-.3719.0821-.459.2428-1.2122.0756-.357.2332-1.1416.3109-1.421.1428-.0662.2836-.1312.4181-.1312.3202 0 .2812.2793.2689.3907-.0137.1868-.1304.7972-.2501 1.3213l-.0798.3382c-.0557.2498-.1167.4926-.1724.7403l.0242.0494c.648-.0347.8456-.0347 1.399-.0252l.0651-.0503c.1-.5808.1293-.7362.3068-1.5819l.0892-.3885c.1735-.7604.2606-1.146.1294-1.4601-.1388-.3519-.4716-.4369-.7774-.4369zm3.1458.7961c-.3445.0662-.5641.1103-.7825.1388-.2164.0347-.4275.0661-.7604.1124l-.0263.0239-.0242.0191c-.0347.2479-.0589.4622-.1049.7142-.039.2605-.099.5566-.1966.9819-.0755.3257-.1145.4391-.1575.5537-.042.1145-.0882.2258-.1732.5461l.0199.0296.0167.0271c.3111-.0148.5146-.0253.7238-.0271.2089-.0076.4254 0 .7604.0018l.0293-.0239.0315-.0263c.0484-.2888.0557-.3665.0852-.5074.0293-.1511.0799-.3603.2038-.9191.0587-.2624.124-.524.1848-.7919.0632-.2667.1293-.5294.1922-.7918l-.0094-.0317zm.0073-1.0734c-.313-.1847-.8623-.1261-1.232.1291-.3687.25-.4106.605-.0987.7921.3076.1796.8591.1261 1.2256-.1312.3678-.2555.4138-.6072.1051-.79zm1.8928 4.2781c.6333 0 1.2823-.1745 1.7709-.6924.3759-.42.5483-1.0449.608-1.3022.1944-.8529.043-1.2511-.1471-1.4936-.2888-.3698-.7991-.4883-1.3286-.4883-.3183 0-1.0766.0314-1.669.5775-.4253.3939-.6219.9285-.7405 1.441-.1196.5222-.2573 1.4622.6072 1.812.2667.1145.6512.146.8991.146zm-.0494-1.919c.146-.6459.3183-1.188.7582-1.188.3447 0 .3697.4034.2165 1.0514-.0275.1438-.1533.6786-.3235.9064-.1189.168-.2595.2699-.4149.2699-.0462 0-.3213 0-.3256-.4084-.0022-.2017.039-.4076.0893-.6313zm4.0112 1.8359.0495-.0502c.0701-.3719.0817-.4593.2371-1.2122.0777-.3571.2385-1.1417.3141-1.421.143-.0664.2815-.1315.4202-.1315.3181 0 .2794.2794.2668.3907-.0116.1871-.1283.7972-.2501 1.3213l-.0755.3382c-.0579.2501-.1208.4926-.1764.7405l.0242.0495c.6501-.0347.8402-.0347 1.3968-.0253l.0672-.0502c.0977-.5811.124-.7365.3068-1.5819l.0872-.3888c.1742-.7604.2624-1.1457.1333-1.4598-.1427-.3519-.4778-.4369-.7792-.4369-.1998 0-.5663.0481-.8919.2089-.1164.061-.2331.1312-.3477.2017l.0998-.3864-.0535-.0654c-.6943.1409-.8529.1598-1.4937.2501l-.0492.0358c-.0777.6176-.1409 1.0817-.417 2.296-.1051.4474-.2143.8991-.3235 1.3455l.0293.0567c.6585-.0347.8551-.0347 1.4254-.0253zm4.7769.0252c.0408-.1995.2836-1.3821.2858-1.3821 0 0 .2068-.8677.2194-.8991 0 0 .0651-.0904.1301-.1261h.0958c.9032 0 1.923 0 2.7224-.5881.544-.4033.9159-.9989 1.0818-1.7227.043-.1775.0747-.3886.0747-.5997 0-.2772-.0557-.5514-.2165-.7657-.4076-.5704-1.2193-.5808-2.1564-.5851-.003 0-.462.0043-.462.0043-1.1994.0148-1.6805.0104-1.8781-.0138-.0167.0874-.0481.2429-.0481.2429s-.4297 1.9913-.4297 1.9945c0 0-1.0282 4.2339-1.0766 4.4334 1.0473-.0126 1.4767-.0126 1.6574.0073zm.7961-3.5375s.4569-1.9873.4547-1.9798l.0148-.1019.0065-.0777.1825.0188s.9422.081.9643.0831c.3718.1439.5251.5147.4181.9987-.0976.4423-.3845.8141-.7532.9938-.3035.1521-.6754.1648-1.0586.1648h-.2479zm2.8444 1.7132c-.1207.5146-.2595 1.4546.6007 1.7897.2743.1167.52.1514.7698.1387.2638-.0142.5082-.1465.7346-.3369-.0204.0783-.0409.1565-.0613.235l.039.0503c.6187-.0261.8107-.0261 1.481-.021l.0608-.0462c.0979-.5754.1901-1.1342.4445-2.235.1239-.5273.2476-1.0495.3748-1.5746l-.0199-.0578c-.6921.1283-.8771.1557-1.5429.2501l-.0505.0411c-.0068.0535-.0137.1049-.0202.1562-.1035-.1672-.2536-.31-.4851-.399-.296-.1164-.9913.0336-1.5891.5778-.42.3886-.6216.921-.7362 1.4316zm1.4536.0314c.1482-.6343.3184-1.171.7593-1.171.2789 0 .4257.2574.3958.6962-.0236.1094-.0492.2248-.0796.3552-.0441.1885-.0919.3753-.1384.5625-.0474.128-.1025.2487-.163.3291-.1134.1608-.3834.2606-.5388.2606-.0441 0-.3162 0-.3256-.4012-.0022-.1998.0389-.4055.0903-.6314zm7.5908-2.0943-.0535-.0611c-.6849.1388-.8088.1608-1.438.2458l-.0463.0462c-.0021.0076-.004.0191-.0072.0296l-.0022-.0105c-.4684 1.0807-.4547.8476-.836 1.6983-.0021-.0387-.0021-.0629-.0043-.1041l-.0954-1.8442-.06-.0611c-.7174.1388-.7343.1608-1.3968.2458l-.0517.0462c-.0072.0221-.0072.0463-.0115.0726l.0043.0094c.0828.4233.0629.3289.146.9968.0387.3278.0903.6574.129.9812.0654.5418.102.8085.1818 1.6353-.4474.7384-.5534 1.0178-.9841 1.6658l.003.0064-.3034.4797c-.0346.0506-.0661.0852-.1102.1-.0484.024-.1113.0283-.1987.0283h-.1681l-.2497.8308.8569.0148c.5031-.0021.8193-.2374.9895-.5536l.5388-.9234h-.0086l.0568-.065c.3624-.7803 3.1196-5.51 3.1196-5.51zm-9.0444 10.912h-.3635l1.3455-4.4503h.4463l.1417-.4585.0137.5098c-.0167.3152.2313.5945.8825.5483h.7531l.2593-.8569h-.2835c-.1629 0-.2385-.0412-.229-.1294l-.0138-.5187h-1.3947v.0027c-.4509.0094-1.7975.0433-2.0701.1159-.3299.085-.6776.335-.6776.335l.1366-.4589h-1.3046l-.2719.9107-1.3635 4.5183h-.2646l-.2595.8508h2.5986l-.0872.2836h1.2805l.0849-.2836h.3593zm-1.0661-3.5461c-.209.0578-.5978.2332-.5978.2332l.3458-1.1374h1.0366l-.2501.8287s-.3202.0188-.5345.0755zm.0199 1.6249s-.3257.0409-.54.0893c-.211.064-.6068.2656-.6068.2656l.357-1.1836h1.042zm-.5808 1.9317h-1.0398l.3014-.9989h1.0366zm2.504-2.7604h1.4987l-.2153.6975h-1.5187l-.228.7626h1.3288l-1.0061 1.4167c-.0705.1041-.1337.1409-.2039.1702-.0704.0358-.1629.0777-.2699.0777h-.3687l-.2533.8352h.9643c.5012 0 .7972-.228 1.0158-.5273l.69-.9443.1481.9588c.0315.1796.1606.2848.2479.3256.0966.0484.1963.1315.3372.1439.1511.0064.2603.0115.3329.0115h.4738l.2845-.9346h-.1869c-.1073 0-.292-.018-.3235-.0516-.0314-.0409-.0314-.1038-.0484-.1995l-.1503-.961h-.6155l.27-.3213h1.5157l.2331-.7626h-1.4033l.2186-.6975h1.399l.2595-.8602h-4.1709zm-12.6586 2.9546.3498-1.1637h1.4377l.2627-.8656h-1.4391l.2197-.7163h1.4063l.2605-.8381h-3.5186l-.2552.8381h.7994l-.2132.7163h-.8016l-.2656.8803h.7991l-.4662 1.5397c-.063.2038.0295.2815.0882.3762.0599.0922.1207.1532.2573.1879.1409.0315.2374.0503.3686.0503h1.6209l.2887-.9589-.7184.0987c-.1388 0-.523-.0166-.481-.1449zm.1649-5.571-.3644.6585c-.078.1439-.1481.2331-.2113.2743-.0557.0347-.1659.0492-.3256.0492h-.1901l-.2541.8424h.6313c.3036 0 .5367-.1113.648-.167.1197-.064.1511-.0274.2436-.1167l.2132-.1847h1.9715l.2616-.8771h-1.4431l.252-.4789zm2.9105 5.5879c-.0336-.0484-.0094-.1336.0419-.3111l.5389-1.7835h1.9169c.2793-.004.481-.0073.6122-.0167.1409-.0148.2942-.065.4611-.1554.1724-.0946.2606-.1944.3351-.3089.0831-.1143.2164-.3644.331-.75l.6773-2.257-1.9892.0116s-.6125.0903-.8822.1901c-.2721.1113-.661.4221-.661.4221l.1797-.6187h-1.2288l-1.7204 5.7055c-.061.2216-.1019.3824-.1113.4789-.0032.104.1312.207.2183.2847.103.0777.2552.0651.4012.0777.1536.0116.3719.0189.6733.0189h.9443l.2899-.9788-.8454.0799c-.0903 0-.1557-.0484-.1828-.0893zm.9284-3.2992h2.0135l-.128.4012c-.0181.0094-.0611-.0199-.266.0043h-1.7434zm.4034-1.3455h2.0303l-.146.4832s-.9569-.0094-1.1102.0188c-.6744.1167-1.0683.477-1.0683.477zm1.5271 3.0901c-.0166.06-.043.0965-.0798.124-.0409.0263-.107.0357-.2057.0357h-.2869l.0169-.4886h-1.1933l-.0484 2.3886c-.0019.1723.0148.2721.1409.3519.1261.0998.5146.1124 1.0376.1124h.7478l.27-.894-.651.0357-.2165.0127c-.0295-.0127-.0578-.0242-.0892-.0557-.0275-.0271-.0737-.0105-.0662-.1828l.0051-.6123.6827-.0282c.3687 0 .5262-.1199.6607-.2342.1282-.1094.1702-.2353.2186-.4055l.1145-.5421h-.9381z" fill="#fefefe"/></svg>