<svg fill="none" height="137" viewBox="0 0 371 137" width="371" xmlns="http://www.w3.org/2000/svg"><ellipse cx="253.5" cy="63" fill="#91ceeb" rx="35" ry="33"/><g fill="#000"><path clip-rule="evenodd" d="m108.528 42c0 19.33-15.2285 35-34.0139 35-18.7855 0-34.0141-15.67-34.0141-35s15.2286-35 34.0141-35c18.7854 0 34.0139 15.67 34.0139 35zm-36.4787 28.493c16.9886 0 30.7607-13.3747 30.7607-29.8733 0-16.4985-13.7721-29.8732-30.7607-29.8732s-30.7606 13.3747-30.7606 29.8732c0 16.4986 13.772 29.8733 30.7606 29.8733z" fill-rule="evenodd"/><path d="m59.7554 55.9014c-.43 0-.8119-.2749-.9484-.6827l-7.9082-23.6338c-.2167-.6477.2653-1.3173.9483-1.3173h8.2299c.4364 0 .8224.283.9536.6992l2.9122 9.2338c.2898.9188 1.5836.9368 1.8987.0263l3.2146-9.2864c.1394-.4028.5188-.6729.945-.6729h6.7589c.4262 0 .8056.2701.945.6729l3.2372 9.3518c.3128.9038 1.5941.8949 1.8944-.013l3.0846-9.3258c.1355-.4094.5182-.6859.9495-.6859h7.9548c.6801 0 1.1618.6643.9505 1.3107l-7.7265 23.6338c-.1344.4112-.5179.6893-.9505.6893h-9.9219c-.4158 0-.7882-.2574-.9353-.6463l-4.1262-10.9114c-.0397-.1051-.1404-.1747-.2528-.1747-.1928 0-.3236.1959-.2498.3739l1.373 3.3113c.0953.2297.1015.4868.0175.7209l-2.3923 6.6641c-.1426.3972-.5192.6622-.9412.6622z"/><path d="m123.272 55.7042c-.43 0-.812-.275-.948-.6829l-7.835-23.4367c-.216-.6477.266-1.317.949-1.317h8.14c.437 0 .823.2831.954.6995l2.877 9.132c.29.9191 1.584.9371 1.899.0263l3.177-9.1847c.139-.4029.518-.6731.945-.6731h6.688c.426 0 .805.2702.945.6731l3.199 9.2501c.312.9042 1.594.8953 1.894-.013l3.049-9.224c.135-.4096.518-.6862.949-.6862h7.868c.68 0 1.162.664.951 1.3105l-7.655 23.4366c-.134.4113-.518.6895-.95.6895h-9.824c-.416 0-.789-.2575-.936-.6466l-4.088-10.8222c-.04-.1043-.14-.1733-.251-.1733-.191 0-.321.1941-.248.3706l1.361 3.2837c.095.2296.101.4864.017.7203l-2.369 6.6051c-.142.3973-.519.6624-.941.6624z"/><path clip-rule="evenodd" d="m172.12 30.2678c9.465 0 10.155 6.0139 10.155 7.7887 0 1.4701-.544 2.442-1.14 3.2227-.4.5253-.24 1.3049.266 1.7302 1.114.9369 2.353 2.6105 2.353 4.7089 0 2.4667-.592 7.9862-11.437 7.9862-4.617 0-8.283-.0776-11.093-.0263-.566.0103-1.034-.4425-1.034-1.008v-23.4024c0-.5523.448-1 1-1zm-1.465 18.4364c-.552 0-1-.4477-1-1v-11.0282h2.761c.887 0 1.577.5916 1.577 1.3805s-.69 1.2815-1.479 1.2815h-1.267c-.553 0-1 .4477-1 1v4.6056c0 .5523.447 1 1 1h1.366c.887 0 1.676.6113 1.676 1.4789 0 .8021-.618 1.1604-.997 1.2619-.058.0155-.118.0198-.178.0198z" fill-rule="evenodd"/><path d="m197.556 56.2958c-7.351 0-13.31-6.0032-13.31-13.4085 0-7.4052 5.959-13.4084 13.31-13.4084 6.857 0 12.503 5.2236 13.231 11.9363.066.6137-.481 1.0962-1.093 1.0193-3.173-.3981-5.016-.3962-8.17-.843-.355-.0504-.646-.2968-.826-.6079-.634-1.103-1.804-1.8427-3.142-1.8427-2.015 0-3.648 1.6773-3.648 3.7464 0 2.0692 1.633 3.7465 3.648 3.7465 1.543 0 2.862-.984 3.395-2.3744.212-.553.748-.9848 1.333-.8918 2.897.4607 4.927.5565 7.567 1.0237.515.0912.866.5754.766 1.0892-1.199 6.1643-6.591 10.8153-13.061 10.8153z"/><path clip-rule="evenodd" d="m239.261 42.8873c0 7.4053-6.18 13.4085-13.803 13.4085s-13.803-6.0032-13.803-13.4085c0-7.4052 6.18-13.4084 13.803-13.4084s13.803 6.0032 13.803 13.4084zm-13.803 3.5493c2.069 0 3.747-1.589 3.747-3.5493 0-1.9602-1.678-3.5493-3.747-3.5493s-3.746 1.5891-3.746 3.5493c0 1.9603 1.677 3.5493 3.746 3.5493z" fill-rule="evenodd"/><path d="m241.147 55.7042c-.552 0-1-.4477-1-1v-23.4366c0-.5523.448-1 1-1h7.426c.34 0 .658.1732.841.4596l6.522 10.1546c.053.0824.144.1323.242.1323.229 0 .366-.2543.24-.4456l-1.614-2.4595c-.107-.163-.164-.3537-.164-.5487v-6.2927c0-.5523.448-1 1-1h7.465c.552 0 1 .4477 1 1v23.4366c0 .5523-.448 1-1 1h-7.915c-.342 0-.661-.1749-.844-.4636l-6.349-9.9893c-.038-.06-.104-.0964-.175-.0964-.164 0-.264.1811-.175.3195l1.71 2.6883c.102.1605.157.3467.157.5369v6.0046c0 .5523-.448 1-1 1z"/></g></svg>